<?xml version="1.0" encoding="utf-8" standalone="no"?>
<!DOCTYPE svg PUBLIC "-//W3C//DTD SVG 1.1//EN"
  "http://www.w3.org/Graphics/SVG/1.1/DTD/svg11.dtd">
<svg xmlns:xlink="http://www.w3.org/1999/xlink" width="446.4pt" height="288pt" viewBox="0 0 446.4 288" xmlns="http://www.w3.org/2000/svg" version="1.1">
 <metadata>
  <rdf:RDF xmlns:dc="http://purl.org/dc/elements/1.1/" xmlns:cc="http://creativecommons.org/ns#" xmlns:rdf="http://www.w3.org/1999/02/22-rdf-syntax-ns#">
   <cc:Work>
    <dc:type rdf:resource="http://purl.org/dc/dcmitype/StillImage"/>
    <dc:date>2026-06-14T13:35:10.871793</dc:date>
    <dc:format>image/svg+xml</dc:format>
    <dc:creator>
     <cc:Agent>
      <dc:title>Matplotlib v3.9.0, https://matplotlib.org/</dc:title>
     </cc:Agent>
    </dc:creator>
   </cc:Work>
  </rdf:RDF>
 </metadata>
 <defs>
  <style type="text/css">*{stroke-linejoin: round; stroke-linecap: butt}</style>
 </defs>
 <g id="figure_1">
  <g id="patch_1">
   <path d="M 0 288 
L 446.4 288 
L 446.4 0 
L 0 0 
z
" style="fill: #ffffff"/>
  </g>
  <g id="axes_1">
   <g id="patch_2">
    <path d="M 41.15 246.04 
L 434.463529 246.04 
L 434.463529 25.44 
L 41.15 25.44 
z
" style="fill: #ffffff"/>
   </g>
   <g id="PolyCollection_1">
    <defs>
     <path id="m175e78e94c" d="M 45.006015 -41.96 
L 45.006015 -254.370823 
L 45.771036 -246.023009 
L 46.536057 -238.956994 
L 47.301078 -232.831035 
L 48.066099 -227.424121 
L 48.83112 -222.585047 
L 49.596141 -218.205797 
L 50.361162 -214.206516 
L 51.126183 -210.5265 
L 51.891204 -207.118521 
L 52.656225 -203.945114 
L 53.421246 -200.976057 
L 54.186267 -198.186616 
L 54.951288 -195.556293 
L 55.716309 -193.067911 
L 56.48133 -190.706932 
L 57.246351 -188.460942 
L 58.011372 -186.319259 
L 58.776393 -184.272624 
L 59.541414 -182.312956 
L 60.306435 -180.433166 
L 61.071456 -178.626996 
L 61.836477 -176.888896 
L 62.601498 -175.213921 
L 63.366519 -173.597645 
L 64.13154 -172.036095 
L 64.896561 -170.525685 
L 65.661582 -169.06317 
L 66.426603 -167.645608 
L 67.191624 -166.270316 
L 67.956645 -164.934847 
L 68.721666 -163.636959 
L 69.486687 -162.374595 
L 70.251708 -161.145861 
L 71.016729 -159.949013 
L 71.78175 -158.782437 
L 72.546771 -157.64464 
L 73.311792 -156.534235 
L 74.076813 -155.449935 
L 74.841834 -154.390541 
L 75.606855 -153.354934 
L 76.371876 -152.342069 
L 77.136897 -151.350969 
L 77.901918 -150.380718 
L 78.666939 -149.430457 
L 79.43196 -148.499379 
L 80.196981 -147.586724 
L 80.962003 -146.691778 
L 81.727024 -145.813867 
L 82.492045 -144.952354 
L 83.257066 -144.106637 
L 84.022087 -143.276149 
L 84.787108 -142.460349 
L 85.552129 -141.658729 
L 86.31715 -140.870802 
L 87.082171 -140.096109 
L 87.847192 -139.334214 
L 88.612213 -138.584699 
L 89.377234 -137.847169 
L 90.142255 -137.121247 
L 90.907276 -136.406573 
L 91.672297 -135.702804 
L 92.437318 -135.009612 
L 93.202339 -134.326683 
L 93.96736 -133.653719 
L 94.732381 -132.990433 
L 95.497402 -132.336549 
L 96.262423 -131.691806 
L 97.027444 -131.055951 
L 97.792465 -130.428743 
L 98.557486 -129.80995 
L 99.322507 -129.199348 
L 100.087528 -128.596724 
L 100.852549 -128.001872 
L 101.61757 -127.414594 
L 102.382591 -126.8347 
L 103.147612 -126.262006 
L 103.912633 -125.696335 
L 104.677654 -125.137518 
L 105.442675 -124.585391 
L 106.207696 -124.039794 
L 106.972717 -123.500576 
L 107.737738 -122.967588 
L 108.502759 -122.44069 
L 109.26778 -121.919742 
L 110.032801 -121.404612 
L 110.797822 -120.895173 
L 111.562843 -120.391298 
L 112.327864 -119.892868 
L 113.092885 -119.399767 
L 113.857906 -118.911882 
L 114.622927 -118.429104 
L 115.387948 -117.951326 
L 116.152969 -117.478447 
L 116.91799 -117.010367 
L 117.683011 -116.546989 
L 118.448032 -116.08822 
L 119.213053 -115.63397 
L 119.978074 -115.184149 
L 120.743095 -114.738673 
L 121.508116 -114.297458 
L 122.273137 -113.860424 
L 123.038158 -113.427492 
L 123.803179 -112.998585 
L 124.5682 -112.573631 
L 125.333221 -112.152556 
L 126.098242 -111.73529 
L 126.863263 -111.321765 
L 127.628284 -110.911914 
L 128.393305 -110.505674 
L 129.158326 -110.10298 
L 129.923347 -109.703771 
L 130.688368 -109.307988 
L 131.453389 -108.915573 
L 132.21841 -108.526467 
L 132.983431 -108.140617 
L 133.748452 -107.757968 
L 134.513473 -107.378467 
L 135.278494 -107.002063 
L 136.043515 -106.628706 
L 136.808536 -106.258347 
L 137.573557 -105.890938 
L 138.338578 -105.526433 
L 139.103599 -105.164785 
L 139.86862 -104.805951 
L 140.633641 -104.449888 
L 141.398662 -104.096551 
L 142.163683 -103.745901 
L 142.928704 -103.397897 
L 143.693725 -103.052499 
L 144.458746 -102.709668 
L 145.223767 -102.369366 
L 145.988788 -102.031556 
L 146.753809 -101.696203 
L 147.51883 -101.36327 
L 148.283851 -101.032724 
L 149.048872 -100.704529 
L 149.813893 -100.378653 
L 150.578914 -100.055063 
L 151.343936 -99.733728 
L 152.108957 -99.414616 
L 152.873978 -99.097696 
L 153.638999 -98.782939 
L 154.40402 -98.470316 
L 155.169041 -98.159797 
L 155.934062 -97.851355 
L 156.699083 -97.544961 
L 157.464104 -97.240589 
L 158.229125 -96.938213 
L 158.994146 -96.637806 
L 159.759167 -96.339343 
L 160.524188 -96.042799 
L 161.289209 -95.74815 
L 162.05423 -95.45537 
L 162.819251 -95.164438 
L 163.584272 -94.875329 
L 164.349293 -94.58802 
L 165.114314 -94.302491 
L 165.879335 -94.018718 
L 166.644356 -93.73668 
L 167.409377 -93.456357 
L 168.174398 -93.177726 
L 168.939419 -92.900769 
L 169.70444 -92.625465 
L 170.469461 -92.351794 
L 171.234482 -92.079738 
L 171.999503 -91.809277 
L 172.764524 -91.540392 
L 173.529545 -91.273066 
L 174.294566 -91.00728 
L 175.059587 -90.743018 
L 175.824608 -90.48026 
L 176.589629 -90.218991 
L 177.35465 -89.959194 
L 178.119671 -89.700851 
L 178.884692 -89.443948 
L 179.649713 -89.188467 
L 180.414734 -88.934394 
L 181.179755 -88.681713 
L 181.944776 -88.430408 
L 182.709797 -88.180466 
L 183.474818 -87.93187 
L 184.239839 -87.684607 
L 185.00486 -87.438663 
L 185.769881 -87.194023 
L 186.534902 -86.950673 
L 187.299923 -86.708601 
L 188.064944 -86.467793 
L 188.829965 -86.228235 
L 189.594986 -85.989915 
L 190.360007 -85.75282 
L 191.125028 -85.516938 
L 191.890049 -85.282256 
L 192.65507 -85.048762 
L 193.420091 -84.816444 
L 194.185112 -84.58529 
L 194.950133 -84.355289 
L 195.715154 -84.126429 
L 196.480175 -83.898699 
L 197.245196 -83.672088 
L 198.010217 -83.446585 
L 198.775238 -83.222179 
L 199.540259 -82.998859 
L 200.30528 -82.776615 
L 201.070301 -82.555438 
L 201.835322 -82.335315 
L 202.600343 -82.116239 
L 203.365364 -81.898197 
L 204.130385 -81.681182 
L 204.895406 -81.465183 
L 205.660427 -81.250191 
L 206.425448 -81.036196 
L 207.190469 -80.82319 
L 207.95549 -80.611163 
L 208.720511 -80.400105 
L 209.485532 -80.19001 
L 210.250553 -79.980867 
L 211.015574 -79.772668 
L 211.780595 -79.565404 
L 212.545616 -79.359068 
L 213.310637 -79.15365 
L 214.075658 -78.949144 
L 214.840679 -78.74554 
L 215.6057 -78.542831 
L 216.370721 -78.341009 
L 217.135742 -78.140066 
L 217.900763 -77.939995 
L 218.665784 -77.740788 
L 219.430805 -77.542437 
L 220.195826 -77.344936 
L 220.960847 -77.148277 
L 221.725869 -76.952453 
L 222.49089 -76.757457 
L 223.255911 -76.563281 
L 224.020932 -76.36992 
L 224.785953 -76.177366 
L 225.550974 -75.985612 
L 226.315995 -75.794652 
L 227.081016 -75.60448 
L 227.846037 -75.415089 
L 228.611058 -75.226472 
L 229.376079 -75.038623 
L 230.1411 -74.851536 
L 230.906121 -74.665205 
L 231.671142 -74.479623 
L 232.436163 -74.294785 
L 233.201184 -74.110685 
L 233.966205 -73.927317 
L 234.731226 -73.744675 
L 235.496247 -73.562754 
L 236.261268 -73.381547 
L 237.026289 -73.201049 
L 237.79131 -73.021255 
L 238.556331 -72.842159 
L 239.321352 -72.663755 
L 240.086373 -72.486039 
L 240.851394 -72.309005 
L 241.616415 -72.132648 
L 242.381436 -71.956963 
L 243.146457 -71.781944 
L 243.911478 -71.607587 
L 244.676499 -71.433887 
L 245.44152 -71.260838 
L 246.206541 -71.088436 
L 246.971562 -70.916676 
L 247.736583 -70.745554 
L 248.501604 -70.575064 
L 249.266625 -70.405201 
L 250.031646 -70.235962 
L 250.796667 -70.067342 
L 251.561688 -69.899336 
L 252.326709 -69.731939 
L 253.09173 -69.565148 
L 253.856751 -69.398958 
L 254.621772 -69.233365 
L 255.386793 -69.068364 
L 256.151814 -68.903951 
L 256.916835 -68.740122 
L 257.681856 -68.576873 
L 258.446877 -68.414199 
L 259.211898 -68.252098 
L 259.976919 -68.090564 
L 260.74194 -67.929593 
L 261.506961 -67.769183 
L 262.271982 -67.609329 
L 263.037003 -67.450026 
L 263.802024 -67.291272 
L 264.567045 -67.133063 
L 265.332066 -66.975394 
L 266.097087 -66.818262 
L 266.862108 -66.661664 
L 267.627129 -66.505596 
L 268.39215 -66.350054 
L 269.157171 -66.195035 
L 269.922192 -66.040535 
L 270.687213 -65.886551 
L 271.452234 -65.733079 
L 272.217255 -65.580116 
L 272.982276 -65.427659 
L 273.747297 -65.275704 
L 274.512318 -65.124248 
L 275.277339 -64.973288 
L 276.04236 -64.82282 
L 276.807381 -64.672841 
L 277.572402 -64.523349 
L 278.337423 -64.374339 
L 279.102444 -64.22581 
L 279.867465 -64.077757 
L 280.632486 -63.930178 
L 281.397507 -63.783069 
L 282.162528 -63.636428 
L 282.927549 -63.490252 
L 283.69257 -63.344538 
L 284.457591 -63.199283 
L 285.222612 -63.054483 
L 285.987633 -62.910137 
L 286.752654 -62.766241 
L 287.517675 -62.622793 
L 288.282696 -62.479789 
L 289.047717 -62.337227 
L 289.812738 -62.195105 
L 290.577759 -62.053419 
L 291.34278 -61.912167 
L 292.107802 -61.771346 
L 292.872823 -61.630954 
L 293.637844 -61.490988 
L 294.402865 -61.351446 
L 295.167886 -61.212324 
L 295.932907 -61.073621 
L 296.697928 -60.935333 
L 297.462949 -60.797459 
L 298.22797 -60.659996 
L 298.992991 -60.522941 
L 299.758012 -60.386293 
L 300.523033 -60.250047 
L 301.288054 -60.114204 
L 302.053075 -59.978759 
L 302.818096 -59.84371 
L 303.583117 -59.709056 
L 304.348138 -59.574794 
L 305.113159 -59.440922 
L 305.87818 -59.307437 
L 306.643201 -59.174337 
L 307.408222 -59.04162 
L 308.173243 -58.909284 
L 308.938264 -58.777327 
L 309.703285 -58.645746 
L 310.468306 -58.514539 
L 311.233327 -58.383705 
L 311.998348 -58.25324 
L 312.763369 -58.123144 
L 313.52839 -57.993413 
L 314.293411 -57.864046 
L 315.058432 -57.735042 
L 315.823453 -57.606396 
L 316.588474 -57.478109 
L 317.353495 -57.350178 
L 318.118516 -57.2226 
L 318.883537 -57.095374 
L 319.648558 -56.968499 
L 320.413579 -56.841971 
L 321.1786 -56.71579 
L 321.943621 -56.589952 
L 322.708642 -56.464457 
L 323.473663 -56.339303 
L 324.238684 -56.214487 
L 325.003705 -56.090008 
L 325.768726 -55.965864 
L 326.533747 -55.842054 
L 327.298768 -55.718575 
L 328.063789 -55.595425 
L 328.82881 -55.472604 
L 329.593831 -55.350108 
L 330.358852 -55.227937 
L 331.123873 -55.106089 
L 331.888894 -54.984562 
L 332.653915 -54.863354 
L 333.418936 -54.742464 
L 334.183957 -54.62189 
L 334.948978 -54.501631 
L 335.713999 -54.381684 
L 336.47902 -54.262048 
L 337.244041 -54.142721 
L 338.009062 -54.023703 
L 338.774083 -53.904991 
L 339.539104 -53.786584 
L 340.304125 -53.668479 
L 341.069146 -53.550677 
L 341.834167 -53.433174 
L 342.599188 -53.315971 
L 343.364209 -53.199064 
L 344.12923 -53.082453 
L 344.894251 -52.966135 
L 345.659272 -52.850111 
L 346.424293 -52.734377 
L 347.189314 -52.618934 
L 347.954335 -52.503778 
L 348.719356 -52.388909 
L 349.484377 -52.274326 
L 350.249398 -52.160027 
L 351.014419 -52.04601 
L 351.77944 -51.932274 
L 352.544461 -51.818818 
L 353.309482 -51.70564 
L 354.074503 -51.59274 
L 354.839524 -51.480115 
L 355.604545 -51.367764 
L 356.369566 -51.255687 
L 357.134587 -51.143881 
L 357.899608 -51.032345 
L 358.664629 -50.921079 
L 359.42965 -50.81008 
L 360.194671 -50.699348 
L 360.959692 -50.588881 
L 361.724713 -50.478678 
L 362.489735 -50.368737 
L 363.254756 -50.259058 
L 364.019777 -50.14964 
L 364.784798 -50.04048 
L 365.549819 -49.931578 
L 366.31484 -49.822932 
L 367.079861 -49.714542 
L 367.844882 -49.606406 
L 368.609903 -49.498522 
L 369.374924 -49.390891 
L 370.139945 -49.28351 
L 370.904966 -49.176378 
L 371.669987 -49.069495 
L 372.435008 -48.962859 
L 373.200029 -48.856469 
L 373.96505 -48.750323 
L 374.730071 -48.644422 
L 375.495092 -48.538763 
L 376.260113 -48.433345 
L 377.025134 -48.328168 
L 377.790155 -48.22323 
L 378.555176 -48.11853 
L 379.320197 -48.014068 
L 380.085218 -47.909841 
L 380.850239 -47.80585 
L 381.61526 -47.702092 
L 382.380281 -47.598567 
L 383.145302 -47.495275 
L 383.910323 -47.392213 
L 384.675344 -47.28938 
L 385.440365 -47.186777 
L 386.205386 -47.084401 
L 386.970407 -46.982252 
L 387.735428 -46.880328 
L 388.500449 -46.77863 
L 389.26547 -46.677155 
L 390.030491 -46.575903 
L 390.795512 -46.474872 
L 391.560533 -46.374063 
L 392.325554 -46.273473 
L 393.090575 -46.173102 
L 393.855596 -46.072949 
L 394.620617 -45.973014 
L 395.385638 -45.873294 
L 396.150659 -45.773789 
L 396.91568 -45.674499 
L 397.680701 -45.575421 
L 398.445722 -45.476557 
L 399.210743 -45.377903 
L 399.975764 -45.27946 
L 400.740785 -45.181227 
L 401.505806 -45.083203 
L 402.270827 -44.985386 
L 403.035848 -44.887777 
L 403.800869 -44.790373 
L 404.56589 -44.693175 
L 405.330911 -44.596181 
L 406.095932 -44.499391 
L 406.860953 -44.402804 
L 407.625974 -44.306418 
L 408.390995 -44.210233 
L 409.156016 -44.114249 
L 409.921037 -44.018464 
L 410.686058 -43.922877 
L 411.451079 -43.827488 
L 412.2161 -43.732296 
L 412.981121 -43.6373 
L 413.746142 -43.542499 
L 414.511163 -43.447892 
L 415.276184 -43.35348 
L 416.041205 -43.25926 
L 416.806226 -43.165232 
L 417.571247 -43.071396 
L 418.336268 -42.97775 
L 419.101289 -42.884293 
L 419.86631 -42.791026 
L 420.631331 -42.697947 
L 421.396352 -42.605055 
L 422.161373 -42.51235 
L 422.926394 -42.419831 
L 423.691415 -42.327498 
L 424.456436 -42.235348 
L 425.221457 -42.143383 
L 425.986478 -42.0516 
L 426.751499 -41.96 
L 426.751499 -41.96 
L 426.751499 -41.96 
L 425.986478 -41.96 
L 425.221457 -41.96 
L 424.456436 -41.96 
L 423.691415 -41.96 
L 422.926394 -41.96 
L 422.161373 -41.96 
L 421.396352 -41.96 
L 420.631331 -41.96 
L 419.86631 -41.96 
L 419.101289 -41.96 
L 418.336268 -41.96 
L 417.571247 -41.96 
L 416.806226 -41.96 
L 416.041205 -41.96 
L 415.276184 -41.96 
L 414.511163 -41.96 
L 413.746142 -41.96 
L 412.981121 -41.96 
L 412.2161 -41.96 
L 411.451079 -41.96 
L 410.686058 -41.96 
L 409.921037 -41.96 
L 409.156016 -41.96 
L 408.390995 -41.96 
L 407.625974 -41.96 
L 406.860953 -41.96 
L 406.095932 -41.96 
L 405.330911 -41.96 
L 404.56589 -41.96 
L 403.800869 -41.96 
L 403.035848 -41.96 
L 402.270827 -41.96 
L 401.505806 -41.96 
L 400.740785 -41.96 
L 399.975764 -41.96 
L 399.210743 -41.96 
L 398.445722 -41.96 
L 397.680701 -41.96 
L 396.91568 -41.96 
L 396.150659 -41.96 
L 395.385638 -41.96 
L 394.620617 -41.96 
L 393.855596 -41.96 
L 393.090575 -41.96 
L 392.325554 -41.96 
L 391.560533 -41.96 
L 390.795512 -41.96 
L 390.030491 -41.96 
L 389.26547 -41.96 
L 388.500449 -41.96 
L 387.735428 -41.96 
L 386.970407 -41.96 
L 386.205386 -41.96 
L 385.440365 -41.96 
L 384.675344 -41.96 
L 383.910323 -41.96 
L 383.145302 -41.96 
L 382.380281 -41.96 
L 381.61526 -41.96 
L 380.850239 -41.96 
L 380.085218 -41.96 
L 379.320197 -41.96 
L 378.555176 -41.96 
L 377.790155 -41.96 
L 377.025134 -41.96 
L 376.260113 -41.96 
L 375.495092 -41.96 
L 374.730071 -41.96 
L 373.96505 -41.96 
L 373.200029 -41.96 
L 372.435008 -41.96 
L 371.669987 -41.96 
L 370.904966 -41.96 
L 370.139945 -41.96 
L 369.374924 -41.96 
L 368.609903 -41.96 
L 367.844882 -41.96 
L 367.079861 -41.96 
L 366.31484 -41.96 
L 365.549819 -41.96 
L 364.784798 -41.96 
L 364.019777 -41.96 
L 363.254756 -41.96 
L 362.489735 -41.96 
L 361.724713 -41.96 
L 360.959692 -41.96 
L 360.194671 -41.96 
L 359.42965 -41.96 
L 358.664629 -41.96 
L 357.899608 -41.96 
L 357.134587 -41.96 
L 356.369566 -41.96 
L 355.604545 -41.96 
L 354.839524 -41.96 
L 354.074503 -41.96 
L 353.309482 -41.96 
L 352.544461 -41.96 
L 351.77944 -41.96 
L 351.014419 -41.96 
L 350.249398 -41.96 
L 349.484377 -41.96 
L 348.719356 -41.96 
L 347.954335 -41.96 
L 347.189314 -41.96 
L 346.424293 -41.96 
L 345.659272 -41.96 
L 344.894251 -41.96 
L 344.12923 -41.96 
L 343.364209 -41.96 
L 342.599188 -41.96 
L 341.834167 -41.96 
L 341.069146 -41.96 
L 340.304125 -41.96 
L 339.539104 -41.96 
L 338.774083 -41.96 
L 338.009062 -41.96 
L 337.244041 -41.96 
L 336.47902 -41.96 
L 335.713999 -41.96 
L 334.948978 -41.96 
L 334.183957 -41.96 
L 333.418936 -41.96 
L 332.653915 -41.96 
L 331.888894 -41.96 
L 331.123873 -41.96 
L 330.358852 -41.96 
L 329.593831 -41.96 
L 328.82881 -41.96 
L 328.063789 -41.96 
L 327.298768 -41.96 
L 326.533747 -41.96 
L 325.768726 -41.96 
L 325.003705 -41.96 
L 324.238684 -41.96 
L 323.473663 -41.96 
L 322.708642 -41.96 
L 321.943621 -41.96 
L 321.1786 -41.96 
L 320.413579 -41.96 
L 319.648558 -41.96 
L 318.883537 -41.96 
L 318.118516 -41.96 
L 317.353495 -41.96 
L 316.588474 -41.96 
L 315.823453 -41.96 
L 315.058432 -41.96 
L 314.293411 -41.96 
L 313.52839 -41.96 
L 312.763369 -41.96 
L 311.998348 -41.96 
L 311.233327 -41.96 
L 310.468306 -41.96 
L 309.703285 -41.96 
L 308.938264 -41.96 
L 308.173243 -41.96 
L 307.408222 -41.96 
L 306.643201 -41.96 
L 305.87818 -41.96 
L 305.113159 -41.96 
L 304.348138 -41.96 
L 303.583117 -41.96 
L 302.818096 -41.96 
L 302.053075 -41.96 
L 301.288054 -41.96 
L 300.523033 -41.96 
L 299.758012 -41.96 
L 298.992991 -41.96 
L 298.22797 -41.96 
L 297.462949 -41.96 
L 296.697928 -41.96 
L 295.932907 -41.96 
L 295.167886 -41.96 
L 294.402865 -41.96 
L 293.637844 -41.96 
L 292.872823 -41.96 
L 292.107802 -41.96 
L 291.34278 -41.96 
L 290.577759 -41.96 
L 289.812738 -41.96 
L 289.047717 -41.96 
L 288.282696 -41.96 
L 287.517675 -41.96 
L 286.752654 -41.96 
L 285.987633 -41.96 
L 285.222612 -41.96 
L 284.457591 -41.96 
L 283.69257 -41.96 
L 282.927549 -41.96 
L 282.162528 -41.96 
L 281.397507 -41.96 
L 280.632486 -41.96 
L 279.867465 -41.96 
L 279.102444 -41.96 
L 278.337423 -41.96 
L 277.572402 -41.96 
L 276.807381 -41.96 
L 276.04236 -41.96 
L 275.277339 -41.96 
L 274.512318 -41.96 
L 273.747297 -41.96 
L 272.982276 -41.96 
L 272.217255 -41.96 
L 271.452234 -41.96 
L 270.687213 -41.96 
L 269.922192 -41.96 
L 269.157171 -41.96 
L 268.39215 -41.96 
L 267.627129 -41.96 
L 266.862108 -41.96 
L 266.097087 -41.96 
L 265.332066 -41.96 
L 264.567045 -41.96 
L 263.802024 -41.96 
L 263.037003 -41.96 
L 262.271982 -41.96 
L 261.506961 -41.96 
L 260.74194 -41.96 
L 259.976919 -41.96 
L 259.211898 -41.96 
L 258.446877 -41.96 
L 257.681856 -41.96 
L 256.916835 -41.96 
L 256.151814 -41.96 
L 255.386793 -41.96 
L 254.621772 -41.96 
L 253.856751 -41.96 
L 253.09173 -41.96 
L 252.326709 -41.96 
L 251.561688 -41.96 
L 250.796667 -41.96 
L 250.031646 -41.96 
L 249.266625 -41.96 
L 248.501604 -41.96 
L 247.736583 -41.96 
L 246.971562 -41.96 
L 246.206541 -41.96 
L 245.44152 -41.96 
L 244.676499 -41.96 
L 243.911478 -41.96 
L 243.146457 -41.96 
L 242.381436 -41.96 
L 241.616415 -41.96 
L 240.851394 -41.96 
L 240.086373 -41.96 
L 239.321352 -41.96 
L 238.556331 -41.96 
L 237.79131 -41.96 
L 237.026289 -41.96 
L 236.261268 -41.96 
L 235.496247 -41.96 
L 234.731226 -41.96 
L 233.966205 -41.96 
L 233.201184 -41.96 
L 232.436163 -41.96 
L 231.671142 -41.96 
L 230.906121 -41.96 
L 230.1411 -41.96 
L 229.376079 -41.96 
L 228.611058 -41.96 
L 227.846037 -41.96 
L 227.081016 -41.96 
L 226.315995 -41.96 
L 225.550974 -41.96 
L 224.785953 -41.96 
L 224.020932 -41.96 
L 223.255911 -41.96 
L 222.49089 -41.96 
L 221.725869 -41.96 
L 220.960847 -41.96 
L 220.195826 -41.96 
L 219.430805 -41.96 
L 218.665784 -41.96 
L 217.900763 -41.96 
L 217.135742 -41.96 
L 216.370721 -41.96 
L 215.6057 -41.96 
L 214.840679 -41.96 
L 214.075658 -41.96 
L 213.310637 -41.96 
L 212.545616 -41.96 
L 211.780595 -41.96 
L 211.015574 -41.96 
L 210.250553 -41.96 
L 209.485532 -41.96 
L 208.720511 -41.96 
L 207.95549 -41.96 
L 207.190469 -41.96 
L 206.425448 -41.96 
L 205.660427 -41.96 
L 204.895406 -41.96 
L 204.130385 -41.96 
L 203.365364 -41.96 
L 202.600343 -41.96 
L 201.835322 -41.96 
L 201.070301 -41.96 
L 200.30528 -41.96 
L 199.540259 -41.96 
L 198.775238 -41.96 
L 198.010217 -41.96 
L 197.245196 -41.96 
L 196.480175 -41.96 
L 195.715154 -41.96 
L 194.950133 -41.96 
L 194.185112 -41.96 
L 193.420091 -41.96 
L 192.65507 -41.96 
L 191.890049 -41.96 
L 191.125028 -41.96 
L 190.360007 -41.96 
L 189.594986 -41.96 
L 188.829965 -41.96 
L 188.064944 -41.96 
L 187.299923 -41.96 
L 186.534902 -41.96 
L 185.769881 -41.96 
L 185.00486 -41.96 
L 184.239839 -41.96 
L 183.474818 -41.96 
L 182.709797 -41.96 
L 181.944776 -41.96 
L 181.179755 -41.96 
L 180.414734 -41.96 
L 179.649713 -41.96 
L 178.884692 -41.96 
L 178.119671 -41.96 
L 177.35465 -41.96 
L 176.589629 -41.96 
L 175.824608 -41.96 
L 175.059587 -41.96 
L 174.294566 -41.96 
L 173.529545 -41.96 
L 172.764524 -41.96 
L 171.999503 -41.96 
L 171.234482 -41.96 
L 170.469461 -41.96 
L 169.70444 -41.96 
L 168.939419 -41.96 
L 168.174398 -41.96 
L 167.409377 -41.96 
L 166.644356 -41.96 
L 165.879335 -41.96 
L 165.114314 -41.96 
L 164.349293 -41.96 
L 163.584272 -41.96 
L 162.819251 -41.96 
L 162.05423 -41.96 
L 161.289209 -41.96 
L 160.524188 -41.96 
L 159.759167 -41.96 
L 158.994146 -41.96 
L 158.229125 -41.96 
L 157.464104 -41.96 
L 156.699083 -41.96 
L 155.934062 -41.96 
L 155.169041 -41.96 
L 154.40402 -41.96 
L 153.638999 -41.96 
L 152.873978 -41.96 
L 152.108957 -41.96 
L 151.343936 -41.96 
L 150.578914 -41.96 
L 149.813893 -41.96 
L 149.048872 -41.96 
L 148.283851 -41.96 
L 147.51883 -41.96 
L 146.753809 -41.96 
L 145.988788 -41.96 
L 145.223767 -41.96 
L 144.458746 -41.96 
L 143.693725 -41.96 
L 142.928704 -41.96 
L 142.163683 -41.96 
L 141.398662 -41.96 
L 140.633641 -41.96 
L 139.86862 -41.96 
L 139.103599 -41.96 
L 138.338578 -41.96 
L 137.573557 -41.96 
L 136.808536 -41.96 
L 136.043515 -41.96 
L 135.278494 -41.96 
L 134.513473 -41.96 
L 133.748452 -41.96 
L 132.983431 -41.96 
L 132.21841 -41.96 
L 131.453389 -41.96 
L 130.688368 -41.96 
L 129.923347 -41.96 
L 129.158326 -41.96 
L 128.393305 -41.96 
L 127.628284 -41.96 
L 126.863263 -41.96 
L 126.098242 -41.96 
L 125.333221 -41.96 
L 124.5682 -41.96 
L 123.803179 -41.96 
L 123.038158 -41.96 
L 122.273137 -41.96 
L 121.508116 -41.96 
L 120.743095 -41.96 
L 119.978074 -41.96 
L 119.213053 -41.96 
L 118.448032 -41.96 
L 117.683011 -41.96 
L 116.91799 -41.96 
L 116.152969 -41.96 
L 115.387948 -41.96 
L 114.622927 -41.96 
L 113.857906 -41.96 
L 113.092885 -41.96 
L 112.327864 -41.96 
L 111.562843 -41.96 
L 110.797822 -41.96 
L 110.032801 -41.96 
L 109.26778 -41.96 
L 108.502759 -41.96 
L 107.737738 -41.96 
L 106.972717 -41.96 
L 106.207696 -41.96 
L 105.442675 -41.96 
L 104.677654 -41.96 
L 103.912633 -41.96 
L 103.147612 -41.96 
L 102.382591 -41.96 
L 101.61757 -41.96 
L 100.852549 -41.96 
L 100.087528 -41.96 
L 99.322507 -41.96 
L 98.557486 -41.96 
L 97.792465 -41.96 
L 97.027444 -41.96 
L 96.262423 -41.96 
L 95.497402 -41.96 
L 94.732381 -41.96 
L 93.96736 -41.96 
L 93.202339 -41.96 
L 92.437318 -41.96 
L 91.672297 -41.96 
L 90.907276 -41.96 
L 90.142255 -41.96 
L 89.377234 -41.96 
L 88.612213 -41.96 
L 87.847192 -41.96 
L 87.082171 -41.96 
L 86.31715 -41.96 
L 85.552129 -41.96 
L 84.787108 -41.96 
L 84.022087 -41.96 
L 83.257066 -41.96 
L 82.492045 -41.96 
L 81.727024 -41.96 
L 80.962003 -41.96 
L 80.196981 -41.96 
L 79.43196 -41.96 
L 78.666939 -41.96 
L 77.901918 -41.96 
L 77.136897 -41.96 
L 76.371876 -41.96 
L 75.606855 -41.96 
L 74.841834 -41.96 
L 74.076813 -41.96 
L 73.311792 -41.96 
L 72.546771 -41.96 
L 71.78175 -41.96 
L 71.016729 -41.96 
L 70.251708 -41.96 
L 69.486687 -41.96 
L 68.721666 -41.96 
L 67.956645 -41.96 
L 67.191624 -41.96 
L 66.426603 -41.96 
L 65.661582 -41.96 
L 64.896561 -41.96 
L 64.13154 -41.96 
L 63.366519 -41.96 
L 62.601498 -41.96 
L 61.836477 -41.96 
L 61.071456 -41.96 
L 60.306435 -41.96 
L 59.541414 -41.96 
L 58.776393 -41.96 
L 58.011372 -41.96 
L 57.246351 -41.96 
L 56.48133 -41.96 
L 55.716309 -41.96 
L 54.951288 -41.96 
L 54.186267 -41.96 
L 53.421246 -41.96 
L 52.656225 -41.96 
L 51.891204 -41.96 
L 51.126183 -41.96 
L 50.361162 -41.96 
L 49.596141 -41.96 
L 48.83112 -41.96 
L 48.066099 -41.96 
L 47.301078 -41.96 
L 46.536057 -41.96 
L 45.771036 -41.96 
L 45.006015 -41.96 
z
" style="stroke: #2563eb; stroke-opacity: 0.07"/>
    </defs>
    <g clip-path="url(#p5c7679035f)">
     <use xlink:href="#m175e78e94c" x="0" y="288" style="fill: #2563eb; fill-opacity: 0.07; stroke: #2563eb; stroke-opacity: 0.07"/>
    </g>
   </g>
   <g id="matplotlib.axis_1">
    <g id="xtick_1">
     <g id="line2d_1">
      <path d="M 41.15 246.04 
L 41.15 25.44 
" clip-path="url(#p5c7679035f)" style="fill: none; stroke: #b0b0b0; stroke-opacity: 0.25; stroke-width: 0.8; stroke-linecap: square"/>
     </g>
     <g id="line2d_2">
      <defs>
       <path id="m5a877e8cc2" d="M 0 0 
L 0 3.5 
" style="stroke: #000000; stroke-width: 0.8"/>
      </defs>
      <g>
       <use xlink:href="#m5a877e8cc2" x="41.15" y="246.04" style="stroke: #000000; stroke-width: 0.8"/>
      </g>
     </g>
     <g id="text_1">
      <!-- 0.0 -->
      <g transform="translate(33.198438 260.638438) scale(0.1 -0.1)">
       <defs>
        <path id="DejaVuSans-30" d="M 2034 4250 
Q 1547 4250 1301 3770 
Q 1056 3291 1056 2328 
Q 1056 1369 1301 889 
Q 1547 409 2034 409 
Q 2525 409 2770 889 
Q 3016 1369 3016 2328 
Q 3016 3291 2770 3770 
Q 2525 4250 2034 4250 
z
M 2034 4750 
Q 2819 4750 3233 4129 
Q 3647 3509 3647 2328 
Q 3647 1150 3233 529 
Q 2819 -91 2034 -91 
Q 1250 -91 836 529 
Q 422 1150 422 2328 
Q 422 3509 836 4129 
Q 1250 4750 2034 4750 
z
" transform="scale(0.015625)"/>
        <path id="DejaVuSans-2e" d="M 684 794 
L 1344 794 
L 1344 0 
L 684 0 
L 684 794 
z
" transform="scale(0.015625)"/>
       </defs>
       <use xlink:href="#DejaVuSans-30"/>
       <use xlink:href="#DejaVuSans-2e" x="63.623047"/>
       <use xlink:href="#DejaVuSans-30" x="95.410156"/>
      </g>
     </g>
    </g>
    <g id="xtick_2">
     <g id="line2d_3">
      <path d="M 118.2703 246.04 
L 118.2703 25.44 
" clip-path="url(#p5c7679035f)" style="fill: none; stroke: #b0b0b0; stroke-opacity: 0.25; stroke-width: 0.8; stroke-linecap: square"/>
     </g>
     <g id="line2d_4">
      <g>
       <use xlink:href="#m5a877e8cc2" x="118.2703" y="246.04" style="stroke: #000000; stroke-width: 0.8"/>
      </g>
     </g>
     <g id="text_2">
      <!-- 0.2 -->
      <g transform="translate(110.318737 260.638438) scale(0.1 -0.1)">
       <defs>
        <path id="DejaVuSans-32" d="M 1228 531 
L 3431 531 
L 3431 0 
L 469 0 
L 469 531 
Q 828 903 1448 1529 
Q 2069 2156 2228 2338 
Q 2531 2678 2651 2914 
Q 2772 3150 2772 3378 
Q 2772 3750 2511 3984 
Q 2250 4219 1831 4219 
Q 1534 4219 1204 4116 
Q 875 4013 500 3803 
L 500 4441 
Q 881 4594 1212 4672 
Q 1544 4750 1819 4750 
Q 2544 4750 2975 4387 
Q 3406 4025 3406 3419 
Q 3406 3131 3298 2873 
Q 3191 2616 2906 2266 
Q 2828 2175 2409 1742 
Q 1991 1309 1228 531 
z
" transform="scale(0.015625)"/>
       </defs>
       <use xlink:href="#DejaVuSans-30"/>
       <use xlink:href="#DejaVuSans-2e" x="63.623047"/>
       <use xlink:href="#DejaVuSans-32" x="95.410156"/>
      </g>
     </g>
    </g>
    <g id="xtick_3">
     <g id="line2d_5">
      <path d="M 195.3906 246.04 
L 195.3906 25.44 
" clip-path="url(#p5c7679035f)" style="fill: none; stroke: #b0b0b0; stroke-opacity: 0.25; stroke-width: 0.8; stroke-linecap: square"/>
     </g>
     <g id="line2d_6">
      <g>
       <use xlink:href="#m5a877e8cc2" x="195.3906" y="246.04" style="stroke: #000000; stroke-width: 0.8"/>
      </g>
     </g>
     <g id="text_3">
      <!-- 0.4 -->
      <g transform="translate(187.439037 260.638438) scale(0.1 -0.1)">
       <defs>
        <path id="DejaVuSans-34" d="M 2419 4116 
L 825 1625 
L 2419 1625 
L 2419 4116 
z
M 2253 4666 
L 3047 4666 
L 3047 1625 
L 3713 1625 
L 3713 1100 
L 3047 1100 
L 3047 0 
L 2419 0 
L 2419 1100 
L 313 1100 
L 313 1709 
L 2253 4666 
z
" transform="scale(0.015625)"/>
       </defs>
       <use xlink:href="#DejaVuSans-30"/>
       <use xlink:href="#DejaVuSans-2e" x="63.623047"/>
       <use xlink:href="#DejaVuSans-34" x="95.410156"/>
      </g>
     </g>
    </g>
    <g id="xtick_4">
     <g id="line2d_7">
      <path d="M 272.5109 246.04 
L 272.5109 25.44 
" clip-path="url(#p5c7679035f)" style="fill: none; stroke: #b0b0b0; stroke-opacity: 0.25; stroke-width: 0.8; stroke-linecap: square"/>
     </g>
     <g id="line2d_8">
      <g>
       <use xlink:href="#m5a877e8cc2" x="272.5109" y="246.04" style="stroke: #000000; stroke-width: 0.8"/>
      </g>
     </g>
     <g id="text_4">
      <!-- 0.6 -->
      <g transform="translate(264.559337 260.638438) scale(0.1 -0.1)">
       <defs>
        <path id="DejaVuSans-36" d="M 2113 2584 
Q 1688 2584 1439 2293 
Q 1191 2003 1191 1497 
Q 1191 994 1439 701 
Q 1688 409 2113 409 
Q 2538 409 2786 701 
Q 3034 994 3034 1497 
Q 3034 2003 2786 2293 
Q 2538 2584 2113 2584 
z
M 3366 4563 
L 3366 3988 
Q 3128 4100 2886 4159 
Q 2644 4219 2406 4219 
Q 1781 4219 1451 3797 
Q 1122 3375 1075 2522 
Q 1259 2794 1537 2939 
Q 1816 3084 2150 3084 
Q 2853 3084 3261 2657 
Q 3669 2231 3669 1497 
Q 3669 778 3244 343 
Q 2819 -91 2113 -91 
Q 1303 -91 875 529 
Q 447 1150 447 2328 
Q 447 3434 972 4092 
Q 1497 4750 2381 4750 
Q 2619 4750 2861 4703 
Q 3103 4656 3366 4563 
z
" transform="scale(0.015625)"/>
       </defs>
       <use xlink:href="#DejaVuSans-30"/>
       <use xlink:href="#DejaVuSans-2e" x="63.623047"/>
       <use xlink:href="#DejaVuSans-36" x="95.410156"/>
      </g>
     </g>
    </g>
    <g id="xtick_5">
     <g id="line2d_9">
      <path d="M 349.6312 246.04 
L 349.6312 25.44 
" clip-path="url(#p5c7679035f)" style="fill: none; stroke: #b0b0b0; stroke-opacity: 0.25; stroke-width: 0.8; stroke-linecap: square"/>
     </g>
     <g id="line2d_10">
      <g>
       <use xlink:href="#m5a877e8cc2" x="349.6312" y="246.04" style="stroke: #000000; stroke-width: 0.8"/>
      </g>
     </g>
     <g id="text_5">
      <!-- 0.8 -->
      <g transform="translate(341.679637 260.638438) scale(0.1 -0.1)">
       <defs>
        <path id="DejaVuSans-38" d="M 2034 2216 
Q 1584 2216 1326 1975 
Q 1069 1734 1069 1313 
Q 1069 891 1326 650 
Q 1584 409 2034 409 
Q 2484 409 2743 651 
Q 3003 894 3003 1313 
Q 3003 1734 2745 1975 
Q 2488 2216 2034 2216 
z
M 1403 2484 
Q 997 2584 770 2862 
Q 544 3141 544 3541 
Q 544 4100 942 4425 
Q 1341 4750 2034 4750 
Q 2731 4750 3128 4425 
Q 3525 4100 3525 3541 
Q 3525 3141 3298 2862 
Q 3072 2584 2669 2484 
Q 3125 2378 3379 2068 
Q 3634 1759 3634 1313 
Q 3634 634 3220 271 
Q 2806 -91 2034 -91 
Q 1263 -91 848 271 
Q 434 634 434 1313 
Q 434 1759 690 2068 
Q 947 2378 1403 2484 
z
M 1172 3481 
Q 1172 3119 1398 2916 
Q 1625 2713 2034 2713 
Q 2441 2713 2670 2916 
Q 2900 3119 2900 3481 
Q 2900 3844 2670 4047 
Q 2441 4250 2034 4250 
Q 1625 4250 1398 4047 
Q 1172 3844 1172 3481 
z
" transform="scale(0.015625)"/>
       </defs>
       <use xlink:href="#DejaVuSans-30"/>
       <use xlink:href="#DejaVuSans-2e" x="63.623047"/>
       <use xlink:href="#DejaVuSans-38" x="95.410156"/>
      </g>
     </g>
    </g>
    <g id="xtick_6">
     <g id="line2d_11">
      <path d="M 426.751499 246.04 
L 426.751499 25.44 
" clip-path="url(#p5c7679035f)" style="fill: none; stroke: #b0b0b0; stroke-opacity: 0.25; stroke-width: 0.8; stroke-linecap: square"/>
     </g>
     <g id="line2d_12">
      <g>
       <use xlink:href="#m5a877e8cc2" x="426.751499" y="246.04" style="stroke: #000000; stroke-width: 0.8"/>
      </g>
     </g>
     <g id="text_6">
      <!-- 1.0 -->
      <g transform="translate(418.799937 260.638438) scale(0.1 -0.1)">
       <defs>
        <path id="DejaVuSans-31" d="M 794 531 
L 1825 531 
L 1825 4091 
L 703 3866 
L 703 4441 
L 1819 4666 
L 2450 4666 
L 2450 531 
L 3481 531 
L 3481 0 
L 794 0 
L 794 531 
z
" transform="scale(0.015625)"/>
       </defs>
       <use xlink:href="#DejaVuSans-31"/>
       <use xlink:href="#DejaVuSans-2e" x="63.623047"/>
       <use xlink:href="#DejaVuSans-30" x="95.410156"/>
      </g>
     </g>
    </g>
    <g id="text_7">
     <!-- probability the model gave the realized next token,  p -->
     <g transform="translate(103.018483 274.316562) scale(0.1 -0.1)">
      <defs>
       <path id="DejaVuSans-70" d="M 1159 525 
L 1159 -1331 
L 581 -1331 
L 581 3500 
L 1159 3500 
L 1159 2969 
Q 1341 3281 1617 3432 
Q 1894 3584 2278 3584 
Q 2916 3584 3314 3078 
Q 3713 2572 3713 1747 
Q 3713 922 3314 415 
Q 2916 -91 2278 -91 
Q 1894 -91 1617 61 
Q 1341 213 1159 525 
z
M 3116 1747 
Q 3116 2381 2855 2742 
Q 2594 3103 2138 3103 
Q 1681 3103 1420 2742 
Q 1159 2381 1159 1747 
Q 1159 1113 1420 752 
Q 1681 391 2138 391 
Q 2594 391 2855 752 
Q 3116 1113 3116 1747 
z
" transform="scale(0.015625)"/>
       <path id="DejaVuSans-72" d="M 2631 2963 
Q 2534 3019 2420 3045 
Q 2306 3072 2169 3072 
Q 1681 3072 1420 2755 
Q 1159 2438 1159 1844 
L 1159 0 
L 581 0 
L 581 3500 
L 1159 3500 
L 1159 2956 
Q 1341 3275 1631 3429 
Q 1922 3584 2338 3584 
Q 2397 3584 2469 3576 
Q 2541 3569 2628 3553 
L 2631 2963 
z
" transform="scale(0.015625)"/>
       <path id="DejaVuSans-6f" d="M 1959 3097 
Q 1497 3097 1228 2736 
Q 959 2375 959 1747 
Q 959 1119 1226 758 
Q 1494 397 1959 397 
Q 2419 397 2687 759 
Q 2956 1122 2956 1747 
Q 2956 2369 2687 2733 
Q 2419 3097 1959 3097 
z
M 1959 3584 
Q 2709 3584 3137 3096 
Q 3566 2609 3566 1747 
Q 3566 888 3137 398 
Q 2709 -91 1959 -91 
Q 1206 -91 779 398 
Q 353 888 353 1747 
Q 353 2609 779 3096 
Q 1206 3584 1959 3584 
z
" transform="scale(0.015625)"/>
       <path id="DejaVuSans-62" d="M 3116 1747 
Q 3116 2381 2855 2742 
Q 2594 3103 2138 3103 
Q 1681 3103 1420 2742 
Q 1159 2381 1159 1747 
Q 1159 1113 1420 752 
Q 1681 391 2138 391 
Q 2594 391 2855 752 
Q 3116 1113 3116 1747 
z
M 1159 2969 
Q 1341 3281 1617 3432 
Q 1894 3584 2278 3584 
Q 2916 3584 3314 3078 
Q 3713 2572 3713 1747 
Q 3713 922 3314 415 
Q 2916 -91 2278 -91 
Q 1894 -91 1617 61 
Q 1341 213 1159 525 
L 1159 0 
L 581 0 
L 581 4863 
L 1159 4863 
L 1159 2969 
z
" transform="scale(0.015625)"/>
       <path id="DejaVuSans-61" d="M 2194 1759 
Q 1497 1759 1228 1600 
Q 959 1441 959 1056 
Q 959 750 1161 570 
Q 1363 391 1709 391 
Q 2188 391 2477 730 
Q 2766 1069 2766 1631 
L 2766 1759 
L 2194 1759 
z
M 3341 1997 
L 3341 0 
L 2766 0 
L 2766 531 
Q 2569 213 2275 61 
Q 1981 -91 1556 -91 
Q 1019 -91 701 211 
Q 384 513 384 1019 
Q 384 1609 779 1909 
Q 1175 2209 1959 2209 
L 2766 2209 
L 2766 2266 
Q 2766 2663 2505 2880 
Q 2244 3097 1772 3097 
Q 1472 3097 1187 3025 
Q 903 2953 641 2809 
L 641 3341 
Q 956 3463 1253 3523 
Q 1550 3584 1831 3584 
Q 2591 3584 2966 3190 
Q 3341 2797 3341 1997 
z
" transform="scale(0.015625)"/>
       <path id="DejaVuSans-69" d="M 603 3500 
L 1178 3500 
L 1178 0 
L 603 0 
L 603 3500 
z
M 603 4863 
L 1178 4863 
L 1178 4134 
L 603 4134 
L 603 4863 
z
" transform="scale(0.015625)"/>
       <path id="DejaVuSans-6c" d="M 603 4863 
L 1178 4863 
L 1178 0 
L 603 0 
L 603 4863 
z
" transform="scale(0.015625)"/>
       <path id="DejaVuSans-74" d="M 1172 4494 
L 1172 3500 
L 2356 3500 
L 2356 3053 
L 1172 3053 
L 1172 1153 
Q 1172 725 1289 603 
Q 1406 481 1766 481 
L 2356 481 
L 2356 0 
L 1766 0 
Q 1100 0 847 248 
Q 594 497 594 1153 
L 594 3053 
L 172 3053 
L 172 3500 
L 594 3500 
L 594 4494 
L 1172 4494 
z
" transform="scale(0.015625)"/>
       <path id="DejaVuSans-79" d="M 2059 -325 
Q 1816 -950 1584 -1140 
Q 1353 -1331 966 -1331 
L 506 -1331 
L 506 -850 
L 844 -850 
Q 1081 -850 1212 -737 
Q 1344 -625 1503 -206 
L 1606 56 
L 191 3500 
L 800 3500 
L 1894 763 
L 2988 3500 
L 3597 3500 
L 2059 -325 
z
" transform="scale(0.015625)"/>
       <path id="DejaVuSans-20" transform="scale(0.015625)"/>
       <path id="DejaVuSans-68" d="M 3513 2113 
L 3513 0 
L 2938 0 
L 2938 2094 
Q 2938 2591 2744 2837 
Q 2550 3084 2163 3084 
Q 1697 3084 1428 2787 
Q 1159 2491 1159 1978 
L 1159 0 
L 581 0 
L 581 4863 
L 1159 4863 
L 1159 2956 
Q 1366 3272 1645 3428 
Q 1925 3584 2291 3584 
Q 2894 3584 3203 3211 
Q 3513 2838 3513 2113 
z
" transform="scale(0.015625)"/>
       <path id="DejaVuSans-65" d="M 3597 1894 
L 3597 1613 
L 953 1613 
Q 991 1019 1311 708 
Q 1631 397 2203 397 
Q 2534 397 2845 478 
Q 3156 559 3463 722 
L 3463 178 
Q 3153 47 2828 -22 
Q 2503 -91 2169 -91 
Q 1331 -91 842 396 
Q 353 884 353 1716 
Q 353 2575 817 3079 
Q 1281 3584 2069 3584 
Q 2775 3584 3186 3129 
Q 3597 2675 3597 1894 
z
M 3022 2063 
Q 3016 2534 2758 2815 
Q 2500 3097 2075 3097 
Q 1594 3097 1305 2825 
Q 1016 2553 972 2059 
L 3022 2063 
z
" transform="scale(0.015625)"/>
       <path id="DejaVuSans-6d" d="M 3328 2828 
Q 3544 3216 3844 3400 
Q 4144 3584 4550 3584 
Q 5097 3584 5394 3201 
Q 5691 2819 5691 2113 
L 5691 0 
L 5113 0 
L 5113 2094 
Q 5113 2597 4934 2840 
Q 4756 3084 4391 3084 
Q 3944 3084 3684 2787 
Q 3425 2491 3425 1978 
L 3425 0 
L 2847 0 
L 2847 2094 
Q 2847 2600 2669 2842 
Q 2491 3084 2119 3084 
Q 1678 3084 1418 2786 
Q 1159 2488 1159 1978 
L 1159 0 
L 581 0 
L 581 3500 
L 1159 3500 
L 1159 2956 
Q 1356 3278 1631 3431 
Q 1906 3584 2284 3584 
Q 2666 3584 2933 3390 
Q 3200 3197 3328 2828 
z
" transform="scale(0.015625)"/>
       <path id="DejaVuSans-64" d="M 2906 2969 
L 2906 4863 
L 3481 4863 
L 3481 0 
L 2906 0 
L 2906 525 
Q 2725 213 2448 61 
Q 2172 -91 1784 -91 
Q 1150 -91 751 415 
Q 353 922 353 1747 
Q 353 2572 751 3078 
Q 1150 3584 1784 3584 
Q 2172 3584 2448 3432 
Q 2725 3281 2906 2969 
z
M 947 1747 
Q 947 1113 1208 752 
Q 1469 391 1925 391 
Q 2381 391 2643 752 
Q 2906 1113 2906 1747 
Q 2906 2381 2643 2742 
Q 2381 3103 1925 3103 
Q 1469 3103 1208 2742 
Q 947 2381 947 1747 
z
" transform="scale(0.015625)"/>
       <path id="DejaVuSans-67" d="M 2906 1791 
Q 2906 2416 2648 2759 
Q 2391 3103 1925 3103 
Q 1463 3103 1205 2759 
Q 947 2416 947 1791 
Q 947 1169 1205 825 
Q 1463 481 1925 481 
Q 2391 481 2648 825 
Q 2906 1169 2906 1791 
z
M 3481 434 
Q 3481 -459 3084 -895 
Q 2688 -1331 1869 -1331 
Q 1566 -1331 1297 -1286 
Q 1028 -1241 775 -1147 
L 775 -588 
Q 1028 -725 1275 -790 
Q 1522 -856 1778 -856 
Q 2344 -856 2625 -561 
Q 2906 -266 2906 331 
L 2906 616 
Q 2728 306 2450 153 
Q 2172 0 1784 0 
Q 1141 0 747 490 
Q 353 981 353 1791 
Q 353 2603 747 3093 
Q 1141 3584 1784 3584 
Q 2172 3584 2450 3431 
Q 2728 3278 2906 2969 
L 2906 3500 
L 3481 3500 
L 3481 434 
z
" transform="scale(0.015625)"/>
       <path id="DejaVuSans-76" d="M 191 3500 
L 800 3500 
L 1894 563 
L 2988 3500 
L 3597 3500 
L 2284 0 
L 1503 0 
L 191 3500 
z
" transform="scale(0.015625)"/>
       <path id="DejaVuSans-7a" d="M 353 3500 
L 3084 3500 
L 3084 2975 
L 922 459 
L 3084 459 
L 3084 0 
L 275 0 
L 275 525 
L 2438 3041 
L 353 3041 
L 353 3500 
z
" transform="scale(0.015625)"/>
       <path id="DejaVuSans-6e" d="M 3513 2113 
L 3513 0 
L 2938 0 
L 2938 2094 
Q 2938 2591 2744 2837 
Q 2550 3084 2163 3084 
Q 1697 3084 1428 2787 
Q 1159 2491 1159 1978 
L 1159 0 
L 581 0 
L 581 3500 
L 1159 3500 
L 1159 2956 
Q 1366 3272 1645 3428 
Q 1925 3584 2291 3584 
Q 2894 3584 3203 3211 
Q 3513 2838 3513 2113 
z
" transform="scale(0.015625)"/>
       <path id="DejaVuSans-78" d="M 3513 3500 
L 2247 1797 
L 3578 0 
L 2900 0 
L 1881 1375 
L 863 0 
L 184 0 
L 1544 1831 
L 300 3500 
L 978 3500 
L 1906 2253 
L 2834 3500 
L 3513 3500 
z
" transform="scale(0.015625)"/>
       <path id="DejaVuSans-6b" d="M 581 4863 
L 1159 4863 
L 1159 1991 
L 2875 3500 
L 3609 3500 
L 1753 1863 
L 3688 0 
L 2938 0 
L 1159 1709 
L 1159 0 
L 581 0 
L 581 4863 
z
" transform="scale(0.015625)"/>
       <path id="DejaVuSans-2c" d="M 750 794 
L 1409 794 
L 1409 256 
L 897 -744 
L 494 -744 
L 750 256 
L 750 794 
z
" transform="scale(0.015625)"/>
      </defs>
      <use xlink:href="#DejaVuSans-70"/>
      <use xlink:href="#DejaVuSans-72" x="63.476562"/>
      <use xlink:href="#DejaVuSans-6f" x="102.339844"/>
      <use xlink:href="#DejaVuSans-62" x="163.521484"/>
      <use xlink:href="#DejaVuSans-61" x="226.998047"/>
      <use xlink:href="#DejaVuSans-62" x="288.277344"/>
      <use xlink:href="#DejaVuSans-69" x="351.753906"/>
      <use xlink:href="#DejaVuSans-6c" x="379.537109"/>
      <use xlink:href="#DejaVuSans-69" x="407.320312"/>
      <use xlink:href="#DejaVuSans-74" x="435.103516"/>
      <use xlink:href="#DejaVuSans-79" x="474.3125"/>
      <use xlink:href="#DejaVuSans-20" x="533.492188"/>
      <use xlink:href="#DejaVuSans-74" x="565.279297"/>
      <use xlink:href="#DejaVuSans-68" x="604.488281"/>
      <use xlink:href="#DejaVuSans-65" x="667.867188"/>
      <use xlink:href="#DejaVuSans-20" x="729.390625"/>
      <use xlink:href="#DejaVuSans-6d" x="761.177734"/>
      <use xlink:href="#DejaVuSans-6f" x="858.589844"/>
      <use xlink:href="#DejaVuSans-64" x="919.771484"/>
      <use xlink:href="#DejaVuSans-65" x="983.248047"/>
      <use xlink:href="#DejaVuSans-6c" x="1044.771484"/>
      <use xlink:href="#DejaVuSans-20" x="1072.554688"/>
      <use xlink:href="#DejaVuSans-67" x="1104.341797"/>
      <use xlink:href="#DejaVuSans-61" x="1167.818359"/>
      <use xlink:href="#DejaVuSans-76" x="1229.097656"/>
      <use xlink:href="#DejaVuSans-65" x="1288.277344"/>
      <use xlink:href="#DejaVuSans-20" x="1349.800781"/>
      <use xlink:href="#DejaVuSans-74" x="1381.587891"/>
      <use xlink:href="#DejaVuSans-68" x="1420.796875"/>
      <use xlink:href="#DejaVuSans-65" x="1484.175781"/>
      <use xlink:href="#DejaVuSans-20" x="1545.699219"/>
      <use xlink:href="#DejaVuSans-72" x="1577.486328"/>
      <use xlink:href="#DejaVuSans-65" x="1616.349609"/>
      <use xlink:href="#DejaVuSans-61" x="1677.873047"/>
      <use xlink:href="#DejaVuSans-6c" x="1739.152344"/>
      <use xlink:href="#DejaVuSans-69" x="1766.935547"/>
      <use xlink:href="#DejaVuSans-7a" x="1794.71875"/>
      <use xlink:href="#DejaVuSans-65" x="1847.208984"/>
      <use xlink:href="#DejaVuSans-64" x="1908.732422"/>
      <use xlink:href="#DejaVuSans-20" x="1972.208984"/>
      <use xlink:href="#DejaVuSans-6e" x="2003.996094"/>
      <use xlink:href="#DejaVuSans-65" x="2067.375"/>
      <use xlink:href="#DejaVuSans-78" x="2127.148438"/>
      <use xlink:href="#DejaVuSans-74" x="2186.328125"/>
      <use xlink:href="#DejaVuSans-20" x="2225.537109"/>
      <use xlink:href="#DejaVuSans-74" x="2257.324219"/>
      <use xlink:href="#DejaVuSans-6f" x="2296.533203"/>
      <use xlink:href="#DejaVuSans-6b" x="2357.714844"/>
      <use xlink:href="#DejaVuSans-65" x="2412"/>
      <use xlink:href="#DejaVuSans-6e" x="2473.523438"/>
      <use xlink:href="#DejaVuSans-2c" x="2536.902344"/>
      <use xlink:href="#DejaVuSans-20" x="2568.689453"/>
      <use xlink:href="#DejaVuSans-20" x="2600.476562"/>
      <use xlink:href="#DejaVuSans-70" x="2632.263672"/>
     </g>
    </g>
   </g>
   <g id="matplotlib.axis_2">
    <g id="ytick_1">
     <g id="line2d_13">
      <path d="M 41.15 246.04 
L 434.463529 246.04 
" clip-path="url(#p5c7679035f)" style="fill: none; stroke: #b0b0b0; stroke-opacity: 0.25; stroke-width: 0.8; stroke-linecap: square"/>
     </g>
     <g id="line2d_14">
      <defs>
       <path id="m8d31e36cb8" d="M 0 0 
L -3.5 0 
" style="stroke: #000000; stroke-width: 0.8"/>
      </defs>
      <g>
       <use xlink:href="#m8d31e36cb8" x="41.15" y="246.04" style="stroke: #000000; stroke-width: 0.8"/>
      </g>
     </g>
     <g id="text_8">
      <!-- 0 -->
      <g transform="translate(27.7875 249.839219) scale(0.1 -0.1)">
       <use xlink:href="#DejaVuSans-30"/>
      </g>
     </g>
    </g>
    <g id="ytick_2">
     <g id="line2d_15">
      <path d="M 41.15 214.068986 
L 434.463529 214.068986 
" clip-path="url(#p5c7679035f)" style="fill: none; stroke: #b0b0b0; stroke-opacity: 0.25; stroke-width: 0.8; stroke-linecap: square"/>
     </g>
     <g id="line2d_16">
      <g>
       <use xlink:href="#m8d31e36cb8" x="41.15" y="214.068986" style="stroke: #000000; stroke-width: 0.8"/>
      </g>
     </g>
     <g id="text_9">
      <!-- 1 -->
      <g transform="translate(27.7875 217.868204) scale(0.1 -0.1)">
       <use xlink:href="#DejaVuSans-31"/>
      </g>
     </g>
    </g>
    <g id="ytick_3">
     <g id="line2d_17">
      <path d="M 41.15 182.097971 
L 434.463529 182.097971 
" clip-path="url(#p5c7679035f)" style="fill: none; stroke: #b0b0b0; stroke-opacity: 0.25; stroke-width: 0.8; stroke-linecap: square"/>
     </g>
     <g id="line2d_18">
      <g>
       <use xlink:href="#m8d31e36cb8" x="41.15" y="182.097971" style="stroke: #000000; stroke-width: 0.8"/>
      </g>
     </g>
     <g id="text_10">
      <!-- 2 -->
      <g transform="translate(27.7875 185.89719) scale(0.1 -0.1)">
       <use xlink:href="#DejaVuSans-32"/>
      </g>
     </g>
    </g>
    <g id="ytick_4">
     <g id="line2d_19">
      <path d="M 41.15 150.126957 
L 434.463529 150.126957 
" clip-path="url(#p5c7679035f)" style="fill: none; stroke: #b0b0b0; stroke-opacity: 0.25; stroke-width: 0.8; stroke-linecap: square"/>
     </g>
     <g id="line2d_20">
      <g>
       <use xlink:href="#m8d31e36cb8" x="41.15" y="150.126957" style="stroke: #000000; stroke-width: 0.8"/>
      </g>
     </g>
     <g id="text_11">
      <!-- 3 -->
      <g transform="translate(27.7875 153.926175) scale(0.1 -0.1)">
       <defs>
        <path id="DejaVuSans-33" d="M 2597 2516 
Q 3050 2419 3304 2112 
Q 3559 1806 3559 1356 
Q 3559 666 3084 287 
Q 2609 -91 1734 -91 
Q 1441 -91 1130 -33 
Q 819 25 488 141 
L 488 750 
Q 750 597 1062 519 
Q 1375 441 1716 441 
Q 2309 441 2620 675 
Q 2931 909 2931 1356 
Q 2931 1769 2642 2001 
Q 2353 2234 1838 2234 
L 1294 2234 
L 1294 2753 
L 1863 2753 
Q 2328 2753 2575 2939 
Q 2822 3125 2822 3475 
Q 2822 3834 2567 4026 
Q 2313 4219 1838 4219 
Q 1578 4219 1281 4162 
Q 984 4106 628 3988 
L 628 4550 
Q 988 4650 1302 4700 
Q 1616 4750 1894 4750 
Q 2613 4750 3031 4423 
Q 3450 4097 3450 3541 
Q 3450 3153 3228 2886 
Q 3006 2619 2597 2516 
z
" transform="scale(0.015625)"/>
       </defs>
       <use xlink:href="#DejaVuSans-33"/>
      </g>
     </g>
    </g>
    <g id="ytick_5">
     <g id="line2d_21">
      <path d="M 41.15 118.155942 
L 434.463529 118.155942 
" clip-path="url(#p5c7679035f)" style="fill: none; stroke: #b0b0b0; stroke-opacity: 0.25; stroke-width: 0.8; stroke-linecap: square"/>
     </g>
     <g id="line2d_22">
      <g>
       <use xlink:href="#m8d31e36cb8" x="41.15" y="118.155942" style="stroke: #000000; stroke-width: 0.8"/>
      </g>
     </g>
     <g id="text_12">
      <!-- 4 -->
      <g transform="translate(27.7875 121.955161) scale(0.1 -0.1)">
       <use xlink:href="#DejaVuSans-34"/>
      </g>
     </g>
    </g>
    <g id="ytick_6">
     <g id="line2d_23">
      <path d="M 41.15 86.184928 
L 434.463529 86.184928 
" clip-path="url(#p5c7679035f)" style="fill: none; stroke: #b0b0b0; stroke-opacity: 0.25; stroke-width: 0.8; stroke-linecap: square"/>
     </g>
     <g id="line2d_24">
      <g>
       <use xlink:href="#m8d31e36cb8" x="41.15" y="86.184928" style="stroke: #000000; stroke-width: 0.8"/>
      </g>
     </g>
     <g id="text_13">
      <!-- 5 -->
      <g transform="translate(27.7875 89.984146) scale(0.1 -0.1)">
       <defs>
        <path id="DejaVuSans-35" d="M 691 4666 
L 3169 4666 
L 3169 4134 
L 1269 4134 
L 1269 2991 
Q 1406 3038 1543 3061 
Q 1681 3084 1819 3084 
Q 2600 3084 3056 2656 
Q 3513 2228 3513 1497 
Q 3513 744 3044 326 
Q 2575 -91 1722 -91 
Q 1428 -91 1123 -41 
Q 819 9 494 109 
L 494 744 
Q 775 591 1075 516 
Q 1375 441 1709 441 
Q 2250 441 2565 725 
Q 2881 1009 2881 1497 
Q 2881 1984 2565 2268 
Q 2250 2553 1709 2553 
Q 1456 2553 1204 2497 
Q 953 2441 691 2322 
L 691 4666 
z
" transform="scale(0.015625)"/>
       </defs>
       <use xlink:href="#DejaVuSans-35"/>
      </g>
     </g>
    </g>
    <g id="ytick_7">
     <g id="line2d_25">
      <path d="M 41.15 54.213913 
L 434.463529 54.213913 
" clip-path="url(#p5c7679035f)" style="fill: none; stroke: #b0b0b0; stroke-opacity: 0.25; stroke-width: 0.8; stroke-linecap: square"/>
     </g>
     <g id="line2d_26">
      <g>
       <use xlink:href="#m8d31e36cb8" x="41.15" y="54.213913" style="stroke: #000000; stroke-width: 0.8"/>
      </g>
     </g>
     <g id="text_14">
      <!-- 6 -->
      <g transform="translate(27.7875 58.013132) scale(0.1 -0.1)">
       <use xlink:href="#DejaVuSans-36"/>
      </g>
     </g>
    </g>
    <g id="text_15">
     <!-- per-token loss (bits) $= -\log_2 p$ -->
     <g transform="translate(21.6875 213.79) rotate(-90) scale(0.1 -0.1)">
      <defs>
       <path id="DejaVuSans-2d" d="M 313 2009 
L 1997 2009 
L 1997 1497 
L 313 1497 
L 313 2009 
z
" transform="scale(0.015625)"/>
       <path id="DejaVuSans-73" d="M 2834 3397 
L 2834 2853 
Q 2591 2978 2328 3040 
Q 2066 3103 1784 3103 
Q 1356 3103 1142 2972 
Q 928 2841 928 2578 
Q 928 2378 1081 2264 
Q 1234 2150 1697 2047 
L 1894 2003 
Q 2506 1872 2764 1633 
Q 3022 1394 3022 966 
Q 3022 478 2636 193 
Q 2250 -91 1575 -91 
Q 1294 -91 989 -36 
Q 684 19 347 128 
L 347 722 
Q 666 556 975 473 
Q 1284 391 1588 391 
Q 1994 391 2212 530 
Q 2431 669 2431 922 
Q 2431 1156 2273 1281 
Q 2116 1406 1581 1522 
L 1381 1569 
Q 847 1681 609 1914 
Q 372 2147 372 2553 
Q 372 3047 722 3315 
Q 1072 3584 1716 3584 
Q 2034 3584 2315 3537 
Q 2597 3491 2834 3397 
z
" transform="scale(0.015625)"/>
       <path id="DejaVuSans-28" d="M 1984 4856 
Q 1566 4138 1362 3434 
Q 1159 2731 1159 2009 
Q 1159 1288 1364 580 
Q 1569 -128 1984 -844 
L 1484 -844 
Q 1016 -109 783 600 
Q 550 1309 550 2009 
Q 550 2706 781 3412 
Q 1013 4119 1484 4856 
L 1984 4856 
z
" transform="scale(0.015625)"/>
       <path id="DejaVuSans-29" d="M 513 4856 
L 1013 4856 
Q 1481 4119 1714 3412 
Q 1947 2706 1947 2009 
Q 1947 1309 1714 600 
Q 1481 -109 1013 -844 
L 513 -844 
Q 928 -128 1133 580 
Q 1338 1288 1338 2009 
Q 1338 2731 1133 3434 
Q 928 4138 513 4856 
z
" transform="scale(0.015625)"/>
       <path id="DejaVuSans-3d" d="M 678 2906 
L 4684 2906 
L 4684 2381 
L 678 2381 
L 678 2906 
z
M 678 1631 
L 4684 1631 
L 4684 1100 
L 678 1100 
L 678 1631 
z
" transform="scale(0.015625)"/>
       <path id="DejaVuSans-2212" d="M 678 2272 
L 4684 2272 
L 4684 1741 
L 678 1741 
L 678 2272 
z
" transform="scale(0.015625)"/>
       <path id="DejaVuSans-Oblique-70" d="M 3175 2156 
Q 3175 2616 2975 2859 
Q 2775 3103 2400 3103 
Q 2144 3103 1911 2972 
Q 1678 2841 1497 2591 
Q 1319 2344 1212 1994 
Q 1106 1644 1106 1300 
Q 1106 863 1306 627 
Q 1506 391 1875 391 
Q 2147 391 2380 519 
Q 2613 647 2778 891 
Q 2956 1147 3065 1494 
Q 3175 1841 3175 2156 
z
M 1394 2969 
Q 1625 3272 1939 3428 
Q 2253 3584 2638 3584 
Q 3175 3584 3472 3232 
Q 3769 2881 3769 2247 
Q 3769 1728 3584 1258 
Q 3400 788 3053 416 
Q 2822 169 2531 39 
Q 2241 -91 1919 -91 
Q 1547 -91 1294 64 
Q 1041 219 916 525 
L 556 -1331 
L -19 -1331 
L 922 3500 
L 1497 3500 
L 1394 2969 
z
" transform="scale(0.015625)"/>
      </defs>
      <use xlink:href="#DejaVuSans-70" transform="translate(0 0.015625)"/>
      <use xlink:href="#DejaVuSans-65" transform="translate(63.476562 0.015625)"/>
      <use xlink:href="#DejaVuSans-72" transform="translate(125 0.015625)"/>
      <use xlink:href="#DejaVuSans-2d" transform="translate(166.113281 0.015625)"/>
      <use xlink:href="#DejaVuSans-74" transform="translate(202.197266 0.015625)"/>
      <use xlink:href="#DejaVuSans-6f" transform="translate(241.40625 0.015625)"/>
      <use xlink:href="#DejaVuSans-6b" transform="translate(302.587891 0.015625)"/>
      <use xlink:href="#DejaVuSans-65" transform="translate(360.498047 0.015625)"/>
      <use xlink:href="#DejaVuSans-6e" transform="translate(422.021484 0.015625)"/>
      <use xlink:href="#DejaVuSans-20" transform="translate(485.400391 0.015625)"/>
      <use xlink:href="#DejaVuSans-6c" transform="translate(517.1875 0.015625)"/>
      <use xlink:href="#DejaVuSans-6f" transform="translate(544.970703 0.015625)"/>
      <use xlink:href="#DejaVuSans-73" transform="translate(606.152344 0.015625)"/>
      <use xlink:href="#DejaVuSans-73" transform="translate(658.251953 0.015625)"/>
      <use xlink:href="#DejaVuSans-20" transform="translate(710.351562 0.015625)"/>
      <use xlink:href="#DejaVuSans-28" transform="translate(742.138672 0.015625)"/>
      <use xlink:href="#DejaVuSans-62" transform="translate(781.152344 0.015625)"/>
      <use xlink:href="#DejaVuSans-69" transform="translate(844.628906 0.015625)"/>
      <use xlink:href="#DejaVuSans-74" transform="translate(872.412109 0.015625)"/>
      <use xlink:href="#DejaVuSans-73" transform="translate(911.621094 0.015625)"/>
      <use xlink:href="#DejaVuSans-29" transform="translate(963.720703 0.015625)"/>
      <use xlink:href="#DejaVuSans-20" transform="translate(1002.734375 0.015625)"/>
      <use xlink:href="#DejaVuSans-3d" transform="translate(1054.003906 0.015625)"/>
      <use xlink:href="#DejaVuSans-2212" transform="translate(1176.757812 0.015625)"/>
      <use xlink:href="#DejaVuSans-6c" transform="translate(1280.029297 0.015625)"/>
      <use xlink:href="#DejaVuSans-6f" transform="translate(1307.8125 0.015625)"/>
      <use xlink:href="#DejaVuSans-67" transform="translate(1368.994141 0.015625)"/>
      <use xlink:href="#DejaVuSans-32" transform="translate(1433.427734 -16.390625) scale(0.7)"/>
      <use xlink:href="#DejaVuSans-Oblique-70" transform="translate(1496.933918 0.015625)"/>
     </g>
    </g>
   </g>
   <g id="line2d_27">
    <path d="M 45.006015 33.629177 
L 45.771036 41.976991 
L 47.301078 55.168965 
L 48.83112 65.414953 
L 50.361162 73.793484 
L 51.891204 80.881479 
L 53.421246 87.023943 
L 54.951288 92.443707 
L 57.246351 99.539058 
L 59.541414 105.687044 
L 61.836477 111.111104 
L 64.13154 115.963905 
L 66.426603 120.354392 
L 68.721666 124.363041 
L 71.78175 129.217563 
L 74.841834 133.609459 
L 77.901918 137.619282 
L 80.962003 141.308222 
L 84.787108 145.539651 
L 88.612213 149.415301 
L 92.437318 152.990388 
L 97.027444 156.944049 
L 101.61757 160.585406 
L 106.207696 163.960206 
L 111.562843 167.608702 
L 116.91799 170.989633 
L 123.038158 174.572508 
L 129.158326 177.89702 
L 136.043515 181.371294 
L 142.928704 184.602103 
L 150.578914 187.944937 
L 158.994146 191.362194 
L 167.409377 194.543643 
L 176.589629 197.781009 
L 186.534902 201.049327 
L 197.245196 204.327912 
L 208.720511 207.599895 
L 220.960847 210.851723 
L 233.966205 214.072683 
L 247.736583 217.254446 
L 262.271982 220.390671 
L 278.337423 223.625661 
L 295.167886 226.787676 
L 313.52839 230.006587 
L 333.418936 233.257536 
L 354.074503 236.40726 
L 376.260113 239.566655 
L 399.975764 242.72054 
L 425.221457 245.856617 
L 426.751499 246.04 
L 426.751499 246.04 
" clip-path="url(#p5c7679035f)" style="fill: none; stroke: #2563eb; stroke-width: 2.4; stroke-linecap: square"/>
   </g>
   <g id="patch_3">
    <path d="M 41.15 246.04 
L 41.15 25.44 
" style="fill: none; stroke: #000000; stroke-width: 0.8; stroke-linejoin: miter; stroke-linecap: square"/>
   </g>
   <g id="patch_4">
    <path d="M 434.463529 246.04 
L 434.463529 25.44 
" style="fill: none; stroke: #000000; stroke-width: 0.8; stroke-linejoin: miter; stroke-linecap: square"/>
   </g>
   <g id="patch_5">
    <path d="M 41.15 246.04 
L 434.463529 246.04 
" style="fill: none; stroke: #000000; stroke-width: 0.8; stroke-linejoin: miter; stroke-linecap: square"/>
   </g>
   <g id="patch_6">
    <path d="M 41.15 25.44 
L 434.463529 25.44 
" style="fill: none; stroke: #000000; stroke-width: 0.8; stroke-linejoin: miter; stroke-linecap: square"/>
   </g>
   <g id="text_16">
    <!-- p = 0.7  -&gt;  0.51 bits -->
    <g style="fill: #374151" transform="translate(320.07105 224.588574) scale(0.085 -0.085)">
     <defs>
      <path id="DejaVuSans-37" d="M 525 4666 
L 3525 4666 
L 3525 4397 
L 1831 0 
L 1172 0 
L 2766 4134 
L 525 4134 
L 525 4666 
z
" transform="scale(0.015625)"/>
      <path id="DejaVuSans-3e" d="M 678 3150 
L 678 3719 
L 4684 2266 
L 4684 1747 
L 678 294 
L 678 863 
L 3897 2003 
L 678 3150 
z
" transform="scale(0.015625)"/>
     </defs>
     <use xlink:href="#DejaVuSans-70"/>
     <use xlink:href="#DejaVuSans-20" x="63.476562"/>
     <use xlink:href="#DejaVuSans-3d" x="95.263672"/>
     <use xlink:href="#DejaVuSans-20" x="179.052734"/>
     <use xlink:href="#DejaVuSans-30" x="210.839844"/>
     <use xlink:href="#DejaVuSans-2e" x="274.462891"/>
     <use xlink:href="#DejaVuSans-37" x="306.25"/>
     <use xlink:href="#DejaVuSans-20" x="369.873047"/>
     <use xlink:href="#DejaVuSans-20" x="401.660156"/>
     <use xlink:href="#DejaVuSans-2d" x="433.447266"/>
     <use xlink:href="#DejaVuSans-3e" x="469.53125"/>
     <use xlink:href="#DejaVuSans-20" x="553.320312"/>
     <use xlink:href="#DejaVuSans-20" x="585.107422"/>
     <use xlink:href="#DejaVuSans-30" x="616.894531"/>
     <use xlink:href="#DejaVuSans-2e" x="680.517578"/>
     <use xlink:href="#DejaVuSans-35" x="712.304688"/>
     <use xlink:href="#DejaVuSans-31" x="775.927734"/>
     <use xlink:href="#DejaVuSans-20" x="839.550781"/>
     <use xlink:href="#DejaVuSans-62" x="871.337891"/>
     <use xlink:href="#DejaVuSans-69" x="934.814453"/>
     <use xlink:href="#DejaVuSans-74" x="962.597656"/>
     <use xlink:href="#DejaVuSans-73" x="1001.806641"/>
    </g>
   </g>
   <g id="text_17">
    <!-- p = 0.25  -&gt;  2.00 bits -->
    <g style="fill: #374151" transform="translate(146.550375 177.097971) scale(0.085 -0.085)">
     <use xlink:href="#DejaVuSans-70"/>
     <use xlink:href="#DejaVuSans-20" x="63.476562"/>
     <use xlink:href="#DejaVuSans-3d" x="95.263672"/>
     <use xlink:href="#DejaVuSans-20" x="179.052734"/>
     <use xlink:href="#DejaVuSans-30" x="210.839844"/>
     <use xlink:href="#DejaVuSans-2e" x="274.462891"/>
     <use xlink:href="#DejaVuSans-32" x="306.25"/>
     <use xlink:href="#DejaVuSans-35" x="369.873047"/>
     <use xlink:href="#DejaVuSans-20" x="433.496094"/>
     <use xlink:href="#DejaVuSans-20" x="465.283203"/>
     <use xlink:href="#DejaVuSans-2d" x="497.070312"/>
     <use xlink:href="#DejaVuSans-3e" x="533.154297"/>
     <use xlink:href="#DejaVuSans-20" x="616.943359"/>
     <use xlink:href="#DejaVuSans-20" x="648.730469"/>
     <use xlink:href="#DejaVuSans-32" x="680.517578"/>
     <use xlink:href="#DejaVuSans-2e" x="744.140625"/>
     <use xlink:href="#DejaVuSans-30" x="775.927734"/>
     <use xlink:href="#DejaVuSans-30" x="839.550781"/>
     <use xlink:href="#DejaVuSans-20" x="903.173828"/>
     <use xlink:href="#DejaVuSans-62" x="934.960938"/>
     <use xlink:href="#DejaVuSans-69" x="998.4375"/>
     <use xlink:href="#DejaVuSans-74" x="1026.220703"/>
     <use xlink:href="#DejaVuSans-73" x="1065.429688"/>
    </g>
   </g>
   <g id="text_18">
    <!-- p = 0.05  -&gt;  4.32 bits -->
    <g style="fill: #374151" transform="translate(69.430075 102.863574) scale(0.085 -0.085)">
     <use xlink:href="#DejaVuSans-70"/>
     <use xlink:href="#DejaVuSans-20" x="63.476562"/>
     <use xlink:href="#DejaVuSans-3d" x="95.263672"/>
     <use xlink:href="#DejaVuSans-20" x="179.052734"/>
     <use xlink:href="#DejaVuSans-30" x="210.839844"/>
     <use xlink:href="#DejaVuSans-2e" x="274.462891"/>
     <use xlink:href="#DejaVuSans-30" x="306.25"/>
     <use xlink:href="#DejaVuSans-35" x="369.873047"/>
     <use xlink:href="#DejaVuSans-20" x="433.496094"/>
     <use xlink:href="#DejaVuSans-20" x="465.283203"/>
     <use xlink:href="#DejaVuSans-2d" x="497.070312"/>
     <use xlink:href="#DejaVuSans-3e" x="533.154297"/>
     <use xlink:href="#DejaVuSans-20" x="616.943359"/>
     <use xlink:href="#DejaVuSans-20" x="648.730469"/>
     <use xlink:href="#DejaVuSans-34" x="680.517578"/>
     <use xlink:href="#DejaVuSans-2e" x="744.140625"/>
     <use xlink:href="#DejaVuSans-33" x="775.927734"/>
     <use xlink:href="#DejaVuSans-32" x="839.550781"/>
     <use xlink:href="#DejaVuSans-20" x="903.173828"/>
     <use xlink:href="#DejaVuSans-62" x="934.960938"/>
     <use xlink:href="#DejaVuSans-69" x="998.4375"/>
     <use xlink:href="#DejaVuSans-74" x="1026.220703"/>
     <use xlink:href="#DejaVuSans-73" x="1065.429688"/>
    </g>
   </g>
   <g id="patch_7">
    <path d="M 376.79158 224.595395 
Q 400.852172 234.923072 423.885377 244.809756 
" style="fill: none; stroke: #16a34a; stroke-linecap: round"/>
    <path d="M 421.431576 241.906506 
L 423.885377 244.809756 
L 420.090496 245.030847 
" style="fill: none; stroke: #16a34a; stroke-linecap: round"/>
   </g>
   <g id="text_19">
    <!-- confident &amp; correct -->
    <g style="fill: #16a34a" transform="translate(308.751499 210.521859) scale(0.085 -0.085)">
     <defs>
      <path id="DejaVuSans-63" d="M 3122 3366 
L 3122 2828 
Q 2878 2963 2633 3030 
Q 2388 3097 2138 3097 
Q 1578 3097 1268 2742 
Q 959 2388 959 1747 
Q 959 1106 1268 751 
Q 1578 397 2138 397 
Q 2388 397 2633 464 
Q 2878 531 3122 666 
L 3122 134 
Q 2881 22 2623 -34 
Q 2366 -91 2075 -91 
Q 1284 -91 818 406 
Q 353 903 353 1747 
Q 353 2603 823 3093 
Q 1294 3584 2113 3584 
Q 2378 3584 2631 3529 
Q 2884 3475 3122 3366 
z
" transform="scale(0.015625)"/>
      <path id="DejaVuSans-66" d="M 2375 4863 
L 2375 4384 
L 1825 4384 
Q 1516 4384 1395 4259 
Q 1275 4134 1275 3809 
L 1275 3500 
L 2222 3500 
L 2222 3053 
L 1275 3053 
L 1275 0 
L 697 0 
L 697 3053 
L 147 3053 
L 147 3500 
L 697 3500 
L 697 3744 
Q 697 4328 969 4595 
Q 1241 4863 1831 4863 
L 2375 4863 
z
" transform="scale(0.015625)"/>
      <path id="DejaVuSans-26" d="M 1556 2509 
Q 1272 2256 1139 2004 
Q 1006 1753 1006 1478 
Q 1006 1022 1337 719 
Q 1669 416 2169 416 
Q 2466 416 2725 514 
Q 2984 613 3213 813 
L 1556 2509 
z
M 1997 2859 
L 3584 1234 
Q 3769 1513 3872 1830 
Q 3975 2147 3994 2503 
L 4575 2503 
Q 4538 2091 4375 1687 
Q 4213 1284 3922 891 
L 4794 0 
L 4006 0 
L 3559 459 
Q 3234 181 2878 45 
Q 2522 -91 2113 -91 
Q 1359 -91 881 339 
Q 403 769 403 1441 
Q 403 1841 612 2192 
Q 822 2544 1241 2853 
Q 1091 3050 1012 3245 
Q 934 3441 934 3628 
Q 934 4134 1281 4442 
Q 1628 4750 2203 4750 
Q 2463 4750 2720 4694 
Q 2978 4638 3244 4525 
L 3244 3956 
Q 2972 4103 2725 4179 
Q 2478 4256 2266 4256 
Q 1938 4256 1733 4082 
Q 1528 3909 1528 3634 
Q 1528 3475 1620 3314 
Q 1713 3153 1997 2859 
z
" transform="scale(0.015625)"/>
     </defs>
     <use xlink:href="#DejaVuSans-63"/>
     <use xlink:href="#DejaVuSans-6f" x="54.980469"/>
     <use xlink:href="#DejaVuSans-6e" x="116.162109"/>
     <use xlink:href="#DejaVuSans-66" x="179.541016"/>
     <use xlink:href="#DejaVuSans-69" x="214.746094"/>
     <use xlink:href="#DejaVuSans-64" x="242.529297"/>
     <use xlink:href="#DejaVuSans-65" x="306.005859"/>
     <use xlink:href="#DejaVuSans-6e" x="367.529297"/>
     <use xlink:href="#DejaVuSans-74" x="430.908203"/>
     <use xlink:href="#DejaVuSans-20" x="470.117188"/>
     <use xlink:href="#DejaVuSans-26" x="501.904297"/>
     <use xlink:href="#DejaVuSans-20" x="579.882812"/>
     <use xlink:href="#DejaVuSans-63" x="611.669922"/>
     <use xlink:href="#DejaVuSans-6f" x="666.650391"/>
     <use xlink:href="#DejaVuSans-72" x="727.832031"/>
     <use xlink:href="#DejaVuSans-72" x="767.195312"/>
     <use xlink:href="#DejaVuSans-65" x="806.058594"/>
     <use xlink:href="#DejaVuSans-63" x="867.582031"/>
     <use xlink:href="#DejaVuSans-74" x="922.5625"/>
    </g>
    <!-- (p -&gt; 1, loss -&gt; 0) -->
    <g style="fill: #16a34a" transform="translate(308.751499 220.04) scale(0.085 -0.085)">
     <use xlink:href="#DejaVuSans-28"/>
     <use xlink:href="#DejaVuSans-70" x="39.013672"/>
     <use xlink:href="#DejaVuSans-20" x="102.490234"/>
     <use xlink:href="#DejaVuSans-2d" x="134.277344"/>
     <use xlink:href="#DejaVuSans-3e" x="170.361328"/>
     <use xlink:href="#DejaVuSans-20" x="254.150391"/>
     <use xlink:href="#DejaVuSans-31" x="285.9375"/>
     <use xlink:href="#DejaVuSans-2c" x="349.560547"/>
     <use xlink:href="#DejaVuSans-20" x="381.347656"/>
     <use xlink:href="#DejaVuSans-6c" x="413.134766"/>
     <use xlink:href="#DejaVuSans-6f" x="440.917969"/>
     <use xlink:href="#DejaVuSans-73" x="502.099609"/>
     <use xlink:href="#DejaVuSans-73" x="554.199219"/>
     <use xlink:href="#DejaVuSans-20" x="606.298828"/>
     <use xlink:href="#DejaVuSans-2d" x="638.085938"/>
     <use xlink:href="#DejaVuSans-3e" x="674.169922"/>
     <use xlink:href="#DejaVuSans-20" x="757.958984"/>
     <use xlink:href="#DejaVuSans-30" x="789.746094"/>
     <use xlink:href="#DejaVuSans-29" x="853.369141"/>
    </g>
   </g>
   <g id="text_20">
    <!-- truth starved of mass -->
    <g style="fill: #b91c1c" transform="translate(96.430075 104.345434) scale(0.085 -0.085)">
     <defs>
      <path id="DejaVuSans-75" d="M 544 1381 
L 544 3500 
L 1119 3500 
L 1119 1403 
Q 1119 906 1312 657 
Q 1506 409 1894 409 
Q 2359 409 2629 706 
Q 2900 1003 2900 1516 
L 2900 3500 
L 3475 3500 
L 3475 0 
L 2900 0 
L 2900 538 
Q 2691 219 2414 64 
Q 2138 -91 1772 -91 
Q 1169 -91 856 284 
Q 544 659 544 1381 
z
M 1991 3584 
L 1991 3584 
z
" transform="scale(0.015625)"/>
     </defs>
     <use xlink:href="#DejaVuSans-74"/>
     <use xlink:href="#DejaVuSans-72" x="39.208984"/>
     <use xlink:href="#DejaVuSans-75" x="80.322266"/>
     <use xlink:href="#DejaVuSans-74" x="143.701172"/>
     <use xlink:href="#DejaVuSans-68" x="182.910156"/>
     <use xlink:href="#DejaVuSans-20" x="246.289062"/>
     <use xlink:href="#DejaVuSans-73" x="278.076172"/>
     <use xlink:href="#DejaVuSans-74" x="330.175781"/>
     <use xlink:href="#DejaVuSans-61" x="369.384766"/>
     <use xlink:href="#DejaVuSans-72" x="430.664062"/>
     <use xlink:href="#DejaVuSans-76" x="471.777344"/>
     <use xlink:href="#DejaVuSans-65" x="530.957031"/>
     <use xlink:href="#DejaVuSans-64" x="592.480469"/>
     <use xlink:href="#DejaVuSans-20" x="655.957031"/>
     <use xlink:href="#DejaVuSans-6f" x="687.744141"/>
     <use xlink:href="#DejaVuSans-66" x="748.925781"/>
     <use xlink:href="#DejaVuSans-20" x="784.130859"/>
     <use xlink:href="#DejaVuSans-6d" x="815.917969"/>
     <use xlink:href="#DejaVuSans-61" x="913.330078"/>
     <use xlink:href="#DejaVuSans-73" x="974.609375"/>
     <use xlink:href="#DejaVuSans-73" x="1026.708984"/>
    </g>
    <!-- (p -&gt; 0, loss -&gt; infinity) -->
    <g style="fill: #b91c1c" transform="translate(96.430075 113.863574) scale(0.085 -0.085)">
     <use xlink:href="#DejaVuSans-28"/>
     <use xlink:href="#DejaVuSans-70" x="39.013672"/>
     <use xlink:href="#DejaVuSans-20" x="102.490234"/>
     <use xlink:href="#DejaVuSans-2d" x="134.277344"/>
     <use xlink:href="#DejaVuSans-3e" x="170.361328"/>
     <use xlink:href="#DejaVuSans-20" x="254.150391"/>
     <use xlink:href="#DejaVuSans-30" x="285.9375"/>
     <use xlink:href="#DejaVuSans-2c" x="349.560547"/>
     <use xlink:href="#DejaVuSans-20" x="381.347656"/>
     <use xlink:href="#DejaVuSans-6c" x="413.134766"/>
     <use xlink:href="#DejaVuSans-6f" x="440.917969"/>
     <use xlink:href="#DejaVuSans-73" x="502.099609"/>
     <use xlink:href="#DejaVuSans-73" x="554.199219"/>
     <use xlink:href="#DejaVuSans-20" x="606.298828"/>
     <use xlink:href="#DejaVuSans-2d" x="638.085938"/>
     <use xlink:href="#DejaVuSans-3e" x="674.169922"/>
     <use xlink:href="#DejaVuSans-20" x="757.958984"/>
     <use xlink:href="#DejaVuSans-69" x="789.746094"/>
     <use xlink:href="#DejaVuSans-6e" x="817.529297"/>
     <use xlink:href="#DejaVuSans-66" x="880.908203"/>
     <use xlink:href="#DejaVuSans-69" x="916.113281"/>
     <use xlink:href="#DejaVuSans-6e" x="943.896484"/>
     <use xlink:href="#DejaVuSans-69" x="1007.275391"/>
     <use xlink:href="#DejaVuSans-74" x="1035.058594"/>
     <use xlink:href="#DejaVuSans-79" x="1074.267578"/>
     <use xlink:href="#DejaVuSans-29" x="1133.447266"/>
    </g>
   </g>
   <g id="text_21">
    <!-- The per-token loss is surprisal -->
    <g transform="translate(155.765671 19.44) scale(0.11 -0.11)">
     <defs>
      <path id="DejaVuSans-54" d="M -19 4666 
L 3928 4666 
L 3928 4134 
L 2272 4134 
L 2272 0 
L 1638 0 
L 1638 4134 
L -19 4134 
L -19 4666 
z
" transform="scale(0.015625)"/>
     </defs>
     <use xlink:href="#DejaVuSans-54"/>
     <use xlink:href="#DejaVuSans-68" x="61.083984"/>
     <use xlink:href="#DejaVuSans-65" x="124.462891"/>
     <use xlink:href="#DejaVuSans-20" x="185.986328"/>
     <use xlink:href="#DejaVuSans-70" x="217.773438"/>
     <use xlink:href="#DejaVuSans-65" x="281.25"/>
     <use xlink:href="#DejaVuSans-72" x="342.773438"/>
     <use xlink:href="#DejaVuSans-2d" x="377.511719"/>
     <use xlink:href="#DejaVuSans-74" x="413.595703"/>
     <use xlink:href="#DejaVuSans-6f" x="452.804688"/>
     <use xlink:href="#DejaVuSans-6b" x="513.986328"/>
     <use xlink:href="#DejaVuSans-65" x="568.271484"/>
     <use xlink:href="#DejaVuSans-6e" x="629.794922"/>
     <use xlink:href="#DejaVuSans-20" x="693.173828"/>
     <use xlink:href="#DejaVuSans-6c" x="724.960938"/>
     <use xlink:href="#DejaVuSans-6f" x="752.744141"/>
     <use xlink:href="#DejaVuSans-73" x="813.925781"/>
     <use xlink:href="#DejaVuSans-73" x="866.025391"/>
     <use xlink:href="#DejaVuSans-20" x="918.125"/>
     <use xlink:href="#DejaVuSans-69" x="949.912109"/>
     <use xlink:href="#DejaVuSans-73" x="977.695312"/>
     <use xlink:href="#DejaVuSans-20" x="1029.794922"/>
     <use xlink:href="#DejaVuSans-73" x="1061.582031"/>
     <use xlink:href="#DejaVuSans-75" x="1113.681641"/>
     <use xlink:href="#DejaVuSans-72" x="1177.060547"/>
     <use xlink:href="#DejaVuSans-70" x="1218.173828"/>
     <use xlink:href="#DejaVuSans-72" x="1281.650391"/>
     <use xlink:href="#DejaVuSans-69" x="1322.763672"/>
     <use xlink:href="#DejaVuSans-73" x="1350.546875"/>
     <use xlink:href="#DejaVuSans-61" x="1402.646484"/>
     <use xlink:href="#DejaVuSans-6c" x="1463.925781"/>
    </g>
   </g>
   <g id="line2d_28">
    <defs>
     <path id="mce8cc9884d" d="M 0 2.5 
C 0.663008 2.5 1.29895 2.236584 1.767767 1.767767 
C 2.236584 1.29895 2.5 0.663008 2.5 0 
C 2.5 -0.663008 2.236584 -1.29895 1.767767 -1.767767 
C 1.29895 -2.236584 0.663008 -2.5 0 -2.5 
C -0.663008 -2.5 -1.29895 -2.236584 -1.767767 -1.767767 
C -2.236584 -1.29895 -2.5 -0.663008 -2.5 0 
C -2.5 0.663008 -2.236584 1.29895 -1.767767 1.767767 
C -1.29895 2.236584 -0.663008 2.5 0 2.5 
z
" style="stroke: #dc2626"/>
    </defs>
    <g clip-path="url(#p5c7679035f)">
     <use xlink:href="#mce8cc9884d" x="311.07105" y="229.588574" style="fill: #dc2626; stroke: #dc2626"/>
    </g>
   </g>
   <g id="line2d_29">
    <g clip-path="url(#p5c7679035f)">
     <use xlink:href="#mce8cc9884d" x="137.550375" y="182.097971" style="fill: #dc2626; stroke: #dc2626"/>
    </g>
   </g>
   <g id="line2d_30">
    <g clip-path="url(#p5c7679035f)">
     <use xlink:href="#mce8cc9884d" x="60.430075" y="107.863574" style="fill: #dc2626; stroke: #dc2626"/>
    </g>
   </g>
  </g>
 </g>
 <defs>
  <clipPath id="p5c7679035f">
   <rect x="41.15" y="25.44" width="393.313529" height="220.6"/>
  </clipPath>
 </defs>
</svg>
