<?xml version="1.0" encoding="utf-8" standalone="no"?>
<!DOCTYPE svg PUBLIC "-//W3C//DTD SVG 1.1//EN"
  "http://www.w3.org/Graphics/SVG/1.1/DTD/svg11.dtd">
<svg xmlns:xlink="http://www.w3.org/1999/xlink" width="762.12pt" height="380.304pt" viewBox="0 0 762.12 380.304" xmlns="http://www.w3.org/2000/svg" version="1.1">
 <metadata>
  <rdf:RDF xmlns:dc="http://purl.org/dc/elements/1.1/" xmlns:cc="http://creativecommons.org/ns#" xmlns:rdf="http://www.w3.org/1999/02/22-rdf-syntax-ns#">
   <cc:Work>
    <dc:type rdf:resource="http://purl.org/dc/dcmitype/StillImage"/>
    <dc:date>2026-06-28T20:47:25.174453</dc:date>
    <dc:format>image/svg+xml</dc:format>
    <dc:creator>
     <cc:Agent>
      <dc:title>Matplotlib v3.9.0, https://matplotlib.org/</dc:title>
     </cc:Agent>
    </dc:creator>
   </cc:Work>
  </rdf:RDF>
 </metadata>
 <defs>
  <style type="text/css">*{stroke-linejoin: round; stroke-linecap: butt}</style>
 </defs>
 <g id="figure_1">
  <g id="patch_1">
   <path d="M 0 380.304 
L 762.12 380.304 
L 762.12 0 
L 0 0 
z
" style="fill: #ffffff"/>
  </g>
  <g id="axes_1">
   <g id="line2d_1">
    <path d="M 20.877805 334.68408 
L 741.242195 334.68408 
" clip-path="url(#pa1d18e0bcb)" style="fill: none; stroke: #e2e8f0; stroke-linecap: square"/>
   </g>
   <g id="patch_2">
    <path d="M 292.154268 302.484528 
L 481.363902 302.484528 
Q 491.394293 302.484528 491.394293 294.43464 
L 491.394293 118.80072 
Q 491.394293 110.750832 481.363902 110.750832 
L 292.154268 110.750832 
Q 282.123878 110.750832 282.123878 118.80072 
L 282.123878 294.43464 
Q 282.123878 302.484528 292.154268 302.484528 
z
" clip-path="url(#pa1d18e0bcb)" style="fill: #f8fafc; stroke: #64748b; stroke-width: 1.5; stroke-linejoin: miter"/>
   </g>
   <g id="text_1">
    <!-- The parameters in one attention head -->
    <g style="fill: #1e293b" transform="translate(20.877805 21.104352) scale(0.14 -0.14)">
     <defs>
      <path id="DejaVuSans-Bold-54" d="M 31 4666 
L 4331 4666 
L 4331 3756 
L 2784 3756 
L 2784 0 
L 1581 0 
L 1581 3756 
L 31 3756 
L 31 4666 
z
" transform="scale(0.015625)"/>
      <path id="DejaVuSans-Bold-68" d="M 4056 2131 
L 4056 0 
L 2931 0 
L 2931 347 
L 2931 1625 
Q 2931 2084 2911 2256 
Q 2891 2428 2841 2509 
Q 2775 2619 2662 2680 
Q 2550 2741 2406 2741 
Q 2056 2741 1856 2470 
Q 1656 2200 1656 1722 
L 1656 0 
L 538 0 
L 538 4863 
L 1656 4863 
L 1656 2988 
Q 1909 3294 2193 3439 
Q 2478 3584 2822 3584 
Q 3428 3584 3742 3212 
Q 4056 2841 4056 2131 
z
" transform="scale(0.015625)"/>
      <path id="DejaVuSans-Bold-65" d="M 4031 1759 
L 4031 1441 
L 1416 1441 
Q 1456 1047 1700 850 
Q 1944 653 2381 653 
Q 2734 653 3104 758 
Q 3475 863 3866 1075 
L 3866 213 
Q 3469 63 3072 -14 
Q 2675 -91 2278 -91 
Q 1328 -91 801 392 
Q 275 875 275 1747 
Q 275 2603 792 3093 
Q 1309 3584 2216 3584 
Q 3041 3584 3536 3087 
Q 4031 2591 4031 1759 
z
M 2881 2131 
Q 2881 2450 2695 2645 
Q 2509 2841 2209 2841 
Q 1884 2841 1681 2658 
Q 1478 2475 1428 2131 
L 2881 2131 
z
" transform="scale(0.015625)"/>
      <path id="DejaVuSans-Bold-20" transform="scale(0.015625)"/>
      <path id="DejaVuSans-Bold-70" d="M 1656 506 
L 1656 -1331 
L 538 -1331 
L 538 3500 
L 1656 3500 
L 1656 2988 
Q 1888 3294 2169 3439 
Q 2450 3584 2816 3584 
Q 3463 3584 3878 3070 
Q 4294 2556 4294 1747 
Q 4294 938 3878 423 
Q 3463 -91 2816 -91 
Q 2450 -91 2169 54 
Q 1888 200 1656 506 
z
M 2400 2772 
Q 2041 2772 1848 2508 
Q 1656 2244 1656 1747 
Q 1656 1250 1848 986 
Q 2041 722 2400 722 
Q 2759 722 2948 984 
Q 3138 1247 3138 1747 
Q 3138 2247 2948 2509 
Q 2759 2772 2400 2772 
z
" transform="scale(0.015625)"/>
      <path id="DejaVuSans-Bold-61" d="M 2106 1575 
Q 1756 1575 1579 1456 
Q 1403 1338 1403 1106 
Q 1403 894 1545 773 
Q 1688 653 1941 653 
Q 2256 653 2472 879 
Q 2688 1106 2688 1447 
L 2688 1575 
L 2106 1575 
z
M 3816 1997 
L 3816 0 
L 2688 0 
L 2688 519 
Q 2463 200 2181 54 
Q 1900 -91 1497 -91 
Q 953 -91 614 226 
Q 275 544 275 1050 
Q 275 1666 698 1953 
Q 1122 2241 2028 2241 
L 2688 2241 
L 2688 2328 
Q 2688 2594 2478 2717 
Q 2269 2841 1825 2841 
Q 1466 2841 1156 2769 
Q 847 2697 581 2553 
L 581 3406 
Q 941 3494 1303 3539 
Q 1666 3584 2028 3584 
Q 2975 3584 3395 3211 
Q 3816 2838 3816 1997 
z
" transform="scale(0.015625)"/>
      <path id="DejaVuSans-Bold-72" d="M 3138 2547 
Q 2991 2616 2845 2648 
Q 2700 2681 2553 2681 
Q 2122 2681 1889 2404 
Q 1656 2128 1656 1613 
L 1656 0 
L 538 0 
L 538 3500 
L 1656 3500 
L 1656 2925 
Q 1872 3269 2151 3426 
Q 2431 3584 2822 3584 
Q 2878 3584 2943 3579 
Q 3009 3575 3134 3559 
L 3138 2547 
z
" transform="scale(0.015625)"/>
      <path id="DejaVuSans-Bold-6d" d="M 3781 2919 
Q 3994 3244 4286 3414 
Q 4578 3584 4928 3584 
Q 5531 3584 5847 3212 
Q 6163 2841 6163 2131 
L 6163 0 
L 5038 0 
L 5038 1825 
Q 5041 1866 5042 1909 
Q 5044 1953 5044 2034 
Q 5044 2406 4934 2573 
Q 4825 2741 4581 2741 
Q 4263 2741 4089 2478 
Q 3916 2216 3909 1719 
L 3909 0 
L 2784 0 
L 2784 1825 
Q 2784 2406 2684 2573 
Q 2584 2741 2328 2741 
Q 2006 2741 1831 2477 
Q 1656 2213 1656 1722 
L 1656 0 
L 531 0 
L 531 3500 
L 1656 3500 
L 1656 2988 
Q 1863 3284 2130 3434 
Q 2397 3584 2719 3584 
Q 3081 3584 3359 3409 
Q 3638 3234 3781 2919 
z
" transform="scale(0.015625)"/>
      <path id="DejaVuSans-Bold-74" d="M 1759 4494 
L 1759 3500 
L 2913 3500 
L 2913 2700 
L 1759 2700 
L 1759 1216 
Q 1759 972 1856 886 
Q 1953 800 2241 800 
L 2816 800 
L 2816 0 
L 1856 0 
Q 1194 0 917 276 
Q 641 553 641 1216 
L 641 2700 
L 84 2700 
L 84 3500 
L 641 3500 
L 641 4494 
L 1759 4494 
z
" transform="scale(0.015625)"/>
      <path id="DejaVuSans-Bold-73" d="M 3272 3391 
L 3272 2541 
Q 2913 2691 2578 2766 
Q 2244 2841 1947 2841 
Q 1628 2841 1473 2761 
Q 1319 2681 1319 2516 
Q 1319 2381 1436 2309 
Q 1553 2238 1856 2203 
L 2053 2175 
Q 2913 2066 3209 1816 
Q 3506 1566 3506 1031 
Q 3506 472 3093 190 
Q 2681 -91 1863 -91 
Q 1516 -91 1145 -36 
Q 775 19 384 128 
L 384 978 
Q 719 816 1070 734 
Q 1422 653 1784 653 
Q 2113 653 2278 743 
Q 2444 834 2444 1013 
Q 2444 1163 2330 1236 
Q 2216 1309 1875 1350 
L 1678 1375 
Q 931 1469 631 1722 
Q 331 1975 331 2491 
Q 331 3047 712 3315 
Q 1094 3584 1881 3584 
Q 2191 3584 2531 3537 
Q 2872 3491 3272 3391 
z
" transform="scale(0.015625)"/>
      <path id="DejaVuSans-Bold-69" d="M 538 3500 
L 1656 3500 
L 1656 0 
L 538 0 
L 538 3500 
z
M 538 4863 
L 1656 4863 
L 1656 3950 
L 538 3950 
L 538 4863 
z
" transform="scale(0.015625)"/>
      <path id="DejaVuSans-Bold-6e" d="M 4056 2131 
L 4056 0 
L 2931 0 
L 2931 347 
L 2931 1631 
Q 2931 2084 2911 2256 
Q 2891 2428 2841 2509 
Q 2775 2619 2662 2680 
Q 2550 2741 2406 2741 
Q 2056 2741 1856 2470 
Q 1656 2200 1656 1722 
L 1656 0 
L 538 0 
L 538 3500 
L 1656 3500 
L 1656 2988 
Q 1909 3294 2193 3439 
Q 2478 3584 2822 3584 
Q 3428 3584 3742 3212 
Q 4056 2841 4056 2131 
z
" transform="scale(0.015625)"/>
      <path id="DejaVuSans-Bold-6f" d="M 2203 2784 
Q 1831 2784 1636 2517 
Q 1441 2250 1441 1747 
Q 1441 1244 1636 976 
Q 1831 709 2203 709 
Q 2569 709 2762 976 
Q 2956 1244 2956 1747 
Q 2956 2250 2762 2517 
Q 2569 2784 2203 2784 
z
M 2203 3584 
Q 3106 3584 3614 3096 
Q 4122 2609 4122 1747 
Q 4122 884 3614 396 
Q 3106 -91 2203 -91 
Q 1297 -91 786 396 
Q 275 884 275 1747 
Q 275 2609 786 3096 
Q 1297 3584 2203 3584 
z
" transform="scale(0.015625)"/>
      <path id="DejaVuSans-Bold-64" d="M 2919 2988 
L 2919 4863 
L 4044 4863 
L 4044 0 
L 2919 0 
L 2919 506 
Q 2688 197 2409 53 
Q 2131 -91 1766 -91 
Q 1119 -91 703 423 
Q 288 938 288 1747 
Q 288 2556 703 3070 
Q 1119 3584 1766 3584 
Q 2128 3584 2408 3439 
Q 2688 3294 2919 2988 
z
M 2181 722 
Q 2541 722 2730 984 
Q 2919 1247 2919 1747 
Q 2919 2247 2730 2509 
Q 2541 2772 2181 2772 
Q 1825 2772 1636 2509 
Q 1447 2247 1447 1747 
Q 1447 1247 1636 984 
Q 1825 722 2181 722 
z
" transform="scale(0.015625)"/>
     </defs>
     <use xlink:href="#DejaVuSans-Bold-54"/>
     <use xlink:href="#DejaVuSans-Bold-68" x="68.212891"/>
     <use xlink:href="#DejaVuSans-Bold-65" x="139.404297"/>
     <use xlink:href="#DejaVuSans-Bold-20" x="207.226562"/>
     <use xlink:href="#DejaVuSans-Bold-70" x="242.041016"/>
     <use xlink:href="#DejaVuSans-Bold-61" x="313.623047"/>
     <use xlink:href="#DejaVuSans-Bold-72" x="381.103516"/>
     <use xlink:href="#DejaVuSans-Bold-61" x="430.419922"/>
     <use xlink:href="#DejaVuSans-Bold-6d" x="497.900391"/>
     <use xlink:href="#DejaVuSans-Bold-65" x="602.099609"/>
     <use xlink:href="#DejaVuSans-Bold-74" x="669.921875"/>
     <use xlink:href="#DejaVuSans-Bold-65" x="717.724609"/>
     <use xlink:href="#DejaVuSans-Bold-72" x="785.546875"/>
     <use xlink:href="#DejaVuSans-Bold-73" x="834.863281"/>
     <use xlink:href="#DejaVuSans-Bold-20" x="894.384766"/>
     <use xlink:href="#DejaVuSans-Bold-69" x="929.199219"/>
     <use xlink:href="#DejaVuSans-Bold-6e" x="963.476562"/>
     <use xlink:href="#DejaVuSans-Bold-20" x="1034.667969"/>
     <use xlink:href="#DejaVuSans-Bold-6f" x="1069.482422"/>
     <use xlink:href="#DejaVuSans-Bold-6e" x="1138.183594"/>
     <use xlink:href="#DejaVuSans-Bold-65" x="1209.375"/>
     <use xlink:href="#DejaVuSans-Bold-20" x="1277.197266"/>
     <use xlink:href="#DejaVuSans-Bold-61" x="1312.011719"/>
     <use xlink:href="#DejaVuSans-Bold-74" x="1379.492188"/>
     <use xlink:href="#DejaVuSans-Bold-74" x="1427.294922"/>
     <use xlink:href="#DejaVuSans-Bold-65" x="1475.097656"/>
     <use xlink:href="#DejaVuSans-Bold-6e" x="1542.919922"/>
     <use xlink:href="#DejaVuSans-Bold-74" x="1614.111328"/>
     <use xlink:href="#DejaVuSans-Bold-69" x="1661.914062"/>
     <use xlink:href="#DejaVuSans-Bold-6f" x="1696.191406"/>
     <use xlink:href="#DejaVuSans-Bold-6e" x="1764.892578"/>
     <use xlink:href="#DejaVuSans-Bold-20" x="1836.083984"/>
     <use xlink:href="#DejaVuSans-Bold-68" x="1870.898438"/>
     <use xlink:href="#DejaVuSans-Bold-65" x="1942.089844"/>
     <use xlink:href="#DejaVuSans-Bold-61" x="2009.912109"/>
     <use xlink:href="#DejaVuSans-Bold-64" x="2077.392578"/>
    </g>
   </g>
   <g id="text_2">
    <!-- three input projections feed scaled dot-product attention; an output projection writes the result back -->
    <g style="fill: #64748b" transform="translate(20.877805 37.935936) scale(0.095 -0.095)">
     <defs>
      <path id="DejaVuSans-74" d="M 1172 4494 
L 1172 3500 
L 2356 3500 
L 2356 3053 
L 1172 3053 
L 1172 1153 
Q 1172 725 1289 603 
Q 1406 481 1766 481 
L 2356 481 
L 2356 0 
L 1766 0 
Q 1100 0 847 248 
Q 594 497 594 1153 
L 594 3053 
L 172 3053 
L 172 3500 
L 594 3500 
L 594 4494 
L 1172 4494 
z
" transform="scale(0.015625)"/>
      <path id="DejaVuSans-68" d="M 3513 2113 
L 3513 0 
L 2938 0 
L 2938 2094 
Q 2938 2591 2744 2837 
Q 2550 3084 2163 3084 
Q 1697 3084 1428 2787 
Q 1159 2491 1159 1978 
L 1159 0 
L 581 0 
L 581 4863 
L 1159 4863 
L 1159 2956 
Q 1366 3272 1645 3428 
Q 1925 3584 2291 3584 
Q 2894 3584 3203 3211 
Q 3513 2838 3513 2113 
z
" transform="scale(0.015625)"/>
      <path id="DejaVuSans-72" d="M 2631 2963 
Q 2534 3019 2420 3045 
Q 2306 3072 2169 3072 
Q 1681 3072 1420 2755 
Q 1159 2438 1159 1844 
L 1159 0 
L 581 0 
L 581 3500 
L 1159 3500 
L 1159 2956 
Q 1341 3275 1631 3429 
Q 1922 3584 2338 3584 
Q 2397 3584 2469 3576 
Q 2541 3569 2628 3553 
L 2631 2963 
z
" transform="scale(0.015625)"/>
      <path id="DejaVuSans-65" d="M 3597 1894 
L 3597 1613 
L 953 1613 
Q 991 1019 1311 708 
Q 1631 397 2203 397 
Q 2534 397 2845 478 
Q 3156 559 3463 722 
L 3463 178 
Q 3153 47 2828 -22 
Q 2503 -91 2169 -91 
Q 1331 -91 842 396 
Q 353 884 353 1716 
Q 353 2575 817 3079 
Q 1281 3584 2069 3584 
Q 2775 3584 3186 3129 
Q 3597 2675 3597 1894 
z
M 3022 2063 
Q 3016 2534 2758 2815 
Q 2500 3097 2075 3097 
Q 1594 3097 1305 2825 
Q 1016 2553 972 2059 
L 3022 2063 
z
" transform="scale(0.015625)"/>
      <path id="DejaVuSans-20" transform="scale(0.015625)"/>
      <path id="DejaVuSans-69" d="M 603 3500 
L 1178 3500 
L 1178 0 
L 603 0 
L 603 3500 
z
M 603 4863 
L 1178 4863 
L 1178 4134 
L 603 4134 
L 603 4863 
z
" transform="scale(0.015625)"/>
      <path id="DejaVuSans-6e" d="M 3513 2113 
L 3513 0 
L 2938 0 
L 2938 2094 
Q 2938 2591 2744 2837 
Q 2550 3084 2163 3084 
Q 1697 3084 1428 2787 
Q 1159 2491 1159 1978 
L 1159 0 
L 581 0 
L 581 3500 
L 1159 3500 
L 1159 2956 
Q 1366 3272 1645 3428 
Q 1925 3584 2291 3584 
Q 2894 3584 3203 3211 
Q 3513 2838 3513 2113 
z
" transform="scale(0.015625)"/>
      <path id="DejaVuSans-70" d="M 1159 525 
L 1159 -1331 
L 581 -1331 
L 581 3500 
L 1159 3500 
L 1159 2969 
Q 1341 3281 1617 3432 
Q 1894 3584 2278 3584 
Q 2916 3584 3314 3078 
Q 3713 2572 3713 1747 
Q 3713 922 3314 415 
Q 2916 -91 2278 -91 
Q 1894 -91 1617 61 
Q 1341 213 1159 525 
z
M 3116 1747 
Q 3116 2381 2855 2742 
Q 2594 3103 2138 3103 
Q 1681 3103 1420 2742 
Q 1159 2381 1159 1747 
Q 1159 1113 1420 752 
Q 1681 391 2138 391 
Q 2594 391 2855 752 
Q 3116 1113 3116 1747 
z
" transform="scale(0.015625)"/>
      <path id="DejaVuSans-75" d="M 544 1381 
L 544 3500 
L 1119 3500 
L 1119 1403 
Q 1119 906 1312 657 
Q 1506 409 1894 409 
Q 2359 409 2629 706 
Q 2900 1003 2900 1516 
L 2900 3500 
L 3475 3500 
L 3475 0 
L 2900 0 
L 2900 538 
Q 2691 219 2414 64 
Q 2138 -91 1772 -91 
Q 1169 -91 856 284 
Q 544 659 544 1381 
z
M 1991 3584 
L 1991 3584 
z
" transform="scale(0.015625)"/>
      <path id="DejaVuSans-6f" d="M 1959 3097 
Q 1497 3097 1228 2736 
Q 959 2375 959 1747 
Q 959 1119 1226 758 
Q 1494 397 1959 397 
Q 2419 397 2687 759 
Q 2956 1122 2956 1747 
Q 2956 2369 2687 2733 
Q 2419 3097 1959 3097 
z
M 1959 3584 
Q 2709 3584 3137 3096 
Q 3566 2609 3566 1747 
Q 3566 888 3137 398 
Q 2709 -91 1959 -91 
Q 1206 -91 779 398 
Q 353 888 353 1747 
Q 353 2609 779 3096 
Q 1206 3584 1959 3584 
z
" transform="scale(0.015625)"/>
      <path id="DejaVuSans-6a" d="M 603 3500 
L 1178 3500 
L 1178 -63 
Q 1178 -731 923 -1031 
Q 669 -1331 103 -1331 
L -116 -1331 
L -116 -844 
L 38 -844 
Q 366 -844 484 -692 
Q 603 -541 603 -63 
L 603 3500 
z
M 603 4863 
L 1178 4863 
L 1178 4134 
L 603 4134 
L 603 4863 
z
" transform="scale(0.015625)"/>
      <path id="DejaVuSans-63" d="M 3122 3366 
L 3122 2828 
Q 2878 2963 2633 3030 
Q 2388 3097 2138 3097 
Q 1578 3097 1268 2742 
Q 959 2388 959 1747 
Q 959 1106 1268 751 
Q 1578 397 2138 397 
Q 2388 397 2633 464 
Q 2878 531 3122 666 
L 3122 134 
Q 2881 22 2623 -34 
Q 2366 -91 2075 -91 
Q 1284 -91 818 406 
Q 353 903 353 1747 
Q 353 2603 823 3093 
Q 1294 3584 2113 3584 
Q 2378 3584 2631 3529 
Q 2884 3475 3122 3366 
z
" transform="scale(0.015625)"/>
      <path id="DejaVuSans-73" d="M 2834 3397 
L 2834 2853 
Q 2591 2978 2328 3040 
Q 2066 3103 1784 3103 
Q 1356 3103 1142 2972 
Q 928 2841 928 2578 
Q 928 2378 1081 2264 
Q 1234 2150 1697 2047 
L 1894 2003 
Q 2506 1872 2764 1633 
Q 3022 1394 3022 966 
Q 3022 478 2636 193 
Q 2250 -91 1575 -91 
Q 1294 -91 989 -36 
Q 684 19 347 128 
L 347 722 
Q 666 556 975 473 
Q 1284 391 1588 391 
Q 1994 391 2212 530 
Q 2431 669 2431 922 
Q 2431 1156 2273 1281 
Q 2116 1406 1581 1522 
L 1381 1569 
Q 847 1681 609 1914 
Q 372 2147 372 2553 
Q 372 3047 722 3315 
Q 1072 3584 1716 3584 
Q 2034 3584 2315 3537 
Q 2597 3491 2834 3397 
z
" transform="scale(0.015625)"/>
      <path id="DejaVuSans-66" d="M 2375 4863 
L 2375 4384 
L 1825 4384 
Q 1516 4384 1395 4259 
Q 1275 4134 1275 3809 
L 1275 3500 
L 2222 3500 
L 2222 3053 
L 1275 3053 
L 1275 0 
L 697 0 
L 697 3053 
L 147 3053 
L 147 3500 
L 697 3500 
L 697 3744 
Q 697 4328 969 4595 
Q 1241 4863 1831 4863 
L 2375 4863 
z
" transform="scale(0.015625)"/>
      <path id="DejaVuSans-64" d="M 2906 2969 
L 2906 4863 
L 3481 4863 
L 3481 0 
L 2906 0 
L 2906 525 
Q 2725 213 2448 61 
Q 2172 -91 1784 -91 
Q 1150 -91 751 415 
Q 353 922 353 1747 
Q 353 2572 751 3078 
Q 1150 3584 1784 3584 
Q 2172 3584 2448 3432 
Q 2725 3281 2906 2969 
z
M 947 1747 
Q 947 1113 1208 752 
Q 1469 391 1925 391 
Q 2381 391 2643 752 
Q 2906 1113 2906 1747 
Q 2906 2381 2643 2742 
Q 2381 3103 1925 3103 
Q 1469 3103 1208 2742 
Q 947 2381 947 1747 
z
" transform="scale(0.015625)"/>
      <path id="DejaVuSans-61" d="M 2194 1759 
Q 1497 1759 1228 1600 
Q 959 1441 959 1056 
Q 959 750 1161 570 
Q 1363 391 1709 391 
Q 2188 391 2477 730 
Q 2766 1069 2766 1631 
L 2766 1759 
L 2194 1759 
z
M 3341 1997 
L 3341 0 
L 2766 0 
L 2766 531 
Q 2569 213 2275 61 
Q 1981 -91 1556 -91 
Q 1019 -91 701 211 
Q 384 513 384 1019 
Q 384 1609 779 1909 
Q 1175 2209 1959 2209 
L 2766 2209 
L 2766 2266 
Q 2766 2663 2505 2880 
Q 2244 3097 1772 3097 
Q 1472 3097 1187 3025 
Q 903 2953 641 2809 
L 641 3341 
Q 956 3463 1253 3523 
Q 1550 3584 1831 3584 
Q 2591 3584 2966 3190 
Q 3341 2797 3341 1997 
z
" transform="scale(0.015625)"/>
      <path id="DejaVuSans-6c" d="M 603 4863 
L 1178 4863 
L 1178 0 
L 603 0 
L 603 4863 
z
" transform="scale(0.015625)"/>
      <path id="DejaVuSans-2d" d="M 313 2009 
L 1997 2009 
L 1997 1497 
L 313 1497 
L 313 2009 
z
" transform="scale(0.015625)"/>
      <path id="DejaVuSans-3b" d="M 750 3309 
L 1409 3309 
L 1409 2516 
L 750 2516 
L 750 3309 
z
M 750 794 
L 1409 794 
L 1409 256 
L 897 -744 
L 494 -744 
L 750 256 
L 750 794 
z
" transform="scale(0.015625)"/>
      <path id="DejaVuSans-77" d="M 269 3500 
L 844 3500 
L 1563 769 
L 2278 3500 
L 2956 3500 
L 3675 769 
L 4391 3500 
L 4966 3500 
L 4050 0 
L 3372 0 
L 2619 2869 
L 1863 0 
L 1184 0 
L 269 3500 
z
" transform="scale(0.015625)"/>
      <path id="DejaVuSans-62" d="M 3116 1747 
Q 3116 2381 2855 2742 
Q 2594 3103 2138 3103 
Q 1681 3103 1420 2742 
Q 1159 2381 1159 1747 
Q 1159 1113 1420 752 
Q 1681 391 2138 391 
Q 2594 391 2855 752 
Q 3116 1113 3116 1747 
z
M 1159 2969 
Q 1341 3281 1617 3432 
Q 1894 3584 2278 3584 
Q 2916 3584 3314 3078 
Q 3713 2572 3713 1747 
Q 3713 922 3314 415 
Q 2916 -91 2278 -91 
Q 1894 -91 1617 61 
Q 1341 213 1159 525 
L 1159 0 
L 581 0 
L 581 4863 
L 1159 4863 
L 1159 2969 
z
" transform="scale(0.015625)"/>
      <path id="DejaVuSans-6b" d="M 581 4863 
L 1159 4863 
L 1159 1991 
L 2875 3500 
L 3609 3500 
L 1753 1863 
L 3688 0 
L 2938 0 
L 1159 1709 
L 1159 0 
L 581 0 
L 581 4863 
z
" transform="scale(0.015625)"/>
     </defs>
     <use xlink:href="#DejaVuSans-74"/>
     <use xlink:href="#DejaVuSans-68" x="39.208984"/>
     <use xlink:href="#DejaVuSans-72" x="102.587891"/>
     <use xlink:href="#DejaVuSans-65" x="141.451172"/>
     <use xlink:href="#DejaVuSans-65" x="202.974609"/>
     <use xlink:href="#DejaVuSans-20" x="264.498047"/>
     <use xlink:href="#DejaVuSans-69" x="296.285156"/>
     <use xlink:href="#DejaVuSans-6e" x="324.068359"/>
     <use xlink:href="#DejaVuSans-70" x="387.447266"/>
     <use xlink:href="#DejaVuSans-75" x="450.923828"/>
     <use xlink:href="#DejaVuSans-74" x="514.302734"/>
     <use xlink:href="#DejaVuSans-20" x="553.511719"/>
     <use xlink:href="#DejaVuSans-70" x="585.298828"/>
     <use xlink:href="#DejaVuSans-72" x="648.775391"/>
     <use xlink:href="#DejaVuSans-6f" x="687.638672"/>
     <use xlink:href="#DejaVuSans-6a" x="748.820312"/>
     <use xlink:href="#DejaVuSans-65" x="776.603516"/>
     <use xlink:href="#DejaVuSans-63" x="838.126953"/>
     <use xlink:href="#DejaVuSans-74" x="893.107422"/>
     <use xlink:href="#DejaVuSans-69" x="932.316406"/>
     <use xlink:href="#DejaVuSans-6f" x="960.099609"/>
     <use xlink:href="#DejaVuSans-6e" x="1021.28125"/>
     <use xlink:href="#DejaVuSans-73" x="1084.660156"/>
     <use xlink:href="#DejaVuSans-20" x="1136.759766"/>
     <use xlink:href="#DejaVuSans-66" x="1168.546875"/>
     <use xlink:href="#DejaVuSans-65" x="1203.751953"/>
     <use xlink:href="#DejaVuSans-65" x="1265.275391"/>
     <use xlink:href="#DejaVuSans-64" x="1326.798828"/>
     <use xlink:href="#DejaVuSans-20" x="1390.275391"/>
     <use xlink:href="#DejaVuSans-73" x="1422.0625"/>
     <use xlink:href="#DejaVuSans-63" x="1474.162109"/>
     <use xlink:href="#DejaVuSans-61" x="1529.142578"/>
     <use xlink:href="#DejaVuSans-6c" x="1590.421875"/>
     <use xlink:href="#DejaVuSans-65" x="1618.205078"/>
     <use xlink:href="#DejaVuSans-64" x="1679.728516"/>
     <use xlink:href="#DejaVuSans-20" x="1743.205078"/>
     <use xlink:href="#DejaVuSans-64" x="1774.992188"/>
     <use xlink:href="#DejaVuSans-6f" x="1838.46875"/>
     <use xlink:href="#DejaVuSans-74" x="1899.650391"/>
     <use xlink:href="#DejaVuSans-2d" x="1938.859375"/>
     <use xlink:href="#DejaVuSans-70" x="1974.943359"/>
     <use xlink:href="#DejaVuSans-72" x="2038.419922"/>
     <use xlink:href="#DejaVuSans-6f" x="2077.283203"/>
     <use xlink:href="#DejaVuSans-64" x="2138.464844"/>
     <use xlink:href="#DejaVuSans-75" x="2201.941406"/>
     <use xlink:href="#DejaVuSans-63" x="2265.320312"/>
     <use xlink:href="#DejaVuSans-74" x="2320.300781"/>
     <use xlink:href="#DejaVuSans-20" x="2359.509766"/>
     <use xlink:href="#DejaVuSans-61" x="2391.296875"/>
     <use xlink:href="#DejaVuSans-74" x="2452.576172"/>
     <use xlink:href="#DejaVuSans-74" x="2491.785156"/>
     <use xlink:href="#DejaVuSans-65" x="2530.994141"/>
     <use xlink:href="#DejaVuSans-6e" x="2592.517578"/>
     <use xlink:href="#DejaVuSans-74" x="2655.896484"/>
     <use xlink:href="#DejaVuSans-69" x="2695.105469"/>
     <use xlink:href="#DejaVuSans-6f" x="2722.888672"/>
     <use xlink:href="#DejaVuSans-6e" x="2784.070312"/>
     <use xlink:href="#DejaVuSans-3b" x="2847.449219"/>
     <use xlink:href="#DejaVuSans-20" x="2881.140625"/>
     <use xlink:href="#DejaVuSans-61" x="2912.927734"/>
     <use xlink:href="#DejaVuSans-6e" x="2974.207031"/>
     <use xlink:href="#DejaVuSans-20" x="3037.585938"/>
     <use xlink:href="#DejaVuSans-6f" x="3069.373047"/>
     <use xlink:href="#DejaVuSans-75" x="3130.554688"/>
     <use xlink:href="#DejaVuSans-74" x="3193.933594"/>
     <use xlink:href="#DejaVuSans-70" x="3233.142578"/>
     <use xlink:href="#DejaVuSans-75" x="3296.619141"/>
     <use xlink:href="#DejaVuSans-74" x="3359.998047"/>
     <use xlink:href="#DejaVuSans-20" x="3399.207031"/>
     <use xlink:href="#DejaVuSans-70" x="3430.994141"/>
     <use xlink:href="#DejaVuSans-72" x="3494.470703"/>
     <use xlink:href="#DejaVuSans-6f" x="3533.333984"/>
     <use xlink:href="#DejaVuSans-6a" x="3594.515625"/>
     <use xlink:href="#DejaVuSans-65" x="3622.298828"/>
     <use xlink:href="#DejaVuSans-63" x="3683.822266"/>
     <use xlink:href="#DejaVuSans-74" x="3738.802734"/>
     <use xlink:href="#DejaVuSans-69" x="3778.011719"/>
     <use xlink:href="#DejaVuSans-6f" x="3805.794922"/>
     <use xlink:href="#DejaVuSans-6e" x="3866.976562"/>
     <use xlink:href="#DejaVuSans-20" x="3930.355469"/>
     <use xlink:href="#DejaVuSans-77" x="3962.142578"/>
     <use xlink:href="#DejaVuSans-72" x="4043.929688"/>
     <use xlink:href="#DejaVuSans-69" x="4085.042969"/>
     <use xlink:href="#DejaVuSans-74" x="4112.826172"/>
     <use xlink:href="#DejaVuSans-65" x="4152.035156"/>
     <use xlink:href="#DejaVuSans-73" x="4213.558594"/>
     <use xlink:href="#DejaVuSans-20" x="4265.658203"/>
     <use xlink:href="#DejaVuSans-74" x="4297.445312"/>
     <use xlink:href="#DejaVuSans-68" x="4336.654297"/>
     <use xlink:href="#DejaVuSans-65" x="4400.033203"/>
     <use xlink:href="#DejaVuSans-20" x="4461.556641"/>
     <use xlink:href="#DejaVuSans-72" x="4493.34375"/>
     <use xlink:href="#DejaVuSans-65" x="4532.207031"/>
     <use xlink:href="#DejaVuSans-73" x="4593.730469"/>
     <use xlink:href="#DejaVuSans-75" x="4645.830078"/>
     <use xlink:href="#DejaVuSans-6c" x="4709.208984"/>
     <use xlink:href="#DejaVuSans-74" x="4736.992188"/>
     <use xlink:href="#DejaVuSans-20" x="4776.201172"/>
     <use xlink:href="#DejaVuSans-62" x="4807.988281"/>
     <use xlink:href="#DejaVuSans-61" x="4871.464844"/>
     <use xlink:href="#DejaVuSans-63" x="4932.744141"/>
     <use xlink:href="#DejaVuSans-6b" x="4987.724609"/>
    </g>
   </g>
   <g id="patch_3">
    <path d="M 110.888722 189.8457 
Q 140.815401 170.476495 159.364052 141.617133 
" clip-path="url(#pa1d18e0bcb)" style="fill: none; stroke: #94a3b8; stroke-width: 1.2; stroke-linecap: round"/>
    <path d="M 153.59629 145.042468 
L 159.364052 141.617133 
L 158.643663 148.286544 
z
" clip-path="url(#pa1d18e0bcb)" style="fill: #94a3b8; stroke: #94a3b8; stroke-width: 1.2; stroke-linecap: round"/>
   </g>
   <g id="patch_4">
    <path d="M 111.367482 205.584108 
Q 134.859377 199.299636 157.055207 193.361883 
" clip-path="url(#pa1d18e0bcb)" style="fill: none; stroke: #94a3b8; stroke-width: 1.2; stroke-linecap: round"/>
    <path d="M 150.483738 192.014367 
L 157.055207 193.361883 
L 152.034313 197.810548 
z
" clip-path="url(#pa1d18e0bcb)" style="fill: #94a3b8; stroke: #94a3b8; stroke-width: 1.2; stroke-linecap: round"/>
   </g>
   <g id="patch_5">
    <path d="M 111.06734 226.73744 
Q 139.779908 241.896017 158.960969 266.410474 
" clip-path="url(#pa1d18e0bcb)" style="fill: none; stroke: #94a3b8; stroke-width: 1.2; stroke-linecap: round"/>
    <path d="M 157.626327 259.836379 
L 158.960969 266.410474 
L 152.900907 263.53373 
z
" clip-path="url(#pa1d18e0bcb)" style="fill: #94a3b8; stroke: #94a3b8; stroke-width: 1.2; stroke-linecap: round"/>
   </g>
   <g id="patch_6">
    <path d="M 386.531122 205.128962 
Q 386.531122 217.594024 386.531122 228.49384 
" clip-path="url(#pa1d18e0bcb)" style="fill: none; stroke: #64748b; stroke-width: 1.4; stroke-linecap: round"/>
    <path d="M 389.531122 222.49384 
L 386.531122 228.49384 
L 383.531122 222.49384 
z
" clip-path="url(#pa1d18e0bcb)" style="fill: #64748b; stroke: #64748b; stroke-width: 1.4; stroke-linecap: round"/>
   </g>
   <g id="patch_7">
    <path d="M 243.478364 138.474181 
Q 263.572203 146.195931 278.56766 158.857281 
" clip-path="url(#pa1d18e0bcb)" style="fill: none; stroke: #6366f1; stroke-width: 1.7; stroke-linecap: round"/>
    <path d="M 275.918668 152.694259 
L 278.56766 158.857281 
L 272.047847 157.278662 
z
" clip-path="url(#pa1d18e0bcb)" style="fill: #6366f1; stroke: #6366f1; stroke-width: 1.7; stroke-linecap: round"/>
   </g>
   <g id="patch_8">
    <path d="M 243.637882 191.15464 
Q 261.381823 187.407168 277.266128 184.052445 
" clip-path="url(#pa1d18e0bcb)" style="fill: none; stroke: #6366f1; stroke-width: 1.7; stroke-linecap: round"/>
    <path d="M 270.775707 182.357028 
L 277.266128 184.052445 
L 272.015542 188.227531 
z
" clip-path="url(#pa1d18e0bcb)" style="fill: #6366f1; stroke: #6366f1; stroke-width: 1.7; stroke-linecap: round"/>
   </g>
   <g id="patch_9">
    <path d="M 243.720188 270.701818 
Q 261.988324 270.616972 277.472401 265.312413 
" clip-path="url(#pa1d18e0bcb)" style="fill: none; stroke: #10b981; stroke-width: 1.7; stroke-linecap: round"/>
    <path d="M 270.823973 264.418881 
L 277.472401 265.312413 
L 272.768519 270.095037 
z
" clip-path="url(#pa1d18e0bcb)" style="fill: #10b981; stroke: #10b981; stroke-width: 1.7; stroke-linecap: round"/>
   </g>
   <g id="patch_10">
    <path d="M 494.485434 257.84424 
Q 507.581816 257.84424 518.777539 257.84424 
" clip-path="url(#pa1d18e0bcb)" style="fill: none; stroke: #10b981; stroke-width: 1.7; stroke-linecap: round"/>
    <path d="M 512.777539 254.84424 
L 518.777539 257.84424 
L 512.777539 260.84424 
z
" clip-path="url(#pa1d18e0bcb)" style="fill: #10b981; stroke: #10b981; stroke-width: 1.7; stroke-linecap: round"/>
   </g>
   <g id="patch_11">
    <path d="M 606.180018 257.84424 
L 680.20878 257.84424 
Q 700.20878 257.84424 700.20878 237.84424 
L 700.20878 86.650549 
" clip-path="url(#pa1d18e0bcb)" style="fill: none; stroke: #10b981; stroke-width: 1.7; stroke-linecap: round"/>
    <path d="M 697.20878 92.650549 
L 700.20878 86.650549 
L 703.20878 92.650549 
z
" clip-path="url(#pa1d18e0bcb)" style="fill: #10b981; stroke: #10b981; stroke-width: 1.7; stroke-linecap: round"/>
   </g>
   <g id="patch_12">
    <path d="M 66.470488 134.926582 
L 66.470488 83.91512 
Q 66.470488 63.91512 86.470488 63.91512 
L 673.221323 63.91512 
" clip-path="url(#pa1d18e0bcb)" style="fill: none; stroke: #f59e0b; stroke-width: 1.8; stroke-linecap: round"/>
    <path d="M 667.221323 60.91512 
L 673.221323 63.91512 
L 667.221323 66.91512 
z
" clip-path="url(#pa1d18e0bcb)" style="fill: #f59e0b; stroke: #f59e0b; stroke-width: 1.8; stroke-linecap: round"/>
   </g>
   <g id="patch_13">
    <path d="M 725.181571 63.91512 
Q 733.4917 63.91512 740.012974 63.91512 
" clip-path="url(#pa1d18e0bcb)" style="fill: none; stroke: #1e293b; stroke-width: 1.6; stroke-linecap: round"/>
    <path d="M 734.012974 60.91512 
L 740.012974 63.91512 
L 734.012974 66.91512 
z
" clip-path="url(#pa1d18e0bcb)" style="fill: #1e293b; stroke: #1e293b; stroke-width: 1.6; stroke-linecap: round"/>
   </g>
   <g id="text_3">
    <!-- $W_Q,W_K$ form the QK circuit $M=W_Q^{\top}W_K$;  $W_V,W_O$ form the OV circuit $W_{OV}=W_OW_V$  —  $2d(d_k{+}d_v)$ params/head $(=131{,}072$ for $d{=}512,\,d_k{=}d_v{=}64)$ -->
    <g style="fill: #64748b" transform="translate(20.877805 352.585452) scale(0.085 -0.085)">
     <defs>
      <path id="DejaVuSans-Oblique-57" d="M 616 4666 
L 1228 4666 
L 1453 697 
L 3213 4666 
L 3916 4666 
L 4147 697 
L 5888 4666 
L 6528 4666 
L 4453 0 
L 3659 0 
L 3444 3891 
L 1697 0 
L 903 0 
L 616 4666 
z
" transform="scale(0.015625)"/>
      <path id="DejaVuSans-Oblique-51" d="M 2309 -84 
Q 2275 -88 2237 -89 
Q 2200 -91 2125 -91 
Q 1250 -91 756 411 
Q 263 913 263 1797 
Q 263 2319 452 2844 
Q 641 3369 978 3788 
Q 1369 4269 1858 4509 
Q 2347 4750 2938 4750 
Q 3794 4750 4287 4245 
Q 4781 3741 4781 2869 
Q 4781 1928 4265 1147 
Q 3750 366 2919 44 
L 3553 -825 
L 2847 -825 
L 2309 -84 
z
M 2919 4238 
Q 2400 4238 2003 3986 
Q 1606 3734 1313 3219 
Q 1125 2891 1026 2522 
Q 928 2153 928 1778 
Q 928 1128 1239 775 
Q 1550 422 2119 422 
Q 2631 422 3032 676 
Q 3434 931 3719 1434 
Q 3909 1772 4009 2142 
Q 4109 2513 4109 2881 
Q 4109 3528 3796 3883 
Q 3484 4238 2919 4238 
z
" transform="scale(0.015625)"/>
      <path id="DejaVuSans-2c" d="M 750 794 
L 1409 794 
L 1409 256 
L 897 -744 
L 494 -744 
L 750 256 
L 750 794 
z
" transform="scale(0.015625)"/>
      <path id="DejaVuSans-Oblique-4b" d="M 1081 4666 
L 1716 4666 
L 1331 2700 
L 3781 4666 
L 4622 4666 
L 1850 2438 
L 3878 0 
L 3109 0 
L 1247 2272 
L 806 0 
L 172 0 
L 1081 4666 
z
" transform="scale(0.015625)"/>
      <path id="DejaVuSans-6d" d="M 3328 2828 
Q 3544 3216 3844 3400 
Q 4144 3584 4550 3584 
Q 5097 3584 5394 3201 
Q 5691 2819 5691 2113 
L 5691 0 
L 5113 0 
L 5113 2094 
Q 5113 2597 4934 2840 
Q 4756 3084 4391 3084 
Q 3944 3084 3684 2787 
Q 3425 2491 3425 1978 
L 3425 0 
L 2847 0 
L 2847 2094 
Q 2847 2600 2669 2842 
Q 2491 3084 2119 3084 
Q 1678 3084 1418 2786 
Q 1159 2488 1159 1978 
L 1159 0 
L 581 0 
L 581 3500 
L 1159 3500 
L 1159 2956 
Q 1356 3278 1631 3431 
Q 1906 3584 2284 3584 
Q 2666 3584 2933 3390 
Q 3200 3197 3328 2828 
z
" transform="scale(0.015625)"/>
      <path id="DejaVuSans-51" d="M 2522 4238 
Q 1834 4238 1429 3725 
Q 1025 3213 1025 2328 
Q 1025 1447 1429 934 
Q 1834 422 2522 422 
Q 3209 422 3611 934 
Q 4013 1447 4013 2328 
Q 4013 3213 3611 3725 
Q 3209 4238 2522 4238 
z
M 3406 84 
L 4238 -825 
L 3475 -825 
L 2784 -78 
Q 2681 -84 2626 -87 
Q 2572 -91 2522 -91 
Q 1538 -91 948 567 
Q 359 1225 359 2328 
Q 359 3434 948 4092 
Q 1538 4750 2522 4750 
Q 3503 4750 4090 4092 
Q 4678 3434 4678 2328 
Q 4678 1516 4351 937 
Q 4025 359 3406 84 
z
" transform="scale(0.015625)"/>
      <path id="DejaVuSans-4b" d="M 628 4666 
L 1259 4666 
L 1259 2694 
L 3353 4666 
L 4166 4666 
L 1850 2491 
L 4331 0 
L 3500 0 
L 1259 2247 
L 1259 0 
L 628 0 
L 628 4666 
z
" transform="scale(0.015625)"/>
      <path id="DejaVuSans-Oblique-4d" d="M 1081 4666 
L 2028 4666 
L 2572 1522 
L 4378 4666 
L 5350 4666 
L 4441 0 
L 3828 0 
L 4622 4091 
L 2791 897 
L 2175 897 
L 1581 4103 
L 788 0 
L 172 0 
L 1081 4666 
z
" transform="scale(0.015625)"/>
      <path id="DejaVuSans-3d" d="M 678 2906 
L 4684 2906 
L 4684 2381 
L 678 2381 
L 678 2906 
z
M 678 1631 
L 4684 1631 
L 4684 1100 
L 678 1100 
L 678 1631 
z
" transform="scale(0.015625)"/>
      <path id="DejaVuSans-22a4" d="M 5028 4481 
L 5028 4084 
L 2988 4084 
L 2988 0 
L 2588 0 
L 2588 4084 
L 547 4084 
L 547 4481 
L 5028 4481 
z
" transform="scale(0.015625)"/>
      <path id="DejaVuSans-Oblique-56" d="M 1319 0 
L 500 4666 
L 1119 4666 
L 1797 653 
L 4063 4666 
L 4750 4666 
L 2053 0 
L 1319 0 
z
" transform="scale(0.015625)"/>
      <path id="DejaVuSans-Oblique-4f" d="M 2919 4238 
Q 2400 4238 2003 3986 
Q 1606 3734 1313 3219 
Q 1125 2891 1026 2522 
Q 928 2153 928 1778 
Q 928 1128 1239 775 
Q 1550 422 2119 422 
Q 2631 422 3032 676 
Q 3434 931 3719 1434 
Q 3909 1772 4009 2142 
Q 4109 2513 4109 2881 
Q 4109 3528 3796 3883 
Q 3484 4238 2919 4238 
z
M 2100 -91 
Q 1241 -91 748 418 
Q 256 928 256 1813 
Q 256 2319 448 2847 
Q 641 3375 978 3788 
Q 1375 4272 1862 4511 
Q 2350 4750 2938 4750 
Q 3794 4750 4287 4245 
Q 4781 3741 4781 2869 
Q 4781 2331 4593 1812 
Q 4406 1294 4056 872 
Q 3656 384 3173 146 
Q 2691 -91 2100 -91 
z
" transform="scale(0.015625)"/>
      <path id="DejaVuSans-4f" d="M 2522 4238 
Q 1834 4238 1429 3725 
Q 1025 3213 1025 2328 
Q 1025 1447 1429 934 
Q 1834 422 2522 422 
Q 3209 422 3611 934 
Q 4013 1447 4013 2328 
Q 4013 3213 3611 3725 
Q 3209 4238 2522 4238 
z
M 2522 4750 
Q 3503 4750 4090 4092 
Q 4678 3434 4678 2328 
Q 4678 1225 4090 567 
Q 3503 -91 2522 -91 
Q 1538 -91 948 565 
Q 359 1222 359 2328 
Q 359 3434 948 4092 
Q 1538 4750 2522 4750 
z
" transform="scale(0.015625)"/>
      <path id="DejaVuSans-56" d="M 1831 0 
L 50 4666 
L 709 4666 
L 2188 738 
L 3669 4666 
L 4325 4666 
L 2547 0 
L 1831 0 
z
" transform="scale(0.015625)"/>
      <path id="DejaVuSansDisplay-2014" d="M 313 1978 
L 6088 1978 
L 6088 1528 
L 313 1528 
L 313 1978 
z
" transform="scale(0.015625)"/>
      <path id="DejaVuSans-32" d="M 1228 531 
L 3431 531 
L 3431 0 
L 469 0 
L 469 531 
Q 828 903 1448 1529 
Q 2069 2156 2228 2338 
Q 2531 2678 2651 2914 
Q 2772 3150 2772 3378 
Q 2772 3750 2511 3984 
Q 2250 4219 1831 4219 
Q 1534 4219 1204 4116 
Q 875 4013 500 3803 
L 500 4441 
Q 881 4594 1212 4672 
Q 1544 4750 1819 4750 
Q 2544 4750 2975 4387 
Q 3406 4025 3406 3419 
Q 3406 3131 3298 2873 
Q 3191 2616 2906 2266 
Q 2828 2175 2409 1742 
Q 1991 1309 1228 531 
z
" transform="scale(0.015625)"/>
      <path id="DejaVuSans-Oblique-64" d="M 2675 525 
Q 2444 222 2128 65 
Q 1813 -91 1428 -91 
Q 903 -91 598 267 
Q 294 625 294 1247 
Q 294 1766 478 2236 
Q 663 2706 1013 3078 
Q 1244 3325 1534 3454 
Q 1825 3584 2144 3584 
Q 2481 3584 2739 3421 
Q 2997 3259 3138 2956 
L 3513 4863 
L 4091 4863 
L 3144 0 
L 2566 0 
L 2675 525 
z
M 891 1350 
Q 891 897 1095 644 
Q 1300 391 1663 391 
Q 1931 391 2161 520 
Q 2391 650 2566 903 
Q 2750 1166 2856 1509 
Q 2963 1853 2963 2188 
Q 2963 2622 2758 2865 
Q 2553 3109 2194 3109 
Q 1922 3109 1687 2981 
Q 1453 2853 1288 2613 
Q 1106 2353 998 2009 
Q 891 1666 891 1350 
z
" transform="scale(0.015625)"/>
      <path id="DejaVuSans-28" d="M 1984 4856 
Q 1566 4138 1362 3434 
Q 1159 2731 1159 2009 
Q 1159 1288 1364 580 
Q 1569 -128 1984 -844 
L 1484 -844 
Q 1016 -109 783 600 
Q 550 1309 550 2009 
Q 550 2706 781 3412 
Q 1013 4119 1484 4856 
L 1984 4856 
z
" transform="scale(0.015625)"/>
      <path id="DejaVuSans-Oblique-6b" d="M 1172 4863 
L 1747 4863 
L 1197 2028 
L 3169 3500 
L 3916 3500 
L 1716 1825 
L 3322 0 
L 2625 0 
L 1131 1709 
L 800 0 
L 225 0 
L 1172 4863 
z
" transform="scale(0.015625)"/>
      <path id="DejaVuSans-2b" d="M 2944 4013 
L 2944 2272 
L 4684 2272 
L 4684 1741 
L 2944 1741 
L 2944 0 
L 2419 0 
L 2419 1741 
L 678 1741 
L 678 2272 
L 2419 2272 
L 2419 4013 
L 2944 4013 
z
" transform="scale(0.015625)"/>
      <path id="DejaVuSans-Oblique-76" d="M 459 3500 
L 1069 3500 
L 1581 525 
L 3256 3500 
L 3866 3500 
L 1875 0 
L 1100 0 
L 459 3500 
z
" transform="scale(0.015625)"/>
      <path id="DejaVuSans-29" d="M 513 4856 
L 1013 4856 
Q 1481 4119 1714 3412 
Q 1947 2706 1947 2009 
Q 1947 1309 1714 600 
Q 1481 -109 1013 -844 
L 513 -844 
Q 928 -128 1133 580 
Q 1338 1288 1338 2009 
Q 1338 2731 1133 3434 
Q 928 4138 513 4856 
z
" transform="scale(0.015625)"/>
      <path id="DejaVuSans-2f" d="M 1625 4666 
L 2156 4666 
L 531 -594 
L 0 -594 
L 1625 4666 
z
" transform="scale(0.015625)"/>
      <path id="DejaVuSans-31" d="M 794 531 
L 1825 531 
L 1825 4091 
L 703 3866 
L 703 4441 
L 1819 4666 
L 2450 4666 
L 2450 531 
L 3481 531 
L 3481 0 
L 794 0 
L 794 531 
z
" transform="scale(0.015625)"/>
      <path id="DejaVuSans-33" d="M 2597 2516 
Q 3050 2419 3304 2112 
Q 3559 1806 3559 1356 
Q 3559 666 3084 287 
Q 2609 -91 1734 -91 
Q 1441 -91 1130 -33 
Q 819 25 488 141 
L 488 750 
Q 750 597 1062 519 
Q 1375 441 1716 441 
Q 2309 441 2620 675 
Q 2931 909 2931 1356 
Q 2931 1769 2642 2001 
Q 2353 2234 1838 2234 
L 1294 2234 
L 1294 2753 
L 1863 2753 
Q 2328 2753 2575 2939 
Q 2822 3125 2822 3475 
Q 2822 3834 2567 4026 
Q 2313 4219 1838 4219 
Q 1578 4219 1281 4162 
Q 984 4106 628 3988 
L 628 4550 
Q 988 4650 1302 4700 
Q 1616 4750 1894 4750 
Q 2613 4750 3031 4423 
Q 3450 4097 3450 3541 
Q 3450 3153 3228 2886 
Q 3006 2619 2597 2516 
z
" transform="scale(0.015625)"/>
      <path id="DejaVuSans-30" d="M 2034 4250 
Q 1547 4250 1301 3770 
Q 1056 3291 1056 2328 
Q 1056 1369 1301 889 
Q 1547 409 2034 409 
Q 2525 409 2770 889 
Q 3016 1369 3016 2328 
Q 3016 3291 2770 3770 
Q 2525 4250 2034 4250 
z
M 2034 4750 
Q 2819 4750 3233 4129 
Q 3647 3509 3647 2328 
Q 3647 1150 3233 529 
Q 2819 -91 2034 -91 
Q 1250 -91 836 529 
Q 422 1150 422 2328 
Q 422 3509 836 4129 
Q 1250 4750 2034 4750 
z
" transform="scale(0.015625)"/>
      <path id="DejaVuSans-37" d="M 525 4666 
L 3525 4666 
L 3525 4397 
L 1831 0 
L 1172 0 
L 2766 4134 
L 525 4134 
L 525 4666 
z
" transform="scale(0.015625)"/>
      <path id="DejaVuSans-35" d="M 691 4666 
L 3169 4666 
L 3169 4134 
L 1269 4134 
L 1269 2991 
Q 1406 3038 1543 3061 
Q 1681 3084 1819 3084 
Q 2600 3084 3056 2656 
Q 3513 2228 3513 1497 
Q 3513 744 3044 326 
Q 2575 -91 1722 -91 
Q 1428 -91 1123 -41 
Q 819 9 494 109 
L 494 744 
Q 775 591 1075 516 
Q 1375 441 1709 441 
Q 2250 441 2565 725 
Q 2881 1009 2881 1497 
Q 2881 1984 2565 2268 
Q 2250 2553 1709 2553 
Q 1456 2553 1204 2497 
Q 953 2441 691 2322 
L 691 4666 
z
" transform="scale(0.015625)"/>
      <path id="DejaVuSans-36" d="M 2113 2584 
Q 1688 2584 1439 2293 
Q 1191 2003 1191 1497 
Q 1191 994 1439 701 
Q 1688 409 2113 409 
Q 2538 409 2786 701 
Q 3034 994 3034 1497 
Q 3034 2003 2786 2293 
Q 2538 2584 2113 2584 
z
M 3366 4563 
L 3366 3988 
Q 3128 4100 2886 4159 
Q 2644 4219 2406 4219 
Q 1781 4219 1451 3797 
Q 1122 3375 1075 2522 
Q 1259 2794 1537 2939 
Q 1816 3084 2150 3084 
Q 2853 3084 3261 2657 
Q 3669 2231 3669 1497 
Q 3669 778 3244 343 
Q 2819 -91 2113 -91 
Q 1303 -91 875 529 
Q 447 1150 447 2328 
Q 447 3434 972 4092 
Q 1497 4750 2381 4750 
Q 2619 4750 2861 4703 
Q 3103 4656 3366 4563 
z
" transform="scale(0.015625)"/>
      <path id="DejaVuSans-34" d="M 2419 4116 
L 825 1625 
L 2419 1625 
L 2419 4116 
z
M 2253 4666 
L 3047 4666 
L 3047 1625 
L 3713 1625 
L 3713 1100 
L 3047 1100 
L 3047 0 
L 2419 0 
L 2419 1100 
L 313 1100 
L 313 1709 
L 2253 4666 
z
" transform="scale(0.015625)"/>
     </defs>
     <use xlink:href="#DejaVuSans-Oblique-57" transform="translate(0 0.707813)"/>
     <use xlink:href="#DejaVuSans-Oblique-51" transform="translate(98.876953 -15.698437) scale(0.7)"/>
     <use xlink:href="#DejaVuSans-2c" transform="translate(156.708984 0.707813)"/>
     <use xlink:href="#DejaVuSans-Oblique-57" transform="translate(207.978516 0.707813)"/>
     <use xlink:href="#DejaVuSans-Oblique-4b" transform="translate(306.855469 -15.698437) scale(0.7)"/>
     <use xlink:href="#DejaVuSans-20" transform="translate(355.493164 0.707813)"/>
     <use xlink:href="#DejaVuSans-66" transform="translate(387.280273 0.707813)"/>
     <use xlink:href="#DejaVuSans-6f" transform="translate(422.485352 0.707813)"/>
     <use xlink:href="#DejaVuSans-72" transform="translate(483.666992 0.707813)"/>
     <use xlink:href="#DejaVuSans-6d" transform="translate(524.780273 0.707813)"/>
     <use xlink:href="#DejaVuSans-20" transform="translate(622.192383 0.707813)"/>
     <use xlink:href="#DejaVuSans-74" transform="translate(653.979492 0.707813)"/>
     <use xlink:href="#DejaVuSans-68" transform="translate(693.188477 0.707813)"/>
     <use xlink:href="#DejaVuSans-65" transform="translate(756.567383 0.707813)"/>
     <use xlink:href="#DejaVuSans-20" transform="translate(818.09082 0.707813)"/>
     <use xlink:href="#DejaVuSans-51" transform="translate(849.87793 0.707813)"/>
     <use xlink:href="#DejaVuSans-4b" transform="translate(928.588867 0.707813)"/>
     <use xlink:href="#DejaVuSans-20" transform="translate(994.165039 0.707813)"/>
     <use xlink:href="#DejaVuSans-63" transform="translate(1025.952148 0.707813)"/>
     <use xlink:href="#DejaVuSans-69" transform="translate(1080.932617 0.707813)"/>
     <use xlink:href="#DejaVuSans-72" transform="translate(1108.71582 0.707813)"/>
     <use xlink:href="#DejaVuSans-63" transform="translate(1149.829102 0.707813)"/>
     <use xlink:href="#DejaVuSans-75" transform="translate(1204.80957 0.707813)"/>
     <use xlink:href="#DejaVuSans-69" transform="translate(1268.188477 0.707813)"/>
     <use xlink:href="#DejaVuSans-74" transform="translate(1295.97168 0.707813)"/>
     <use xlink:href="#DejaVuSans-20" transform="translate(1335.180664 0.707813)"/>
     <use xlink:href="#DejaVuSans-Oblique-4d" transform="translate(1366.967773 0.707813)"/>
     <use xlink:href="#DejaVuSans-3d" transform="translate(1472.729492 0.707813)"/>
     <use xlink:href="#DejaVuSans-Oblique-57" transform="translate(1576.000977 0.707813)"/>
     <use xlink:href="#DejaVuSans-22a4" transform="translate(1695.532396 38.989063) scale(0.7)"/>
     <use xlink:href="#DejaVuSans-Oblique-51" transform="translate(1674.87793 -26.635937) scale(0.7)"/>
     <use xlink:href="#DejaVuSans-Oblique-57" transform="translate(1772.881029 0.707813)"/>
     <use xlink:href="#DejaVuSans-Oblique-4b" transform="translate(1871.757982 -15.698437) scale(0.7)"/>
     <use xlink:href="#DejaVuSans-3b" transform="translate(1920.395677 0.707813)"/>
     <use xlink:href="#DejaVuSans-20" transform="translate(1954.087083 0.707813)"/>
     <use xlink:href="#DejaVuSans-20" transform="translate(1985.874193 0.707813)"/>
     <use xlink:href="#DejaVuSans-Oblique-57" transform="translate(2017.661302 0.707813)"/>
     <use xlink:href="#DejaVuSans-Oblique-56" transform="translate(2116.538255 -15.698437) scale(0.7)"/>
     <use xlink:href="#DejaVuSans-2c" transform="translate(2167.158372 0.707813)"/>
     <use xlink:href="#DejaVuSans-Oblique-57" transform="translate(2218.427904 0.707813)"/>
     <use xlink:href="#DejaVuSans-Oblique-4f" transform="translate(2317.304857 -15.698437) scale(0.7)"/>
     <use xlink:href="#DejaVuSans-20" transform="translate(2375.136888 0.707813)"/>
     <use xlink:href="#DejaVuSans-66" transform="translate(2406.923997 0.707813)"/>
     <use xlink:href="#DejaVuSans-6f" transform="translate(2442.129076 0.707813)"/>
     <use xlink:href="#DejaVuSans-72" transform="translate(2503.310716 0.707813)"/>
     <use xlink:href="#DejaVuSans-6d" transform="translate(2544.423997 0.707813)"/>
     <use xlink:href="#DejaVuSans-20" transform="translate(2641.836107 0.707813)"/>
     <use xlink:href="#DejaVuSans-74" transform="translate(2673.623216 0.707813)"/>
     <use xlink:href="#DejaVuSans-68" transform="translate(2712.832201 0.707813)"/>
     <use xlink:href="#DejaVuSans-65" transform="translate(2776.211107 0.707813)"/>
     <use xlink:href="#DejaVuSans-20" transform="translate(2837.734544 0.707813)"/>
     <use xlink:href="#DejaVuSans-4f" transform="translate(2869.521654 0.707813)"/>
     <use xlink:href="#DejaVuSans-56" transform="translate(2948.232591 0.707813)"/>
     <use xlink:href="#DejaVuSans-20" transform="translate(3016.640794 0.707813)"/>
     <use xlink:href="#DejaVuSans-63" transform="translate(3048.427904 0.707813)"/>
     <use xlink:href="#DejaVuSans-69" transform="translate(3103.408372 0.707813)"/>
     <use xlink:href="#DejaVuSans-72" transform="translate(3131.191576 0.707813)"/>
     <use xlink:href="#DejaVuSans-63" transform="translate(3172.304857 0.707813)"/>
     <use xlink:href="#DejaVuSans-75" transform="translate(3227.285326 0.707813)"/>
     <use xlink:href="#DejaVuSans-69" transform="translate(3290.664232 0.707813)"/>
     <use xlink:href="#DejaVuSans-74" transform="translate(3318.447435 0.707813)"/>
     <use xlink:href="#DejaVuSans-20" transform="translate(3357.656419 0.707813)"/>
     <use xlink:href="#DejaVuSans-Oblique-57" transform="translate(3389.443529 0.707813)"/>
     <use xlink:href="#DejaVuSans-Oblique-4f" transform="translate(3488.320482 -15.698437) scale(0.7)"/>
     <use xlink:href="#DejaVuSans-Oblique-56" transform="translate(3543.418138 -15.698437) scale(0.7)"/>
     <use xlink:href="#DejaVuSans-3d" transform="translate(3613.520677 0.707813)"/>
     <use xlink:href="#DejaVuSans-Oblique-57" transform="translate(3716.792161 0.707813)"/>
     <use xlink:href="#DejaVuSans-Oblique-4f" transform="translate(3815.669115 -15.698437) scale(0.7)"/>
     <use xlink:href="#DejaVuSans-Oblique-57" transform="translate(3873.501146 0.707813)"/>
     <use xlink:href="#DejaVuSans-Oblique-56" transform="translate(3972.378099 -15.698437) scale(0.7)"/>
     <use xlink:href="#DejaVuSans-20" transform="translate(4022.998216 0.707813)"/>
     <use xlink:href="#DejaVuSans-20" transform="translate(4054.785326 0.707813)"/>
     <use xlink:href="#DejaVuSansDisplay-2014" transform="translate(4086.572435 0.707813)"/>
     <use xlink:href="#DejaVuSans-20" transform="translate(4186.572435 0.707813)"/>
     <use xlink:href="#DejaVuSans-20" transform="translate(4218.359544 0.707813)"/>
     <use xlink:href="#DejaVuSans-32" transform="translate(4250.146654 0.707813)"/>
     <use xlink:href="#DejaVuSans-Oblique-64" transform="translate(4313.769701 0.707813)"/>
     <use xlink:href="#DejaVuSans-28" transform="translate(4377.246263 0.707813)"/>
     <use xlink:href="#DejaVuSans-Oblique-64" transform="translate(4416.259935 0.707813)"/>
     <use xlink:href="#DejaVuSans-Oblique-6b" transform="translate(4479.736497 -15.698437) scale(0.7)"/>
     <use xlink:href="#DejaVuSans-2b" transform="translate(4523.007982 0.707813)"/>
     <use xlink:href="#DejaVuSans-Oblique-64" transform="translate(4606.797044 0.707813)"/>
     <use xlink:href="#DejaVuSans-Oblique-76" transform="translate(4670.273607 -15.698437) scale(0.7)"/>
     <use xlink:href="#DejaVuSans-29" transform="translate(4714.433763 0.707813)"/>
     <use xlink:href="#DejaVuSans-20" transform="translate(4753.447435 0.707813)"/>
     <use xlink:href="#DejaVuSans-70" transform="translate(4785.234544 0.707813)"/>
     <use xlink:href="#DejaVuSans-61" transform="translate(4848.711107 0.707813)"/>
     <use xlink:href="#DejaVuSans-72" transform="translate(4909.990404 0.707813)"/>
     <use xlink:href="#DejaVuSans-61" transform="translate(4951.103685 0.707813)"/>
     <use xlink:href="#DejaVuSans-6d" transform="translate(5012.382982 0.707813)"/>
     <use xlink:href="#DejaVuSans-73" transform="translate(5109.795091 0.707813)"/>
     <use xlink:href="#DejaVuSans-2f" transform="translate(5161.894701 0.707813)"/>
     <use xlink:href="#DejaVuSans-68" transform="translate(5195.586107 0.707813)"/>
     <use xlink:href="#DejaVuSans-65" transform="translate(5258.965013 0.707813)"/>
     <use xlink:href="#DejaVuSans-61" transform="translate(5320.488451 0.707813)"/>
     <use xlink:href="#DejaVuSans-64" transform="translate(5381.767747 0.707813)"/>
     <use xlink:href="#DejaVuSans-20" transform="translate(5445.24431 0.707813)"/>
     <use xlink:href="#DejaVuSans-28" transform="translate(5477.031419 0.707813)"/>
     <use xlink:href="#DejaVuSans-3d" transform="translate(5535.527513 0.707813)"/>
     <use xlink:href="#DejaVuSans-31" transform="translate(5638.798997 0.707813)"/>
     <use xlink:href="#DejaVuSans-33" transform="translate(5702.422044 0.707813)"/>
     <use xlink:href="#DejaVuSans-31" transform="translate(5766.045091 0.707813)"/>
     <use xlink:href="#DejaVuSans-2c" transform="translate(5829.668138 0.707813)"/>
     <use xlink:href="#DejaVuSans-30" transform="translate(5861.455247 0.707813)"/>
     <use xlink:href="#DejaVuSans-37" transform="translate(5925.078294 0.707813)"/>
     <use xlink:href="#DejaVuSans-32" transform="translate(5988.701341 0.707813)"/>
     <use xlink:href="#DejaVuSans-20" transform="translate(6052.324388 0.707813)"/>
     <use xlink:href="#DejaVuSans-66" transform="translate(6084.111497 0.707813)"/>
     <use xlink:href="#DejaVuSans-6f" transform="translate(6119.316576 0.707813)"/>
     <use xlink:href="#DejaVuSans-72" transform="translate(6180.498216 0.707813)"/>
     <use xlink:href="#DejaVuSans-20" transform="translate(6221.611497 0.707813)"/>
     <use xlink:href="#DejaVuSans-Oblique-64" transform="translate(6253.398607 0.707813)"/>
     <use xlink:href="#DejaVuSans-3d" transform="translate(6336.357591 0.707813)"/>
     <use xlink:href="#DejaVuSans-35" transform="translate(6439.629076 0.707813)"/>
     <use xlink:href="#DejaVuSans-31" transform="translate(6503.252122 0.707813)"/>
     <use xlink:href="#DejaVuSans-32" transform="translate(6566.875169 0.707813)"/>
     <use xlink:href="#DejaVuSans-2c" transform="translate(6630.498216 0.707813)"/>
     <use xlink:href="#DejaVuSans-Oblique-64" transform="translate(6698.003424 0.707813)"/>
     <use xlink:href="#DejaVuSans-Oblique-6b" transform="translate(6761.479986 -15.698437) scale(0.7)"/>
     <use xlink:href="#DejaVuSans-3d" transform="translate(6824.233892 0.707813)"/>
     <use xlink:href="#DejaVuSans-Oblique-64" transform="translate(6927.505377 0.707813)"/>
     <use xlink:href="#DejaVuSans-Oblique-76" transform="translate(6990.981939 -15.698437) scale(0.7)"/>
     <use xlink:href="#DejaVuSans-3d" transform="translate(7054.624517 0.707813)"/>
     <use xlink:href="#DejaVuSans-36" transform="translate(7157.896002 0.707813)"/>
     <use xlink:href="#DejaVuSans-34" transform="translate(7221.519049 0.707813)"/>
     <use xlink:href="#DejaVuSans-29" transform="translate(7285.142096 0.707813)"/>
    </g>
   </g>
   <g id="patch_14">
    <path d="M 33.508195 283.130288 
L 104.63278 283.130288 
Q 111.015756 283.130288 111.015756 278.007632 
L 111.015756 147.745808 
Q 111.015756 142.623152 104.63278 142.623152 
L 33.508195 142.623152 
Q 27.12522 142.623152 27.12522 147.745808 
L 27.12522 278.007632 
Q 27.12522 283.130288 33.508195 283.130288 
z
" clip-path="url(#pa1d18e0bcb)" style="fill: #94a3b8; opacity: 0.3"/>
    <path d="M 30.908195 280.530288 
L 102.03278 280.530288 
Q 108.415756 280.530288 108.415756 275.407632 
L 108.415756 145.145808 
Q 108.415756 140.023152 102.03278 140.023152 
L 30.908195 140.023152 
Q 24.52522 140.023152 24.52522 145.145808 
L 24.52522 275.407632 
Q 24.52522 280.530288 30.908195 280.530288 
z
" clip-path="url(#pa1d18e0bcb)" style="fill: #eef2ff; stroke: #a5b4fc; stroke-width: 1.7; stroke-linejoin: miter"/>
   </g>
   <g id="patch_15">
    <path d="M 170.286244 158.722928 
L 236.851561 158.722928 
Q 243.234537 158.722928 243.234537 153.600272 
L 243.234537 125.791568 
Q 243.234537 120.668912 236.851561 120.668912 
L 170.286244 120.668912 
Q 163.903268 120.668912 163.903268 125.791568 
L 163.903268 153.600272 
Q 163.903268 158.722928 170.286244 158.722928 
z
" clip-path="url(#pa1d18e0bcb)" style="fill: #94a3b8; opacity: 0.3"/>
    <path d="M 167.686244 156.122928 
L 234.251561 156.122928 
Q 240.634537 156.122928 240.634537 151.000272 
L 240.634537 123.191568 
Q 240.634537 118.068912 234.251561 118.068912 
L 167.686244 118.068912 
Q 161.303268 118.068912 161.303268 123.191568 
L 161.303268 151.000272 
Q 161.303268 156.122928 167.686244 156.122928 
z
" clip-path="url(#pa1d18e0bcb)" style="fill: #ffffff; stroke: #6366f1; stroke-width: 1.7; stroke-linejoin: miter"/>
   </g>
   <g id="patch_16">
    <path d="M 170.286244 213.608528 
L 236.851561 213.608528 
Q 243.234537 213.608528 243.234537 208.485872 
L 243.234537 180.677168 
Q 243.234537 175.554512 236.851561 175.554512 
L 170.286244 175.554512 
Q 163.903268 175.554512 163.903268 180.677168 
L 163.903268 208.485872 
Q 163.903268 213.608528 170.286244 213.608528 
z
" clip-path="url(#pa1d18e0bcb)" style="fill: #94a3b8; opacity: 0.3"/>
    <path d="M 167.686244 211.008528 
L 234.251561 211.008528 
Q 240.634537 211.008528 240.634537 205.885872 
L 240.634537 178.077168 
Q 240.634537 172.954512 234.251561 172.954512 
L 167.686244 172.954512 
Q 161.303268 172.954512 161.303268 178.077168 
L 161.303268 205.885872 
Q 161.303268 211.008528 167.686244 211.008528 
z
" clip-path="url(#pa1d18e0bcb)" style="fill: #ffffff; stroke: #6366f1; stroke-width: 1.7; stroke-linejoin: miter"/>
   </g>
   <g id="patch_17">
    <path d="M 170.286244 292.277888 
L 236.851561 292.277888 
Q 243.234537 292.277888 243.234537 287.155232 
L 243.234537 259.346528 
Q 243.234537 254.223872 236.851561 254.223872 
L 170.286244 254.223872 
Q 163.903268 254.223872 163.903268 259.346528 
L 163.903268 287.155232 
Q 163.903268 292.277888 170.286244 292.277888 
z
" clip-path="url(#pa1d18e0bcb)" style="fill: #94a3b8; opacity: 0.3"/>
    <path d="M 167.686244 289.677888 
L 234.251561 289.677888 
Q 240.634537 289.677888 240.634537 284.555232 
L 240.634537 256.746528 
Q 240.634537 251.623872 234.251561 251.623872 
L 167.686244 251.623872 
Q 161.303268 251.623872 161.303268 256.746528 
L 161.303268 284.555232 
Q 161.303268 289.677888 167.686244 289.677888 
z
" clip-path="url(#pa1d18e0bcb)" style="fill: #ffffff; stroke: #10b981; stroke-width: 1.7; stroke-linejoin: miter"/>
   </g>
   <g id="patch_18">
    <path d="M 303.324476 201.860928 
L 469.737768 201.860928 
Q 475.20889 201.860928 475.20889 197.47008 
L 475.20889 157.22064 
Q 475.20889 152.829792 469.737768 152.829792 
L 303.324476 152.829792 
Q 297.853354 152.829792 297.853354 157.22064 
L 297.853354 197.47008 
Q 297.853354 201.860928 303.324476 201.860928 
z
" clip-path="url(#pa1d18e0bcb)" style="fill: #ffffff; stroke: #6366f1; stroke-width: 1.2; stroke-linejoin: miter"/>
   </g>
   <g id="patch_19">
    <path d="M 303.324476 282.359808 
L 469.737768 282.359808 
Q 475.20889 282.359808 475.20889 277.96896 
L 475.20889 237.71952 
Q 475.20889 233.328672 469.737768 233.328672 
L 303.324476 233.328672 
Q 297.853354 233.328672 297.853354 237.71952 
L 297.853354 277.96896 
Q 297.853354 282.359808 303.324476 282.359808 
z
" clip-path="url(#pa1d18e0bcb)" style="fill: #ffffff; stroke: #10b981; stroke-width: 1.2; stroke-linejoin: miter"/>
   </g>
   <g id="patch_20">
    <path d="M 532.748073 281.300768 
L 599.31339 281.300768 
Q 605.696366 281.300768 605.696366 276.178112 
L 605.696366 244.710368 
Q 605.696366 239.587712 599.31339 239.587712 
L 532.748073 239.587712 
Q 526.365098 239.587712 526.365098 244.710368 
L 526.365098 276.178112 
Q 526.365098 281.300768 532.748073 281.300768 
z
" clip-path="url(#pa1d18e0bcb)" style="fill: #94a3b8; opacity: 0.3"/>
    <path d="M 530.148073 278.700768 
L 596.71339 278.700768 
Q 603.096366 278.700768 603.096366 273.578112 
L 603.096366 242.110368 
Q 603.096366 236.987712 596.71339 236.987712 
L 530.148073 236.987712 
Q 523.765098 236.987712 523.765098 242.110368 
L 523.765098 273.578112 
Q 523.765098 278.700768 530.148073 278.700768 
z
" clip-path="url(#pa1d18e0bcb)" style="fill: #ffffff; stroke: #10b981; stroke-width: 1.7; stroke-linejoin: miter"/>
   </g>
   <g id="text_4">
    <!-- $W_Q$ -->
    <g style="fill: #4338ca" transform="translate(191.548902 134.061456) scale(0.12 -0.12)">
     <use xlink:href="#DejaVuSans-Oblique-57" transform="translate(0 0.09375)"/>
     <use xlink:href="#DejaVuSans-Oblique-51" transform="translate(98.876953 -16.3125) scale(0.7)"/>
    </g>
   </g>
   <g id="text_5">
    <!-- $\mathbb{R}^{d_k\times d}$ -->
    <g style="fill: #64748b" transform="translate(189.648902 149.182828) scale(0.08 -0.08)">
     <defs>
      <path id="STIXGeneral-Italic-211d" d="M 1229 4179 
L 3360 4179 
Q 3827 4179 4108 3894 
Q 4390 3610 4390 3142 
Q 4390 2554 4060 2186 
Q 3731 1818 3149 1715 
L 4026 0 
L 2925 0 
L 2125 1690 
L 1549 1690 
L 1094 0 
L 109 0 
L 1229 4179 
z
M 3866 3821 
L 3392 2022 
Q 3770 2144 3962 2438 
Q 4154 2733 4154 3136 
Q 4154 3584 3866 3821 
z
M 3142 1978 
L 3648 3872 
Q 3450 3942 3296 3942 
L 2150 3942 
L 1613 1926 
L 2630 1926 
Q 2957 1926 3142 1978 
z
M 3629 237 
L 2899 1696 
Q 2829 1683 2682 1683 
Q 2630 1683 2531 1686 
Q 2432 1690 2387 1690 
L 3072 237 
L 3629 237 
z
M 1907 3942 
L 1408 3942 
L 416 237 
L 915 237 
L 1907 3942 
z
" transform="scale(0.015625)"/>
      <path id="DejaVuSans-d7" d="M 4488 3438 
L 3059 2003 
L 4488 575 
L 4116 197 
L 2681 1631 
L 1247 197 
L 878 575 
L 2303 2003 
L 878 3438 
L 1247 3816 
L 2681 2381 
L 4116 3816 
L 4488 3438 
z
" transform="scale(0.015625)"/>
     </defs>
     <use xlink:href="#STIXGeneral-Italic-211d" transform="translate(0 0.529687)"/>
     <use xlink:href="#DejaVuSans-Oblique-64" transform="translate(74.65144 38.810937) scale(0.7)"/>
     <use xlink:href="#DejaVuSans-Oblique-6b" transform="translate(119.085034 27.326562) scale(0.49)"/>
     <use xlink:href="#DejaVuSans-d7" transform="translate(163.012768 38.810937) scale(0.7)"/>
     <use xlink:href="#DejaVuSans-Oblique-64" transform="translate(235.302807 38.810937) scale(0.7)"/>
    </g>
   </g>
   <g id="text_6">
    <!-- $W_K$ -->
    <g style="fill: #4338ca" transform="translate(192.088902 189.438306) scale(0.12 -0.12)">
     <use xlink:href="#DejaVuSans-Oblique-57" transform="translate(0 0.09375)"/>
     <use xlink:href="#DejaVuSans-Oblique-4b" transform="translate(98.876953 -16.3125) scale(0.7)"/>
    </g>
   </g>
   <g id="text_7">
    <!-- $\mathbb{R}^{d_k\times d}$ -->
    <g style="fill: #64748b" transform="translate(189.648902 204.068428) scale(0.08 -0.08)">
     <use xlink:href="#STIXGeneral-Italic-211d" transform="translate(0 0.529687)"/>
     <use xlink:href="#DejaVuSans-Oblique-64" transform="translate(74.65144 38.810937) scale(0.7)"/>
     <use xlink:href="#DejaVuSans-Oblique-6b" transform="translate(119.085034 27.326562) scale(0.49)"/>
     <use xlink:href="#DejaVuSans-d7" transform="translate(163.012768 38.810937) scale(0.7)"/>
     <use xlink:href="#DejaVuSans-Oblique-64" transform="translate(235.302807 38.810937) scale(0.7)"/>
    </g>
   </g>
   <g id="text_8">
    <!-- $W_V$ -->
    <g style="fill: #047857" transform="translate(191.968902 268.107666) scale(0.12 -0.12)">
     <use xlink:href="#DejaVuSans-Oblique-57" transform="translate(0 0.09375)"/>
     <use xlink:href="#DejaVuSans-Oblique-56" transform="translate(98.876953 -16.3125) scale(0.7)"/>
    </g>
   </g>
   <g id="text_9">
    <!-- $\mathbb{R}^{d_v\times d}$ -->
    <g style="fill: #64748b" transform="translate(189.608902 282.737788) scale(0.08 -0.08)">
     <use xlink:href="#STIXGeneral-Italic-211d" transform="translate(0 0.529687)"/>
     <use xlink:href="#DejaVuSans-Oblique-64" transform="translate(74.65144 38.810937) scale(0.7)"/>
     <use xlink:href="#DejaVuSans-Oblique-76" transform="translate(119.085034 27.326562) scale(0.49)"/>
     <use xlink:href="#DejaVuSans-d7" transform="translate(163.634838 38.810937) scale(0.7)"/>
     <use xlink:href="#DejaVuSans-Oblique-64" transform="translate(235.924878 38.810937) scale(0.7)"/>
    </g>
   </g>
   <g id="text_10">
    <!-- scaled dot-product attention -->
    <g style="fill: #1e293b" transform="translate(303.774856 125.021088) scale(0.102 -0.102)">
     <defs>
      <path id="DejaVuSans-Bold-63" d="M 3366 3391 
L 3366 2478 
Q 3138 2634 2908 2709 
Q 2678 2784 2431 2784 
Q 1963 2784 1702 2511 
Q 1441 2238 1441 1747 
Q 1441 1256 1702 982 
Q 1963 709 2431 709 
Q 2694 709 2930 787 
Q 3166 866 3366 1019 
L 3366 103 
Q 3103 6 2833 -42 
Q 2563 -91 2291 -91 
Q 1344 -91 809 395 
Q 275 881 275 1747 
Q 275 2613 809 3098 
Q 1344 3584 2291 3584 
Q 2566 3584 2833 3536 
Q 3100 3488 3366 3391 
z
" transform="scale(0.015625)"/>
      <path id="DejaVuSans-Bold-6c" d="M 538 4863 
L 1656 4863 
L 1656 0 
L 538 0 
L 538 4863 
z
" transform="scale(0.015625)"/>
      <path id="DejaVuSans-Bold-2d" d="M 347 2297 
L 2309 2297 
L 2309 1388 
L 347 1388 
L 347 2297 
z
" transform="scale(0.015625)"/>
      <path id="DejaVuSans-Bold-75" d="M 500 1363 
L 500 3500 
L 1625 3500 
L 1625 3150 
Q 1625 2866 1622 2436 
Q 1619 2006 1619 1863 
Q 1619 1441 1641 1255 
Q 1663 1069 1716 984 
Q 1784 875 1895 815 
Q 2006 756 2150 756 
Q 2500 756 2700 1025 
Q 2900 1294 2900 1772 
L 2900 3500 
L 4019 3500 
L 4019 0 
L 2900 0 
L 2900 506 
Q 2647 200 2364 54 
Q 2081 -91 1741 -91 
Q 1134 -91 817 281 
Q 500 653 500 1363 
z
" transform="scale(0.015625)"/>
     </defs>
     <use xlink:href="#DejaVuSans-Bold-73"/>
     <use xlink:href="#DejaVuSans-Bold-63" x="59.521484"/>
     <use xlink:href="#DejaVuSans-Bold-61" x="118.798828"/>
     <use xlink:href="#DejaVuSans-Bold-6c" x="186.279297"/>
     <use xlink:href="#DejaVuSans-Bold-65" x="220.556641"/>
     <use xlink:href="#DejaVuSans-Bold-64" x="288.378906"/>
     <use xlink:href="#DejaVuSans-Bold-20" x="359.960938"/>
     <use xlink:href="#DejaVuSans-Bold-64" x="394.775391"/>
     <use xlink:href="#DejaVuSans-Bold-6f" x="466.357422"/>
     <use xlink:href="#DejaVuSans-Bold-74" x="535.058594"/>
     <use xlink:href="#DejaVuSans-Bold-2d" x="582.861328"/>
     <use xlink:href="#DejaVuSans-Bold-70" x="624.365234"/>
     <use xlink:href="#DejaVuSans-Bold-72" x="695.947266"/>
     <use xlink:href="#DejaVuSans-Bold-6f" x="745.263672"/>
     <use xlink:href="#DejaVuSans-Bold-64" x="813.964844"/>
     <use xlink:href="#DejaVuSans-Bold-75" x="885.546875"/>
     <use xlink:href="#DejaVuSans-Bold-63" x="956.738281"/>
     <use xlink:href="#DejaVuSans-Bold-74" x="1016.015625"/>
     <use xlink:href="#DejaVuSans-Bold-20" x="1063.818359"/>
     <use xlink:href="#DejaVuSans-Bold-61" x="1098.632812"/>
     <use xlink:href="#DejaVuSans-Bold-74" x="1166.113281"/>
     <use xlink:href="#DejaVuSans-Bold-74" x="1213.916016"/>
     <use xlink:href="#DejaVuSans-Bold-65" x="1261.71875"/>
     <use xlink:href="#DejaVuSans-Bold-6e" x="1329.541016"/>
     <use xlink:href="#DejaVuSans-Bold-74" x="1400.732422"/>
     <use xlink:href="#DejaVuSans-Bold-69" x="1448.535156"/>
     <use xlink:href="#DejaVuSans-Bold-6f" x="1482.8125"/>
     <use xlink:href="#DejaVuSans-Bold-6e" x="1551.513672"/>
    </g>
   </g>
   <g id="text_11">
    <!-- $a_{ij}=\mathrm{softmax}_{j\leq i}\left(\mathbf{q}_i^{\top}\mathbf{k}_j/\sqrt{d_k}\right)$ -->
    <g style="fill: #1e293b" transform="translate(316.023622 171.238006) scale(0.105 -0.105)">
     <defs>
      <path id="DejaVuSans-Oblique-61" d="M 3438 1997 
L 3047 0 
L 2472 0 
L 2578 531 
Q 2325 219 2001 64 
Q 1678 -91 1281 -91 
Q 834 -91 548 182 
Q 263 456 263 884 
Q 263 1497 752 1853 
Q 1241 2209 2100 2209 
L 2900 2209 
L 2931 2363 
Q 2938 2388 2941 2417 
Q 2944 2447 2944 2509 
Q 2944 2788 2717 2942 
Q 2491 3097 2081 3097 
Q 1800 3097 1504 3025 
Q 1209 2953 897 2809 
L 997 3341 
Q 1322 3463 1633 3523 
Q 1944 3584 2234 3584 
Q 2853 3584 3176 3315 
Q 3500 3047 3500 2534 
Q 3500 2431 3484 2292 
Q 3469 2153 3438 1997 
z
M 2816 1759 
L 2241 1759 
Q 1534 1759 1195 1570 
Q 856 1381 856 984 
Q 856 709 1029 553 
Q 1203 397 1509 397 
Q 1978 397 2328 733 
Q 2678 1069 2791 1631 
L 2816 1759 
z
" transform="scale(0.015625)"/>
      <path id="DejaVuSans-Oblique-69" d="M 1172 4863 
L 1747 4863 
L 1606 4134 
L 1031 4134 
L 1172 4863 
z
M 909 3500 
L 1484 3500 
L 800 0 
L 225 0 
L 909 3500 
z
" transform="scale(0.015625)"/>
      <path id="DejaVuSans-Oblique-6a" d="M 928 3500 
L 1503 3500 
L 813 -63 
L 809 -78 
Q 694 -675 544 -897 
Q 403 -1106 132 -1218 
Q -138 -1331 -506 -1331 
L -722 -1331 
L -628 -844 
L -481 -844 
Q -144 -844 -1 -703 
Q 141 -563 238 -63 
L 928 3500 
z
M 1197 4863 
L 1772 4863 
L 1631 4134 
L 1056 4134 
L 1197 4863 
z
" transform="scale(0.015625)"/>
      <path id="DejaVuSans-78" d="M 3513 3500 
L 2247 1797 
L 3578 0 
L 2900 0 
L 1881 1375 
L 863 0 
L 184 0 
L 1544 1831 
L 300 3500 
L 978 3500 
L 1906 2253 
L 2834 3500 
L 3513 3500 
z
" transform="scale(0.015625)"/>
      <path id="DejaVuSans-2264" d="M 4684 3175 
L 1684 2309 
L 4684 1453 
L 4684 897 
L 678 2047 
L 678 2578 
L 4684 3725 
L 4684 3175 
z
M 678 531 
L 4684 531 
L 4684 0 
L 678 0 
L 678 531 
z
" transform="scale(0.015625)"/>
      <path id="STIXSizeTwoSym-Regular-28" d="M 3219 -1555 
L 3219 -1786 
Q 2144 -774 1517 730 
Q 890 2234 890 4115 
Q 890 6003 1533 7593 
Q 2176 9184 3219 10022 
L 3219 9811 
Q 2490 9062 1994 7606 
Q 1498 6150 1498 4115 
Q 1498 563 3219 -1555 
z
" transform="scale(0.015625)"/>
      <path id="DejaVuSans-Bold-71" d="M 2181 2772 
Q 1825 2772 1636 2509 
Q 1447 2247 1447 1747 
Q 1447 1247 1636 984 
Q 1825 722 2181 722 
Q 2541 722 2730 984 
Q 2919 1247 2919 1747 
Q 2919 2247 2730 2509 
Q 2541 2772 2181 2772 
z
M 2919 506 
Q 2688 197 2409 53 
Q 2131 -91 1766 -91 
Q 1119 -91 703 423 
Q 288 938 288 1747 
Q 288 2556 703 3067 
Q 1119 3578 1766 3578 
Q 2131 3578 2409 3434 
Q 2688 3291 2919 2981 
L 2919 3500 
L 4044 3500 
L 4044 -1331 
L 2919 -1331 
L 2919 506 
z
" transform="scale(0.015625)"/>
      <path id="DejaVuSans-Bold-6b" d="M 538 4863 
L 1656 4863 
L 1656 2216 
L 2944 3500 
L 4244 3500 
L 2534 1894 
L 4378 0 
L 3022 0 
L 1656 1459 
L 1656 0 
L 538 0 
L 538 4863 
z
" transform="scale(0.015625)"/>
      <path id="STIXSizeOneSym-Regular-221a" d="M 6970 9933 
L 3373 -1888 
L 3104 -1888 
L 1626 2918 
Q 1555 3149 1465 3251 
Q 1376 3354 1229 3354 
Q 1011 3354 794 3181 
L 717 3309 
L 1766 4115 
L 1926 4115 
L 3379 -602 
L 3405 -602 
L 6605 9933 
L 6970 9933 
z
" transform="scale(0.015625)"/>
      <path id="STIXSizeTwoSym-Regular-29" d="M 730 9792 
L 730 10022 
Q 1805 9011 2432 7507 
Q 3059 6003 3059 4115 
Q 3059 2234 2416 643 
Q 1773 -947 730 -1786 
L 730 -1574 
Q 1459 -826 1955 633 
Q 2451 2093 2451 4115 
Q 2451 7674 730 9792 
z
" transform="scale(0.015625)"/>
     </defs>
     <use xlink:href="#DejaVuSans-Oblique-61" transform="translate(0 0.65625)"/>
     <use xlink:href="#DejaVuSans-Oblique-69" transform="translate(61.279297 -15.75) scale(0.7)"/>
     <use xlink:href="#DejaVuSans-Oblique-6a" transform="translate(80.727539 -15.75) scale(0.7)"/>
     <use xlink:href="#DejaVuSans-3d" transform="translate(122.392578 0.65625)"/>
     <use xlink:href="#DejaVuSans-73" transform="translate(225.664062 0.65625)"/>
     <use xlink:href="#DejaVuSans-6f" transform="translate(277.763672 0.65625)"/>
     <use xlink:href="#DejaVuSans-66" transform="translate(338.945312 0.65625)"/>
     <use xlink:href="#DejaVuSans-74" transform="translate(374.150391 0.65625)"/>
     <use xlink:href="#DejaVuSans-6d" transform="translate(413.359375 0.65625)"/>
     <use xlink:href="#DejaVuSans-61" transform="translate(510.771484 0.65625)"/>
     <use xlink:href="#DejaVuSans-78" transform="translate(572.050781 0.65625)"/>
     <use xlink:href="#DejaVuSans-Oblique-6a" transform="translate(632.1875 -15.75) scale(0.7)"/>
     <use xlink:href="#DejaVuSans-2264" transform="translate(665.273438 -15.75) scale(0.7)"/>
     <use xlink:href="#DejaVuSans-Oblique-69" transform="translate(737.563477 -15.75) scale(0.7)"/>
     <use xlink:href="#STIXSizeTwoSym-Regular-28" transform="translate(759.746094 -8.542187) scale(0.782156)"/>
     <use xlink:href="#DejaVuSans-Bold-71" transform="translate(805.835327 0.65625)"/>
     <use xlink:href="#DejaVuSans-22a4" transform="translate(892.012085 39.001562) scale(0.7)"/>
     <use xlink:href="#DejaVuSans-Oblique-69" transform="translate(878.37439 -26.6875) scale(0.7)"/>
     <use xlink:href="#DejaVuSans-Bold-6b" transform="translate(969.360718 0.65625)"/>
     <use xlink:href="#DejaVuSans-Oblique-6a" transform="translate(1036.821655 -15.75) scale(0.7)"/>
     <use xlink:href="#DejaVuSans-2f" transform="translate(1059.004272 0.65625)"/>
     <use xlink:href="#STIXSizeOneSym-Regular-221a" transform="translate(1092.695679 4.015625) scale(0.669402)"/>
     <use xlink:href="#DejaVuSans-Oblique-64" transform="translate(1176.014679 0.765625)"/>
     <use xlink:href="#DejaVuSans-Oblique-6b" transform="translate(1239.491241 -15.640625) scale(0.7)"/>
     <use xlink:href="#STIXSizeTwoSym-Regular-29" transform="translate(1295.262726 -8.542187) scale(0.782156)"/>
     <path d="M 1163.514679 101.5 
L 1163.514679 107.75 
L 1295.262726 107.75 
L 1295.262726 101.5 
L 1163.514679 101.5 
z
"/>
    </g>
   </g>
   <g id="text_12">
    <!-- attention weights (causal) -->
    <g style="fill: #64748b" transform="translate(336.835434 192.761391) scale(0.076 -0.076)">
     <defs>
      <path id="DejaVuSans-67" d="M 2906 1791 
Q 2906 2416 2648 2759 
Q 2391 3103 1925 3103 
Q 1463 3103 1205 2759 
Q 947 2416 947 1791 
Q 947 1169 1205 825 
Q 1463 481 1925 481 
Q 2391 481 2648 825 
Q 2906 1169 2906 1791 
z
M 3481 434 
Q 3481 -459 3084 -895 
Q 2688 -1331 1869 -1331 
Q 1566 -1331 1297 -1286 
Q 1028 -1241 775 -1147 
L 775 -588 
Q 1028 -725 1275 -790 
Q 1522 -856 1778 -856 
Q 2344 -856 2625 -561 
Q 2906 -266 2906 331 
L 2906 616 
Q 2728 306 2450 153 
Q 2172 0 1784 0 
Q 1141 0 747 490 
Q 353 981 353 1791 
Q 353 2603 747 3093 
Q 1141 3584 1784 3584 
Q 2172 3584 2450 3431 
Q 2728 3278 2906 2969 
L 2906 3500 
L 3481 3500 
L 3481 434 
z
" transform="scale(0.015625)"/>
     </defs>
     <use xlink:href="#DejaVuSans-61"/>
     <use xlink:href="#DejaVuSans-74" x="61.279297"/>
     <use xlink:href="#DejaVuSans-74" x="100.488281"/>
     <use xlink:href="#DejaVuSans-65" x="139.697266"/>
     <use xlink:href="#DejaVuSans-6e" x="201.220703"/>
     <use xlink:href="#DejaVuSans-74" x="264.599609"/>
     <use xlink:href="#DejaVuSans-69" x="303.808594"/>
     <use xlink:href="#DejaVuSans-6f" x="331.591797"/>
     <use xlink:href="#DejaVuSans-6e" x="392.773438"/>
     <use xlink:href="#DejaVuSans-20" x="456.152344"/>
     <use xlink:href="#DejaVuSans-77" x="487.939453"/>
     <use xlink:href="#DejaVuSans-65" x="569.726562"/>
     <use xlink:href="#DejaVuSans-69" x="631.25"/>
     <use xlink:href="#DejaVuSans-67" x="659.033203"/>
     <use xlink:href="#DejaVuSans-68" x="722.509766"/>
     <use xlink:href="#DejaVuSans-74" x="785.888672"/>
     <use xlink:href="#DejaVuSans-73" x="825.097656"/>
     <use xlink:href="#DejaVuSans-20" x="877.197266"/>
     <use xlink:href="#DejaVuSans-28" x="908.984375"/>
     <use xlink:href="#DejaVuSans-63" x="947.998047"/>
     <use xlink:href="#DejaVuSans-61" x="1002.978516"/>
     <use xlink:href="#DejaVuSans-75" x="1064.257812"/>
     <use xlink:href="#DejaVuSans-73" x="1127.636719"/>
     <use xlink:href="#DejaVuSans-61" x="1179.736328"/>
     <use xlink:href="#DejaVuSans-6c" x="1241.015625"/>
     <use xlink:href="#DejaVuSans-29" x="1268.798828"/>
    </g>
   </g>
   <g id="text_13">
    <!-- $\mathbf{o}_i=\sum_{j\leq i} a_{ij}\,\mathbf{v}_j$ -->
    <g style="fill: #1e293b" transform="translate(355.078622 246.689386) scale(0.115 -0.115)">
     <defs>
      <path id="DejaVuSansDisplay-2211" d="M 244 6509 
L 5803 6509 
L 5803 5656 
L 1566 5656 
L 4534 2488 
L 1469 -888 
L 5919 -888 
L 5919 -1738 
L 109 -1738 
L 109 -1078 
L 3316 2463 
L 244 5728 
L 244 6509 
z
" transform="scale(0.015625)"/>
      <path id="DejaVuSans-Bold-76" d="M 97 3500 
L 1216 3500 
L 2088 1081 
L 2956 3500 
L 4078 3500 
L 2700 0 
L 1472 0 
L 97 3500 
z
" transform="scale(0.015625)"/>
     </defs>
     <use xlink:href="#DejaVuSans-Bold-6f" transform="translate(0 0.296875)"/>
     <use xlink:href="#DejaVuSans-Oblique-69" transform="translate(69.658203 -16.109375) scale(0.7)"/>
     <use xlink:href="#DejaVuSans-3d" transform="translate(111.323242 0.296875)"/>
     <use xlink:href="#DejaVuSansDisplay-2211" transform="translate(231.594727 0.296875)"/>
     <use xlink:href="#DejaVuSans-Oblique-6a" transform="translate(214.594727 -98.798438) scale(0.7)"/>
     <use xlink:href="#DejaVuSans-2264" transform="translate(247.680664 -98.798438) scale(0.7)"/>
     <use xlink:href="#DejaVuSans-Oblique-69" transform="translate(319.970703 -98.798438) scale(0.7)"/>
     <use xlink:href="#DejaVuSans-Oblique-61" transform="translate(339.418945 0.296875)"/>
     <use xlink:href="#DejaVuSans-Oblique-69" transform="translate(400.698242 -16.109375) scale(0.7)"/>
     <use xlink:href="#DejaVuSans-Oblique-6a" transform="translate(420.146484 -16.109375) scale(0.7)"/>
     <use xlink:href="#DejaVuSans-Bold-76" transform="translate(458.564778 0.296875)"/>
     <use xlink:href="#DejaVuSans-Oblique-6a" transform="translate(524.707356 -16.109375) scale(0.7)"/>
    </g>
   </g>
   <g id="text_14">
    <!-- head output $\in\mathbb{R}^{d_v}$ -->
    <g style="fill: #64748b" transform="translate(351.495122 273.861146) scale(0.076 -0.076)">
     <defs>
      <path id="DejaVuSans-2208" d="M 1072 1959 
Q 1094 1728 1291 1353 
Q 1522 919 1959 675 
Q 2388 438 2850 434 
L 5028 434 
L 5028 -63 
L 2850 -63 
Q 2250 -63 1695 246 
Q 1141 556 844 1106 
Q 547 1656 547 2241 
Q 547 2819 844 3369 
Q 1141 3919 1695 4231 
Q 2250 4544 2850 4544 
L 5028 4544 
L 5028 4047 
L 2850 4047 
Q 2388 4044 1959 3803 
Q 1525 3556 1291 3125 
Q 1091 2750 1063 2459 
L 5028 2459 
L 5028 1959 
L 1072 1959 
z
" transform="scale(0.015625)"/>
     </defs>
     <use xlink:href="#DejaVuSans-68" transform="translate(0 0.529687)"/>
     <use xlink:href="#DejaVuSans-65" transform="translate(63.378906 0.529687)"/>
     <use xlink:href="#DejaVuSans-61" transform="translate(124.902344 0.529687)"/>
     <use xlink:href="#DejaVuSans-64" transform="translate(186.181641 0.529687)"/>
     <use xlink:href="#DejaVuSans-20" transform="translate(249.658203 0.529687)"/>
     <use xlink:href="#DejaVuSans-6f" transform="translate(281.445312 0.529687)"/>
     <use xlink:href="#DejaVuSans-75" transform="translate(342.626953 0.529687)"/>
     <use xlink:href="#DejaVuSans-74" transform="translate(406.005859 0.529687)"/>
     <use xlink:href="#DejaVuSans-70" transform="translate(445.214844 0.529687)"/>
     <use xlink:href="#DejaVuSans-75" transform="translate(508.691406 0.529687)"/>
     <use xlink:href="#DejaVuSans-74" transform="translate(572.070312 0.529687)"/>
     <use xlink:href="#DejaVuSans-20" transform="translate(611.279297 0.529687)"/>
     <use xlink:href="#DejaVuSans-2208" transform="translate(662.548828 0.529687)"/>
     <use xlink:href="#STIXGeneral-Italic-211d" transform="translate(769.140625 0.529687)"/>
     <use xlink:href="#DejaVuSans-Oblique-64" transform="translate(843.792065 38.810937) scale(0.7)"/>
     <use xlink:href="#DejaVuSans-Oblique-76" transform="translate(888.225659 27.326562) scale(0.49)"/>
    </g>
   </g>
   <g id="text_15">
    <!-- $W_O$ -->
    <g style="fill: #047857" transform="translate(554.010732 254.71558) scale(0.12 -0.12)">
     <use xlink:href="#DejaVuSans-Oblique-57" transform="translate(0 0.09375)"/>
     <use xlink:href="#DejaVuSans-Oblique-4f" transform="translate(98.876953 -16.3125) scale(0.7)"/>
    </g>
   </g>
   <g id="text_16">
    <!-- $\mathbb{R}^{d\times d_v}$ -->
    <g style="fill: #64748b" transform="translate(552.070732 270.919089) scale(0.08 -0.08)">
     <use xlink:href="#STIXGeneral-Italic-211d" transform="translate(0 0.529687)"/>
     <use xlink:href="#DejaVuSans-Oblique-64" transform="translate(74.65144 38.810937) scale(0.7)"/>
     <use xlink:href="#DejaVuSans-d7" transform="translate(132.722729 38.810937) scale(0.7)"/>
     <use xlink:href="#DejaVuSans-Oblique-64" transform="translate(205.012768 38.810937) scale(0.7)"/>
     <use xlink:href="#DejaVuSans-Oblique-76" transform="translate(249.446362 27.326562) scale(0.49)"/>
    </g>
   </g>
   <g id="patch_21">
    <path d="M 700.20878 80.746704 
C 705.770788 80.746704 711.105739 78.973222 715.038672 75.816847 
C 718.971606 72.660472 721.181415 68.378908 721.181415 63.91512 
C 721.181415 59.451332 718.971606 55.169768 715.038672 52.013393 
C 711.105739 48.857018 705.770788 47.083536 700.20878 47.083536 
C 694.646773 47.083536 689.311822 48.857018 685.378889 52.013393 
C 681.445955 55.169768 679.236146 59.451332 679.236146 63.91512 
C 679.236146 68.378908 681.445955 72.660472 685.378889 75.816847 
C 689.311822 78.973222 694.646773 80.746704 700.20878 80.746704 
z
" clip-path="url(#pa1d18e0bcb)" style="fill: #ffffff; stroke: #1e293b; stroke-width: 1.8; stroke-linejoin: miter"/>
   </g>
   <g id="text_17">
    <!-- residual -->
    <g style="fill: #1e293b" transform="translate(45.974394 165.192637) scale(0.09 -0.09)">
     <use xlink:href="#DejaVuSans-Bold-72"/>
     <use xlink:href="#DejaVuSans-Bold-65" x="49.316406"/>
     <use xlink:href="#DejaVuSans-Bold-73" x="117.138672"/>
     <use xlink:href="#DejaVuSans-Bold-69" x="176.660156"/>
     <use xlink:href="#DejaVuSans-Bold-64" x="210.9375"/>
     <use xlink:href="#DejaVuSans-Bold-75" x="282.519531"/>
     <use xlink:href="#DejaVuSans-Bold-61" x="353.710938"/>
     <use xlink:href="#DejaVuSans-Bold-6c" x="421.191406"/>
    </g>
   </g>
   <g id="text_18">
    <!-- stream -->
    <g style="fill: #1e293b" transform="translate(48.64416 177.999277) scale(0.09 -0.09)">
     <use xlink:href="#DejaVuSans-Bold-73"/>
     <use xlink:href="#DejaVuSans-Bold-74" x="59.521484"/>
     <use xlink:href="#DejaVuSans-Bold-72" x="107.324219"/>
     <use xlink:href="#DejaVuSans-Bold-65" x="156.640625"/>
     <use xlink:href="#DejaVuSans-Bold-61" x="224.462891"/>
     <use xlink:href="#DejaVuSans-Bold-6d" x="291.943359"/>
    </g>
   </g>
   <g id="text_19">
    <!-- $\mathbf{x}_i$ -->
    <g style="fill: #4338ca" transform="translate(60.750488 210.204867) scale(0.13 -0.13)">
     <defs>
      <path id="DejaVuSans-Bold-78" d="M 1422 1791 
L 159 3500 
L 1344 3500 
L 2059 2463 
L 2784 3500 
L 3969 3500 
L 2706 1797 
L 4031 0 
L 2847 0 
L 2059 1106 
L 1281 0 
L 97 0 
L 1422 1791 
z
" transform="scale(0.015625)"/>
     </defs>
     <use xlink:href="#DejaVuSans-Bold-78" transform="translate(0 0.3125)"/>
     <use xlink:href="#DejaVuSans-Oblique-69" transform="translate(65.458984 -16.09375) scale(0.7)"/>
    </g>
   </g>
   <g id="text_20">
    <!-- $\mathbf{x}_j$ -->
    <g style="fill: #4338ca" transform="translate(60.750488 236.321261) scale(0.13 -0.13)">
     <use xlink:href="#DejaVuSans-Bold-78" transform="translate(0 0.3125)"/>
     <use xlink:href="#DejaVuSans-Oblique-6a" transform="translate(65.458984 -16.09375) scale(0.7)"/>
    </g>
   </g>
   <g id="text_21">
    <!-- $\in\mathbb{R}^{d}$ -->
    <g style="fill: #64748b" transform="translate(56.302488 263.765967) scale(0.082 -0.082)">
     <use xlink:href="#DejaVuSans-2208" transform="translate(19.482422 0.529687)"/>
     <use xlink:href="#STIXGeneral-Italic-211d" transform="translate(126.074219 0.529687)"/>
     <use xlink:href="#DejaVuSans-Oblique-64" transform="translate(200.725659 38.810937) scale(0.7)"/>
    </g>
   </g>
   <g id="text_22">
    <!-- input projections -->
    <g style="fill: #64748b" transform="translate(164.731996 106.537622) scale(0.086 -0.086)">
     <defs>
      <path id="DejaVuSans-Oblique-6e" d="M 3566 2113 
L 3156 0 
L 2578 0 
L 2988 2091 
Q 3016 2238 3031 2350 
Q 3047 2463 3047 2528 
Q 3047 2791 2881 2937 
Q 2716 3084 2419 3084 
Q 1956 3084 1622 2776 
Q 1288 2469 1184 1941 
L 800 0 
L 225 0 
L 903 3500 
L 1478 3500 
L 1363 2950 
Q 1603 3253 1940 3418 
Q 2278 3584 2650 3584 
Q 3113 3584 3367 3334 
Q 3622 3084 3622 2631 
Q 3622 2519 3608 2391 
Q 3594 2263 3566 2113 
z
" transform="scale(0.015625)"/>
      <path id="DejaVuSans-Oblique-70" d="M 3175 2156 
Q 3175 2616 2975 2859 
Q 2775 3103 2400 3103 
Q 2144 3103 1911 2972 
Q 1678 2841 1497 2591 
Q 1319 2344 1212 1994 
Q 1106 1644 1106 1300 
Q 1106 863 1306 627 
Q 1506 391 1875 391 
Q 2147 391 2380 519 
Q 2613 647 2778 891 
Q 2956 1147 3065 1494 
Q 3175 1841 3175 2156 
z
M 1394 2969 
Q 1625 3272 1939 3428 
Q 2253 3584 2638 3584 
Q 3175 3584 3472 3232 
Q 3769 2881 3769 2247 
Q 3769 1728 3584 1258 
Q 3400 788 3053 416 
Q 2822 169 2531 39 
Q 2241 -91 1919 -91 
Q 1547 -91 1294 64 
Q 1041 219 916 525 
L 556 -1331 
L -19 -1331 
L 922 3500 
L 1497 3500 
L 1394 2969 
z
" transform="scale(0.015625)"/>
      <path id="DejaVuSans-Oblique-75" d="M 428 1388 
L 838 3500 
L 1416 3500 
L 1006 1409 
Q 975 1256 961 1147 
Q 947 1038 947 966 
Q 947 700 1109 554 
Q 1272 409 1569 409 
Q 2031 409 2368 721 
Q 2706 1034 2809 1563 
L 3194 3500 
L 3769 3500 
L 3091 0 
L 2516 0 
L 2631 550 
Q 2388 244 2052 76 
Q 1716 -91 1338 -91 
Q 878 -91 622 161 
Q 366 413 366 863 
Q 366 956 381 1097 
Q 397 1238 428 1388 
z
" transform="scale(0.015625)"/>
      <path id="DejaVuSans-Oblique-74" d="M 2706 3500 
L 2619 3053 
L 1472 3053 
L 1100 1153 
Q 1081 1047 1072 975 
Q 1063 903 1063 863 
Q 1063 663 1183 572 
Q 1303 481 1569 481 
L 2150 481 
L 2053 0 
L 1503 0 
Q 991 0 739 200 
Q 488 400 488 806 
Q 488 878 497 964 
Q 506 1050 525 1153 
L 897 3053 
L 409 3053 
L 500 3500 
L 978 3500 
L 1172 4494 
L 1747 4494 
L 1556 3500 
L 2706 3500 
z
" transform="scale(0.015625)"/>
      <path id="DejaVuSans-Oblique-20" transform="scale(0.015625)"/>
      <path id="DejaVuSans-Oblique-72" d="M 2853 2969 
Q 2766 3016 2653 3041 
Q 2541 3066 2413 3066 
Q 1953 3066 1609 2717 
Q 1266 2369 1153 1784 
L 800 0 
L 225 0 
L 909 3500 
L 1484 3500 
L 1375 2956 
Q 1603 3259 1920 3421 
Q 2238 3584 2597 3584 
Q 2691 3584 2781 3573 
Q 2872 3563 2963 3538 
L 2853 2969 
z
" transform="scale(0.015625)"/>
      <path id="DejaVuSans-Oblique-6f" d="M 1625 -91 
Q 1009 -91 651 289 
Q 294 669 294 1325 
Q 294 1706 417 2101 
Q 541 2497 738 2766 
Q 1047 3184 1428 3384 
Q 1809 3584 2291 3584 
Q 2888 3584 3255 3212 
Q 3622 2841 3622 2241 
Q 3622 1825 3500 1412 
Q 3378 1000 3181 728 
Q 2875 309 2494 109 
Q 2113 -91 1625 -91 
z
M 891 1344 
Q 891 869 1089 633 
Q 1288 397 1691 397 
Q 2269 397 2648 901 
Q 3028 1406 3028 2181 
Q 3028 2634 2825 2865 
Q 2622 3097 2228 3097 
Q 1903 3097 1650 2945 
Q 1397 2794 1197 2484 
Q 1050 2253 970 1956 
Q 891 1659 891 1344 
z
" transform="scale(0.015625)"/>
      <path id="DejaVuSans-Oblique-65" d="M 3078 2063 
Q 3088 2113 3092 2166 
Q 3097 2219 3097 2272 
Q 3097 2653 2873 2875 
Q 2650 3097 2266 3097 
Q 1838 3097 1509 2826 
Q 1181 2556 1013 2059 
L 3078 2063 
z
M 3578 1613 
L 903 1613 
Q 884 1494 878 1425 
Q 872 1356 872 1306 
Q 872 872 1139 634 
Q 1406 397 1894 397 
Q 2269 397 2603 481 
Q 2938 566 3225 728 
L 3116 159 
Q 2806 34 2476 -28 
Q 2147 -91 1806 -91 
Q 1078 -91 686 257 
Q 294 606 294 1247 
Q 294 1794 489 2264 
Q 684 2734 1063 3103 
Q 1306 3334 1642 3459 
Q 1978 3584 2356 3584 
Q 2950 3584 3301 3228 
Q 3653 2872 3653 2272 
Q 3653 2128 3634 1964 
Q 3616 1800 3578 1613 
z
" transform="scale(0.015625)"/>
      <path id="DejaVuSans-Oblique-63" d="M 3431 3366 
L 3316 2797 
Q 3109 2947 2876 3022 
Q 2644 3097 2394 3097 
Q 2119 3097 1870 3000 
Q 1622 2903 1453 2725 
Q 1184 2453 1037 2087 
Q 891 1722 891 1331 
Q 891 859 1127 628 
Q 1363 397 1844 397 
Q 2081 397 2348 469 
Q 2616 541 2906 684 
L 2797 116 
Q 2547 13 2283 -39 
Q 2019 -91 1741 -91 
Q 1044 -91 669 257 
Q 294 606 294 1253 
Q 294 1797 489 2255 
Q 684 2713 1069 3078 
Q 1331 3328 1684 3456 
Q 2038 3584 2456 3584 
Q 2700 3584 2940 3529 
Q 3181 3475 3431 3366 
z
" transform="scale(0.015625)"/>
      <path id="DejaVuSans-Oblique-73" d="M 3200 3397 
L 3091 2853 
Q 2863 2978 2609 3040 
Q 2356 3103 2088 3103 
Q 1634 3103 1373 2948 
Q 1113 2794 1113 2528 
Q 1113 2219 1719 2053 
Q 1766 2041 1788 2034 
L 1972 1978 
Q 2547 1819 2739 1644 
Q 2931 1469 2931 1166 
Q 2931 609 2489 259 
Q 2047 -91 1331 -91 
Q 1053 -91 747 -37 
Q 441 16 72 128 
L 184 722 
Q 500 559 806 475 
Q 1113 391 1394 391 
Q 1816 391 2080 572 
Q 2344 753 2344 1031 
Q 2344 1331 1650 1516 
L 1591 1531 
L 1394 1581 
Q 956 1697 753 1886 
Q 550 2075 550 2369 
Q 550 2928 970 3256 
Q 1391 3584 2113 3584 
Q 2397 3584 2667 3537 
Q 2938 3491 3200 3397 
z
" transform="scale(0.015625)"/>
     </defs>
     <use xlink:href="#DejaVuSans-Oblique-69"/>
     <use xlink:href="#DejaVuSans-Oblique-6e" x="27.783203"/>
     <use xlink:href="#DejaVuSans-Oblique-70" x="91.162109"/>
     <use xlink:href="#DejaVuSans-Oblique-75" x="154.638672"/>
     <use xlink:href="#DejaVuSans-Oblique-74" x="218.017578"/>
     <use xlink:href="#DejaVuSans-Oblique-20" x="257.226562"/>
     <use xlink:href="#DejaVuSans-Oblique-70" x="289.013672"/>
     <use xlink:href="#DejaVuSans-Oblique-72" x="352.490234"/>
     <use xlink:href="#DejaVuSans-Oblique-6f" x="393.603516"/>
     <use xlink:href="#DejaVuSans-Oblique-6a" x="454.785156"/>
     <use xlink:href="#DejaVuSans-Oblique-65" x="482.568359"/>
     <use xlink:href="#DejaVuSans-Oblique-63" x="544.091797"/>
     <use xlink:href="#DejaVuSans-Oblique-74" x="599.072266"/>
     <use xlink:href="#DejaVuSans-Oblique-69" x="638.28125"/>
     <use xlink:href="#DejaVuSans-Oblique-6f" x="666.064453"/>
     <use xlink:href="#DejaVuSans-Oblique-6e" x="727.246094"/>
     <use xlink:href="#DejaVuSans-Oblique-73" x="790.625"/>
    </g>
   </g>
   <g id="text_23">
    <!-- $\mathbf{q}_i$ -->
    <g style="fill: #4338ca" transform="translate(267.362561 141.390596) scale(0.09 -0.09)">
     <use xlink:href="#DejaVuSans-Bold-71" transform="translate(0 0.09375)"/>
     <use xlink:href="#DejaVuSans-Oblique-69" transform="translate(72.539062 -16.3125) scale(0.7)"/>
    </g>
   </g>
   <g id="text_24">
    <!-- $\mathbf{k}_j$ -->
    <g style="fill: #4338ca" transform="translate(267.587561 181.19988) scale(0.09 -0.09)">
     <use xlink:href="#DejaVuSans-Bold-6b" transform="translate(0 0.015625)"/>
     <use xlink:href="#DejaVuSans-Oblique-6a" transform="translate(67.460938 -16.390625) scale(0.7)"/>
    </g>
   </g>
   <g id="text_25">
    <!-- $\mathbf{v}_j$ -->
    <g style="fill: #047857" transform="translate(267.632561 272.947844) scale(0.09 -0.09)">
     <use xlink:href="#DejaVuSans-Bold-76" transform="translate(0 0.3125)"/>
     <use xlink:href="#DejaVuSans-Oblique-6a" transform="translate(66.142578 -16.09375) scale(0.7)"/>
    </g>
   </g>
   <g id="text_26">
    <!-- output projection -->
    <g style="fill: #64748b" transform="translate(526.311654 219.967862) scale(0.086 -0.086)">
     <use xlink:href="#DejaVuSans-Oblique-6f"/>
     <use xlink:href="#DejaVuSans-Oblique-75" x="61.181641"/>
     <use xlink:href="#DejaVuSans-Oblique-74" x="124.560547"/>
     <use xlink:href="#DejaVuSans-Oblique-70" x="163.769531"/>
     <use xlink:href="#DejaVuSans-Oblique-75" x="227.246094"/>
     <use xlink:href="#DejaVuSans-Oblique-74" x="290.625"/>
     <use xlink:href="#DejaVuSans-Oblique-20" x="329.833984"/>
     <use xlink:href="#DejaVuSans-Oblique-70" x="361.621094"/>
     <use xlink:href="#DejaVuSans-Oblique-72" x="425.097656"/>
     <use xlink:href="#DejaVuSans-Oblique-6f" x="466.210938"/>
     <use xlink:href="#DejaVuSans-Oblique-6a" x="527.392578"/>
     <use xlink:href="#DejaVuSans-Oblique-65" x="555.175781"/>
     <use xlink:href="#DejaVuSans-Oblique-63" x="616.699219"/>
     <use xlink:href="#DejaVuSans-Oblique-74" x="671.679688"/>
     <use xlink:href="#DejaVuSans-Oblique-69" x="710.888672"/>
     <use xlink:href="#DejaVuSans-Oblique-6f" x="738.671875"/>
     <use xlink:href="#DejaVuSans-Oblique-6e" x="799.853516"/>
    </g>
   </g>
   <g id="text_27">
    <!-- $\mathbf{o}_i$ -->
    <g style="fill: #047857" transform="translate(503.667659 248.984653) scale(0.09 -0.09)">
     <use xlink:href="#DejaVuSans-Bold-6f"/>
     <use xlink:href="#DejaVuSans-Oblique-69" transform="translate(69.658203 -16.40625) scale(0.7)"/>
    </g>
   </g>
   <g id="text_28">
    <!-- $+$ -->
    <g transform="translate(692.64878 68.881995) scale(0.18 -0.18)">
     <use xlink:href="#DejaVuSans-2b" transform="translate(0 0.296875)"/>
    </g>
   </g>
   <g id="text_29">
    <!-- $\Delta\mathbf{x}_i=W_O\mathbf{o}_i$ -->
    <g style="fill: #047857" transform="translate(642.034829 229.115462) scale(0.086 -0.086)">
     <defs>
      <path id="DejaVuSans-394" d="M 2188 4044 
L 906 525 
L 3472 525 
L 2188 4044 
z
M 50 0 
L 1831 4666 
L 2547 4666 
L 4325 0 
L 50 0 
z
" transform="scale(0.015625)"/>
     </defs>
     <use xlink:href="#DejaVuSans-394" transform="translate(0 0.09375)"/>
     <use xlink:href="#DejaVuSans-Bold-78" transform="translate(68.408203 0.09375)"/>
     <use xlink:href="#DejaVuSans-Oblique-69" transform="translate(133.867188 -16.3125) scale(0.7)"/>
     <use xlink:href="#DejaVuSans-3d" transform="translate(175.532227 0.09375)"/>
     <use xlink:href="#DejaVuSans-Oblique-57" transform="translate(278.803711 0.09375)"/>
     <use xlink:href="#DejaVuSans-Oblique-4f" transform="translate(377.680664 -16.3125) scale(0.7)"/>
     <use xlink:href="#DejaVuSans-Bold-6f" transform="translate(435.512695 0.09375)"/>
     <use xlink:href="#DejaVuSans-Oblique-69" transform="translate(505.170898 -16.3125) scale(0.7)"/>
    </g>
   </g>
   <g id="text_30">
    <!-- $\in\mathbb{R}^{d}$ -->
    <g style="fill: #64748b" transform="translate(668.594829 242.743877) scale(0.076 -0.076)">
     <use xlink:href="#DejaVuSans-2208" transform="translate(19.482422 0.529687)"/>
     <use xlink:href="#STIXGeneral-Italic-211d" transform="translate(126.074219 0.529687)"/>
     <use xlink:href="#DejaVuSans-Oblique-64" transform="translate(200.725659 38.810937) scale(0.7)"/>
    </g>
   </g>
   <g id="text_31">
    <!-- residual skip  $\mathbf{x}_i$ -->
    <g style="fill: #b45309" transform="translate(338.272463 55.668904) scale(0.086 -0.086)">
     <defs>
      <path id="DejaVuSans-Oblique-6c" d="M 1172 4863 
L 1747 4863 
L 800 0 
L 225 0 
L 1172 4863 
z
" transform="scale(0.015625)"/>
     </defs>
     <use xlink:href="#DejaVuSans-Oblique-72" transform="translate(0 0.015625)"/>
     <use xlink:href="#DejaVuSans-Oblique-65" transform="translate(41.113281 0.015625)"/>
     <use xlink:href="#DejaVuSans-Oblique-73" transform="translate(102.636719 0.015625)"/>
     <use xlink:href="#DejaVuSans-Oblique-69" transform="translate(154.736328 0.015625)"/>
     <use xlink:href="#DejaVuSans-Oblique-64" transform="translate(182.519531 0.015625)"/>
     <use xlink:href="#DejaVuSans-Oblique-75" transform="translate(245.996094 0.015625)"/>
     <use xlink:href="#DejaVuSans-Oblique-61" transform="translate(309.375 0.015625)"/>
     <use xlink:href="#DejaVuSans-Oblique-6c" transform="translate(370.654297 0.015625)"/>
     <use xlink:href="#DejaVuSans-Oblique-20" transform="translate(398.4375 0.015625)"/>
     <use xlink:href="#DejaVuSans-Oblique-73" transform="translate(430.224609 0.015625)"/>
     <use xlink:href="#DejaVuSans-Oblique-6b" transform="translate(482.324219 0.015625)"/>
     <use xlink:href="#DejaVuSans-Oblique-69" transform="translate(540.234375 0.015625)"/>
     <use xlink:href="#DejaVuSans-Oblique-70" transform="translate(568.017578 0.015625)"/>
     <use xlink:href="#DejaVuSans-Oblique-20" transform="translate(631.494141 0.015625)"/>
     <use xlink:href="#DejaVuSans-Oblique-20" transform="translate(663.28125 0.015625)"/>
     <use xlink:href="#DejaVuSans-Bold-78" transform="translate(695.068359 0.015625)"/>
     <use xlink:href="#DejaVuSans-Oblique-69" transform="translate(760.527344 -16.390625) scale(0.7)"/>
    </g>
   </g>
   <g id="text_32">
    <!-- $\mathbf{x}_i+\Delta\mathbf{x}_i$ -->
    <g style="fill: #1e293b" transform="translate(712.693829 80.869155) scale(0.084 -0.084)">
     <use xlink:href="#DejaVuSans-Bold-78" transform="translate(0 0.09375)"/>
     <use xlink:href="#DejaVuSans-Oblique-69" transform="translate(65.458984 -16.3125) scale(0.7)"/>
     <use xlink:href="#DejaVuSans-2b" transform="translate(107.124023 0.09375)"/>
     <use xlink:href="#DejaVuSans-394" transform="translate(210.395508 0.09375)"/>
     <use xlink:href="#DejaVuSans-Bold-78" transform="translate(278.803711 0.09375)"/>
     <use xlink:href="#DejaVuSans-Oblique-69" transform="translate(344.262695 -16.3125) scale(0.7)"/>
    </g>
   </g>
  </g>
 </g>
 <defs>
  <clipPath id="pa1d18e0bcb">
   <rect x="7.2" y="7.2" width="747.72" height="365.904"/>
  </clipPath>
 </defs>
</svg>
